SplineFontDB: 3.0
FontName: BenchTwelve-Regular
FullName: BenchTwelve Regular
FamilyName: BenchTwelve
Weight: Regular
Copyright: (c) 2012 Vernon Adams
Version: 1.000;PS (version unavailable);hotconv 1.0.57;makeotf.lib2.0.21895 DEVELOPMENT
ItalicAngle: 0
UnderlinePosition: 0
UnderlineWidth: 0
Ascent: 1536
Descent: 512
UFOAscent: 1536
UFODescent: -512
LayerCount: 2
Layer: 0 0 "Back"  1
Layer: 1 0 "Fore"  0
FSType: 8
OS2Version: 0
OS2_WeightWidthSlopeOnly: 0
OS2_UseTypoMetrics: 0
CreationTime: 1346954862
ModificationTime: 1347670364
PfmFamily: 0
TTFWeight: 400
TTFWidth: 5
LineGap: 0
VLineGap: 0
Panose: 0 0 0 0 0 0 0 0 0 0
OS2TypoAscent: 0
OS2TypoAOffset: 1
OS2TypoDescent: 0
OS2TypoDOffset: 1
OS2TypoLinegap: 0
OS2WinAscent: 8589
OS2WinAOffset: 0
OS2WinDescent: 0
OS2WinDOffset: 0
HheadAscent: 6443
HheadAOffset: 0
HheadDescent: -2148
HheadDOffset: 0
OS2SubXSize: 5583
OS2SubYSize: 5151
OS2SubXOff: 0
OS2SubYOff: 641
OS2SupXSize: 5583
OS2SupYSize: 5151
OS2SupXOff: 0
OS2SupYOff: 3002
OS2StrikeYSize: 209
OS2StrikeYPos: 2529
OS2Vendor: 'newt'
OS2CodePages: 00000001.00000000
OS2UnicodeRanges: 00000001.00000000.00000000.00000000
DEI: 91125
LangName: 1033 "" "" "" "1.000;newt;BenchTwelve-Regular" "" "Version 1.000;PS (version unavailable);hotconv 1.0.57;makeotf.lib2.0.21895 DEVELOPMENT" 
PickledData: "(dp1
S'com.typemytype.robofont.compileSettings.autohint'
p2
I01
sS'com.typemytype.robofont.compileSettings.decompose'
p3
I01
sS'com.typemytype.robofont.foreground.layerStrokeColor'
p4
(F0.5
F0
F0.5
F0.69999999999999996
tp5
sS'com.typemytype.robofont.guides'
p6
((dp7
S'angle'
p8
I0
sS'name'
p9
NsS'magnetic'
p10
I5
sS'isGlobal'
p11
I1
sS'y'
I-13
sS'x'
I502
s(dp12
g8
I0
sg9
Nsg10
I5
sg11
I1
sS'y'
I1018
sS'x'
I347
s(dp13
g8
I0
sg9
Nsg10
I5
sg11
I1
sS'y'
I1388
sS'x'
I427
s(dp14
g8
I0
sg9
Nsg10
I5
sg11
I1
sS'y'
I1451
sS'x'
I424
s(dp15
g8
I0
sg9
Nsg10
I5
sg11
I1
sS'y'
I51
sS'x'
I449
stp16
sS'com.typemytype.robofont.compileSettings.releaseMode'
p17
I00

StartChar: .notdef
Encoding: 65536 -1 0
Width: 349
VWidth: 0
Flags: HW
LayerCount: 2
Fore
SplineSet
70 -197 m 1
 280 -197 l 1
 280 1373 l 1
 70 1373 l 1
 70 -197 l 1
35 -299 m 1
 35 1475 l 1
 314 1475 l 1
 314 -299 l 1
 35 -299 l 1
EndSplineSet
EndChar

StartChar: A
Encoding: 33 65 1
Width: 739
VWidth: 0
Flags: HW
PickledData: "(dp1
S'com.typemytype.robofont.layerData'
p2
(dp3
S'b'
(dp4
S'name'
p5
S'A'
sS'lib'
p6
(dp7
sS'unicodes'
p8
(tsS'width'
p9
F739.653061224
sS'contours'
p10
(tsS'components'
p11
(tsS'anchors'
p12
(tsss."
LayerCount: 2
Fore
SplineSet
74 0 m 2
 65 0 59 11 59 32 c 0
 59 42 57 39 60 53 c 2
 318 1380 l 2
 326 1421 338 1435 354 1438 c 1
 400 1438 l 1
 416 1435 428 1421 435 1380 c 2
 675 53 l 2
 677 39 682 41 682 31 c 0
 682 11 677 0 667 0 c 2
 638 0 l 2
 622 0 602 9 595 53 c 2
 546 355 l 1
 542 360 l 1
 198 360 l 1
 195 354 l 1
 138 53 l 2
 129 10 119 0 101 0 c 2
 74 0 l 2
227 420 m 2
 525 420 l 2
 527 420 527 423 527 425 c 0
 527 427 527 429 525 430 c 1
 378 1331 l 2
 377 1332 377 1333 377 1333 c 1
 375 1333 375 1331 375 1331 c 1
 219 436 l 2
 218 431 218 428 218 427 c 0
 218 425 221 420 227 420 c 2
EndSplineSet
EndChar

StartChar: B
Encoding: 34 66 3
Width: 847
VWidth: 0
Flags: HW
PickledData: "(dp1
S'com.typemytype.robofont.layerData'
p2
(dp3
S'b'
(dp4
S'name'
p5
S'B'
sS'lib'
p6
(dp7
sS'unicodes'
p8
(tsS'width'
p9
I847
sS'contours'
p10
(tsS'components'
p11
(tsS'anchors'
p12
(tsss."
LayerCount: 2
Fore
SplineSet
131 0 m 2
 115 0 104 0 104 37 c 2
 104 1399 l 2
 104 1438 115 1438 131 1438 c 2
 426 1438 l 2
 621 1438 747 1342 747 1043 c 0
 747 932 715 826 622 772 c 0
 617 769 615 766 615 765 c 0
 615 763 619 760 623 758 c 0
 720 703 787 590 787 424 c 0
 787 96 661 0 404 0 c 2
 131 0 l 2
196 60 m 2
 419 60 l 2
 640 60 709 187 709 417 c 0
 709 623 603 737 479 737 c 2
 196 737 l 2
 188 737 182 737 182 718 c 2
 182 75 l 2
 182 60 188 60 196 60 c 2
196 795 m 2
 486 795 l 2
 591 795 669 876 669 1046 c 0
 669 1276 597 1378 430 1378 c 2
 196 1378 l 2
 188 1378 182 1378 182 1358 c 2
 182 810 l 2
 182 795 188 795 196 795 c 2
EndSplineSet
EndChar

StartChar: C
Encoding: 35 67 4
Width: 660
VWidth: 0
Flags: HW
PickledData: "(dp1
S'com.typemytype.robofont.layerData'
p2
(dp3
S'b'
(dp4
S'name'
p5
S'C'
sS'lib'
p6
(dp7
sS'unicodes'
p8
(tsS'width'
p9
I660
sS'contours'
p10
(tsS'components'
p11
(tsS'anchors'
p12
(tsss."
LayerCount: 2
Fore
SplineSet
432 -13 m 0
 277 -13 90 22 90 721 c 0
 90 1383 273 1451 444 1451 c 0
 506 1451 554 1439 580 1428 c 0
 584 1426 592 1422 592 1413 c 2
 592 1372 l 2
 592 1364 589 1363 585 1363 c 0
 583 1363 524 1388 453 1388 c 0
 310 1388 168 1317 168 721 c 0
 168 120 286 51 433 51 c 0
 469 51 530 60 563 71 c 0
 567 72 570 68 570 63 c 2
 570 15 l 2
 570 10 567 8 563 6 c 0
 520 -9 463 -13 432 -13 c 0
EndSplineSet
EndChar

StartChar: D
Encoding: 36 68 5
Width: 883
VWidth: 0
Flags: HW
PickledData: "(dp1
S'com.typemytype.robofont.layerData'
p2
(dp3
S'b'
(dp4
S'name'
p5
S'D'
sS'lib'
p6
(dp7
sS'unicodes'
p8
(tsS'width'
p9
I883
sS'contours'
p10
(tsS'components'
p11
(tsS'anchors'
p12
(tsss."
LayerCount: 2
Fore
SplineSet
193 60 m 2
 412 60 l 2
 663 60 718 222 718 721 c 0
 718 1162 646 1378 412 1378 c 2
 192 1378 l 2
 186 1378 182 1374 182 1364 c 2
 182 78 l 2
 182 64 185 60 193 60 c 2
126 0 m 2
 112 0 104 4 104 37 c 2
 104 1411 l 2
 104 1434 112 1438 126 1438 c 2
 412 1438 l 2
 653 1438 796 1293 796 721 c 0
 796 141 693 0 412 0 c 2
 126 0 l 2
EndSplineSet
EndChar

StartChar: E
Encoding: 37 69 6
Width: 660
VWidth: 0
Flags: HW
PickledData: "(dp1
S'com.typemytype.robofont.layerData'
p2
(dp3
S'b'
(dp4
S'name'
p5
S'E'
sS'lib'
p6
(dp7
sS'unicodes'
p8
(tsS'width'
p9
I660
sS'contours'
p10
(tsS'components'
p11
(tsS'anchors'
p12
(tsss."
LayerCount: 2
Fore
SplineSet
126 0 m 2
 112 0 104 0 104 32 c 2
 104 1406 l 2
 104 1433 112 1438 126 1438 c 2
 566 1438 l 2
 580 1438 588 1438 588 1411 c 2
 588 1405 l 2
 588 1378 580 1378 566 1378 c 2
 191 1378 l 2
 183 1378 182 1373 182 1353 c 2
 182 783 l 1
 186 775 l 1
 521 775 l 2
 536 775 544 775 544 750 c 2
 544 743 l 2
 544 716 536 716 521 716 c 2
 187 716 l 1
 182 699 l 1
 182 60 l 1
 567 60 l 2
 581 60 589 60 589 33 c 2
 589 27 l 2
 589 0 581 0 567 0 c 2
 126 0 l 2
EndSplineSet
EndChar

StartChar: F
Encoding: 38 70 10
Width: 611
VWidth: 0
Flags: HW
PickledData: "(dp1
S'com.typemytype.robofont.guides'
p2
(tsS'com.typemytype.robofont.layerData'
p3
(dp4
S'b'
(dp5
S'name'
p6
S'F'
sS'lib'
p7
(dp8
sS'unicodes'
p9
(tsS'width'
p10
I611
sS'contours'
p11
(tsS'components'
p12
(tsS'anchors'
p13
(tsss."
LayerCount: 2
Fore
SplineSet
126 0 m 2
 112 0 104 0 104 32 c 2
 104 1406 l 2
 104 1433 112 1438 126 1438 c 2
 550 1438 l 2
 564 1438 572 1438 572 1411 c 2
 572 1405 l 2
 572 1378 564 1378 550 1378 c 2
 191 1378 l 2
 183 1378 182 1373 182 1353 c 2
 182 783 l 1
 186 775 l 1
 505 775 l 2
 520 775 528 775 528 750 c 2
 528 743 l 2
 528 716 520 716 505 716 c 2
 187 716 l 1
 182 699 l 1
 182 32 l 2
 182 0 174 0 159 0 c 2
 126 0 l 2
EndSplineSet
EndChar

StartChar: G
Encoding: 39 71 11
Width: 836
VWidth: 0
Flags: HW
PickledData: "(dp1
S'com.typemytype.robofont.layerData'
p2
(dp3
S'b'
(dp4
S'name'
p5
S'G'
sS'lib'
p6
(dp7
sS'unicodes'
p8
(tsS'width'
p9
I836
sS'contours'
p10
(tsS'components'
p11
(tsS'anchors'
p12
(tsss."
LayerCount: 2
Fore
SplineSet
730 -15 m 0
 715 -15 706 -8 702 35 c 0
 699 65 693 179 693 232 c 0
 693 236 692 238 691 238 c 0
 689 238 687 238 686 232 c 0
 659 82 572 -13 458 -13 c 0
 283 -13 90 62 90 721 c 0
 90 1412 306 1451 498 1451 c 0
 576 1451 624 1437 653 1427 c 0
 657 1425 667 1421 667 1412 c 2
 667 1371 l 2
 667 1363 663 1362 659 1362 c 0
 657 1362 588 1388 508 1388 c 0
 347 1388 168 1351 168 721 c 0
 168 120 320 51 460 51 c 0
 635 51 675 294 675 563 c 0
 675 633 673 642 667 642 c 2
 465 642 l 2
 449 642 433 642 433 674 c 2
 433 685 l 2
 433 717 447 717 462 717 c 2
 727 717 l 2
 742 717 753 726 753 683 c 2
 753 35 l 2
 753 -8 745 -15 730 -15 c 0
EndSplineSet
EndChar

StartChar: H
Encoding: 40 72 12
Width: 851
VWidth: 0
Flags: HW
PickledData: "(dp1
S'com.typemytype.robofont.layerData'
p2
(dp3
S'b'
(dp4
S'name'
p5
S'H'
sS'lib'
p6
(dp7
sS'unicodes'
p8
(tsS'width'
p9
F851.83399999999995
sS'contours'
p10
(tsS'components'
p11
(tsS'anchors'
p12
(tsss."
LayerCount: 2
Fore
SplineSet
128 0 m 2
 112 0 104 4 104 47 c 2
 104 1391 l 2
 104 1434 112 1438 128 1438 c 2
 156 1438 l 2
 172 1438 182 1434 182 1391 c 2
 182 780 l 1
 186 765 l 1
 661 765 l 1
 669 783 l 1
 669 1391 l 2
 669 1434 679 1438 696 1438 c 2
 726 1438 l 2
 740 1438 748 1434 748 1391 c 2
 748 47 l 2
 748 4 740 0 726 0 c 2
 696 0 l 2
 679 0 669 4 669 47 c 2
 669 679 l 1
 662 697 l 1
 187 697 l 1
 182 681 l 1
 182 47 l 2
 182 4 172 0 156 0 c 2
 128 0 l 2
EndSplineSet
EndChar

StartChar: I
Encoding: 41 73 13
Width: 289
VWidth: 0
Flags: HW
PickledData: "(dp1
S'com.typemytype.robofont.layerData'
p2
(dp3
S'b'
(dp4
S'name'
p5
S'I'
sS'lib'
p6
(dp7
sS'unicodes'
p8
(tsS'width'
p9
I289
sS'contours'
p10
(tsS'components'
p11
(tsS'anchors'
p12
(tsss."
LayerCount: 2
Fore
SplineSet
131 0 m 2
 117 0 109 4 109 47 c 2
 109 1391 l 2
 109 1434 117 1438 131 1438 c 2
 164 1438 l 2
 179 1438 187 1434 187 1391 c 2
 187 47 l 2
 187 4 179 0 164 0 c 2
 131 0 l 2
EndSplineSet
EndChar

StartChar: J
Encoding: 42 74 14
Width: 443
VWidth: 0
Flags: HW
PickledData: "(dp1
S'com.typemytype.robofont.layerData'
p2
(dp3
S'b'
(dp4
S'name'
p5
S'J'
sS'lib'
p6
(dp7
sS'unicodes'
p8
(tsS'width'
p9
I443
sS'contours'
p10
(tsS'components'
p11
(tsS'anchors'
p12
(tsss."
LayerCount: 2
Fore
SplineSet
17 -141 m 0
 11 -141 6 -141 6 -118 c 2
 6 -99 l 2
 6 -75 12 -75 17 -75 c 0
 198 -75 253 -66 253 371 c 2
 253 1383 l 2
 253 1426 261 1438 276 1438 c 2
 308 1438 l 2
 323 1438 331 1426 331 1383 c 2
 331 371 l 2
 331 -137 230 -141 17 -141 c 0
EndSplineSet
EndChar

StartChar: K
Encoding: 43 75 15
Width: 664
VWidth: 0
Flags: HW
PickledData: "(dp1
S'com.typemytype.robofont.layerData'
p2
(dp3
S'b'
(dp4
S'name'
p5
S'K'
sS'lib'
p6
(dp7
sS'unicodes'
p8
(tsS'width'
p9
F664.19390788600003
sS'contours'
p10
(tsS'components'
p11
(tsS'anchors'
p12
(tsss."
LayerCount: 2
Fore
SplineSet
126 0 m 2
 112 0 104 24 104 67 c 2
 104 1371 l 2
 104 1414 112 1438 126 1438 c 2
 156 1438 l 2
 173 1438 182 1414 182 1371 c 2
 182 751 l 1
 518 1376 l 1
 534 1410 544 1438 561 1438 c 2
 617 1438 l 2
 632 1438 629 1410 612 1378 c 2
 266 748 l 2
 266 746 264 742 264 737 c 0
 264 734 264 730 267 725 c 2
 634 72 l 2
 662 22 659 0 644 0 c 2
 611 0 l 2
 595 0 585 12 557 60 c 2
 183 721 l 1
 183 61 l 2
 183 18 173 0 156 0 c 2
 126 0 l 2
EndSplineSet
EndChar

StartChar: L
Encoding: 44 76 16
Width: 540
VWidth: 0
Flags: HW
PickledData: "(dp1
S'com.typemytype.robofont.layerData'
p2
(dp3
S'b'
(dp4
S'name'
p5
S'L'
sS'lib'
p6
(dp7
sS'unicodes'
p8
(tsS'width'
p9
I540
sS'contours'
p10
(tsS'components'
p11
(tsS'anchors'
p12
(tsss."
LayerCount: 2
Fore
SplineSet
126 0 m 2
 112 0 104 4 104 47 c 2
 104 1391 l 2
 104 1434 112 1438 126 1438 c 2
 159 1438 l 2
 174 1438 182 1434 182 1391 c 2
 182 78 l 2
 182 58 188 60 196 60 c 2
 462 60 l 2
 475 60 485 60 485 35 c 2
 485 27 l 2
 485 0 475 0 462 0 c 2
 126 0 l 2
EndSplineSet
EndChar

StartChar: M
Encoding: 45 77 17
Width: 1003
VWidth: 0
Flags: HW
PickledData: "(dp1
S'com.typemytype.robofont.layerData'
p2
(dp3
S'b'
(dp4
S'name'
p5
S'M'
sS'lib'
p6
(dp7
sS'unicodes'
p8
(tsS'width'
p9
F1003.01438702
sS'contours'
p10
(tsS'components'
p11
(tsS'anchors'
p12
(tsss."
LayerCount: 2
Fore
SplineSet
125 0 m 2
 111 0 102 24 103 67 c 2
 143 1371 l 2
 144 1412 151 1435 165 1438 c 1
 211 1438 l 1
 226 1435 243 1422 253 1381 c 1
 494 123 l 1
 502 123 l 1
 739 1371 l 1
 749 1412 763 1435 777 1438 c 1
 837 1438 l 1
 851 1435 857 1412 858 1371 c 2
 900 67 l 2
 901 24 894 0 879 0 c 2
 855 0 l 2
 840 0 831 24 830 67 c 2
 796 1307 l 1
 791 1308 l 1
 551 67 l 1
 542 26 527 1 512 1 c 2
 483 0 l 2
 468 0 455 26 446 67 c 1
 209 1295 l 1
 206 1291 l 1
 170 67 l 2
 169 24 165 0 151 0 c 2
 125 0 l 2
EndSplineSet
EndChar

StartChar: N
Encoding: 46 78 18
Width: 857
VWidth: 0
Flags: HW
PickledData: "(dp1
S'com.typemytype.robofont.layerData'
p2
(dp3
S'b'
(dp4
S'name'
p5
S'N'
sS'lib'
p6
(dp7
sS'unicodes'
p8
(tsS'width'
p9
F857.18200000000002
sS'contours'
p10
(tsS'components'
p11
(tsS'anchors'
p12
(tsss."
LayerCount: 2
Fore
SplineSet
128 0 m 2
 112 0 104 14 104 57 c 2
 104 1391 l 2
 104 1434 112 1438 128 1438 c 2
 145 1438 l 2
 153 1438 158 1432 164 1420 c 2
 674 209 l 1
 678 222 l 1
 678 1391 l 2
 678 1434 687 1438 704 1438 c 2
 730 1438 l 2
 745 1438 753 1434 753 1391 c 2
 753 47 l 2
 753 4 745 0 730 0 c 2
 711 0 l 2
 702 0 684 31 679 44 c 2
 182 1199 l 1
 178 1190 l 1
 178 57 l 2
 178 14 168 0 152 0 c 2
 128 0 l 2
EndSplineSet
EndChar

StartChar: O
Encoding: 47 79 19
Width: 846
VWidth: 0
Flags: HW
PickledData: "(dp1
S'com.typemytype.robofont.guides'
p2
(tsS'com.typemytype.robofont.layerData'
p3
(dp4
S'b'
(dp5
S'name'
p6
S'O'
sS'lib'
p7
(dp8
sS'unicodes'
p9
(tsS'width'
p10
I846
sS'contours'
p11
(tsS'components'
p12
(tsS'anchors'
p13
(tsss."
LayerCount: 2
Fore
SplineSet
422 51 m 0
 609 51 678 154 678 724 c 0
 678 1233 613 1388 422 1388 c 0
 233 1388 168 1212 168 724 c 0
 168 168 238 51 422 51 c 0
422 -13 m 0
 174 -13 90 135 90 724 c 0
 90 1266 174 1451 422 1451 c 0
 674 1451 756 1276 756 724 c 0
 756 125 674 -13 422 -13 c 0
EndSplineSet
EndChar

StartChar: OE
Encoding: 264 338 20
Width: 941
VWidth: 0
Flags: HW
PickledData: "(dp1
S'com.typemytype.robofont.layerData'
p2
(dp3
S'b'
(dp4
S'name'
p5
S'OE'
p6
sS'lib'
p7
(dp8
sS'unicodes'
p9
(tsS'width'
p10
F1086
sS'contours'
p11
(tsS'components'
p12
(tsS'anchors'
p13
(tsss."
LayerCount: 2
Fore
SplineSet
848 0 m 2
 422 0 l 2
 174 0 90 135 90 724 c 0
 90 1266 174 1438 422 1438 c 2
 847 1438 l 2
 861 1438 869 1438 869 1411 c 2
 869 1405 l 2
 869 1378 861 1378 847 1378 c 2
 613 1378 l 2
 605 1378 604 1373 604 1353 c 2
 604 783 l 1
 608 775 l 1
 838 775 l 2
 853 775 861 775 861 750 c 2
 861 743 l 2
 861 716 853 716 838 716 c 2
 609 716 l 1
 604 699 l 1
 604 60 l 1
 848 60 l 2
 862 60 870 60 870 33 c 2
 870 27 l 2
 870 0 862 0 848 0 c 2
422 59 m 2
 526 58.5947265625 l 1
 526 1378.26464844 l 1
 422 1378 l 2
 233 1377.51953125 168 1212 168 724 c 0
 168 168 238 59.716796875 422 59 c 2
EndSplineSet
EndChar

StartChar: P
Encoding: 48 80 22
Width: 765
VWidth: 0
Flags: HW
PickledData: "(dp1
S'com.typemytype.robofont.layerData'
p2
(dp3
S'b'
(dp4
S'name'
p5
S'P'
sS'lib'
p6
(dp7
sS'unicodes'
p8
(tsS'width'
p9
I765
sS'contours'
p10
(tsS'components'
p11
(tsS'anchors'
p12
(tsss."
LayerCount: 2
Fore
SplineSet
126 0 m 2
 112 0 104 5 104 42 c 2
 104 1393 l 2
 104 1436 112 1438 126 1438 c 2
 332 1438 l 2
 520 1438 705 1429 705 994 c 0
 705 578 547 558 365 558 c 2
 189 558 l 2
 184 558 182 554 182 546 c 2
 182 42 l 2
 182 6 174 0 159 0 c 2
 126 0 l 2
187 618 m 2
 363 618 l 2
 535 618 628 648 628 994 c 0
 628 1368 500 1378 332 1378 c 2
 188 1378 l 2
 184 1378 182 1375 182 1369 c 2
 182 628 l 2
 182 623 182 618 187 618 c 2
EndSplineSet
EndChar

StartChar: Q
Encoding: 49 81 23
Width: 926
VWidth: 0
Flags: HW
PickledData: "(dp1
S'com.typemytype.robofont.layerData'
p2
(dp3
S'b'
(dp4
S'name'
p5
S'Q'
sS'lib'
p6
(dp7
sS'unicodes'
p8
(tsS'width'
p9
I926
sS'contours'
p10
(tsS'components'
p11
(tsS'anchors'
p12
(tsss."
LayerCount: 2
Fore
SplineSet
672 -333 m 0
 653 -339 641 -343 632 -340 c 0
 623 -337 617 -327 611 -305 c 2
 526 -7 l 1
 516 -10 483 -13 462 -13 c 0
 214 -13 90 95 90 724 c 0
 90 1306 214 1451 462 1451 c 0
 714 1451 836 1316 836 724 c 0
 836 216 762 53 602 4 c 1
 682 -282 l 2
 692 -316 701 -324 672 -333 c 0
462 51 m 0
 649 51 758 114 758 724 c 0
 758 1273 653 1388 462 1388 c 0
 273 1388 168 1252 168 724 c 0
 168 128 278 51 462 51 c 0
EndSplineSet
EndChar

StartChar: R
Encoding: 50 82 24
Width: 850
VWidth: 0
Flags: HW
PickledData: "(dp1
S'com.typemytype.robofont.layerData'
p2
(dp3
S'b'
(dp4
S'name'
p5
S'R'
sS'lib'
p6
(dp7
sS'unicodes'
p8
(tsS'width'
p9
I850
sS'contours'
p10
(tsS'components'
p11
(tsS'anchors'
p12
(tsss."
LayerCount: 2
Fore
SplineSet
126 0 m 2
 112 0 104 5 104 42 c 2
 104 1393 l 2
 104 1436 112 1438 126 1438 c 2
 357 1438 l 2
 568 1438 755 1425 755 1094 c 0
 755 897 685 815 576 768 c 0
 572 766 569 763 569 760 c 0
 569 758 570 756 574 755 c 0
 647 722 748 697 748 491 c 2
 748 56 l 2
 748 15 736 0 723 0 c 2
 695 0 l 2
 679 0 673 16 673 56 c 2
 673 489 l 2
 673 694 542 729 457 729 c 1
 425 726 421 728 386 728 c 2
 190 728 l 2
 184 728 182 724 182 716 c 2
 182 42 l 2
 182 6 176 0 159 0 c 2
 126 0 l 2
188 788 m 2
 384 788 l 2
 577 788 677 827 677 1094 c 0
 677 1358 546 1378 357 1378 c 2
 189 1378 l 2
 184 1378 182 1375 182 1369 c 2
 182 798 l 2
 182 793 182 788 188 788 c 2
EndSplineSet
EndChar

StartChar: S
Encoding: 51 83 25
Width: 727
VWidth: 0
Flags: HW
PickledData: "(dp1
S'com.typemytype.robofont.layerData'
p2
(dp3
S'b'
(dp4
S'name'
p5
S'S'
sS'lib'
p6
(dp7
sS'unicodes'
p8
(tsS'width'
p9
F727.90775500400002
sS'contours'
p10
((dp11
S'points'
p12
((dp13
S'segmentType'
p14
S'curve'
p15
sS'x'
F354.90775500425627
sS'smooth'
p16
I01
sS'y'
F-13
s(dp17
S'y'
F-13
sS'x'
F554.90775500425616
sg16
I00
s(dp18
S'y'
F145
sS'x'
F661.90775500425616
sg16
I00
s(dp19
g14
S'curve'
p20
sS'x'
F661.90775500425616
sg16
I01
sS'y'
F371
s(dp21
S'y'
F593
sS'x'
F661.90775500425616
sg16
I00
s(dp22
S'y'
F706
sS'x'
F591.90775500425616
sg16
I00
s(dp23
g14
S'curve'
p24
sS'x'
F417.90775500425627
sg16
I01
sS'y'
F773
s(dp25
S'y'
F854
sS'x'
F206.9077550042563
sg16
I00
s(dp26
S'y'
F920
sS'x'
F165.9077550042563
sg16
I00
s(dp27
g14
S'curve'
p28
sS'x'
F174.9077550042563
sg16
I01
sS'y'
F1102
s(dp29
S'y'
F1291
sS'x'
F183.9077550042563
sg16
I00
s(dp30
S'y'
F1388
sS'x'
F269.90775500425627
sg16
I00
s(dp31
g14
S'curve'
p32
sS'x'
F393.90775500425627
sg16
I01
sS'y'
F1388
s(dp33
S'y'
F1388
sS'x'
F487.90775500425627
sg16
I00
s(dp34
S'y'
F1363
sS'x'
F545.90775500425616
sg16
I00
s(dp35
g14
S'curve'
p36
sS'x'
F597.90775500425616
sg16
I01
sS'y'
F1322
s(dp37
S'y'
F1321
sS'x'
F598.90775500425616
sg16
I00
s(dp38
S'y'
F1321
sS'x'
F599.90775500425616
sg16
I00
s(dp39
g14
S'curve'
p40
sS'x'
F600.90775500425616
sg16
I01
sS'y'
F1321
s(dp41
S'y'
F1321
sS'x'
F611.90775500425616
sg16
I00
s(dp42
S'y'
F1346
sS'x'
F626.90775500425616
sg16
I00
s(dp43
g14
S'curve'
p44
sS'x'
F626.90775500425616
sg16
I01
sS'y'
F1364
s(dp45
S'y'
F1369
sS'x'
F626.90775500425616
sg16
I00
s(dp46
S'y'
F1373
sS'x'
F625.90775500425616
sg16
I00
s(dp47
g14
S'curve'
p48
sS'x'
F623.90775500425616
sg16
I01
sS'y'
F1376
s(dp49
S'y'
F1427
sS'x'
F566.90775500425616
sg16
I00
s(dp50
S'y'
F1451
sS'x'
F486.90775500425627
sg16
I00
s(dp51
g14
S'curve'
p52
sS'x'
F393.90775500425627
sg16
I01
sS'y'
F1451
s(dp53
S'y'
F1451
sS'x'
F241.9077550042563
sg16
I00
s(dp54
S'y'
F1341
sS'x'
F108.90775500425623
sg16
I00
s(dp55
g14
S'curve'
p56
sS'x'
F101.90775500425623
sg16
I01
sS'y'
F1099
s(dp57
S'y'
F872
sS'x'
F94.907755004256231
sg16
I00
s(dp58
S'y'
F789
sS'x'
F176.9077550042563
sg16
I00
s(dp59
g14
S'curve'
p60
sS'x'
F402.90775500425627
sg16
I01
sS'y'
F703
s(dp61
S'y'
F635
sS'x'
F582.90775500425616
sg16
I00
s(dp62
S'y'
F514
sS'x'
F588.90775500425616
sg16
I00
s(dp63
g14
S'curve'
p64
sS'x'
F588.90775500425616
sg16
I01
sS'y'
F359
s(dp65
S'y'
F171
sS'x'
F588.90775500425616
sg16
I00
s(dp66
S'y'
F51
sS'x'
F505.90775500425627
sg16
I00
s(dp67
g14
S'curve'
p68
sS'x'
F361.90775500425627
sg16
I01
sS'y'
F51
s(dp69
S'y'
F51
sS'x'
F190.9077550042563
sg16
I00
s(dp70
S'y'
F111
sS'x'
F144.9077550042563
sg16
I00
s(dp71
g14
S'curve'
p72
sS'x'
F123.90775500425626
sg16
I01
sS'y'
F111
s(dp73
S'y'
F111
sS'x'
F113.90775500425623
sg16
I00
s(dp74
S'y'
F111
sS'x'
F105.90775500425623
sg16
I00
s(dp75
g14
S'curve'
p76
sS'x'
F101.90775500425623
sg16
I00
sS'y'
F89
s(dp77
g14
S'line'
p78
sS'x'
F101.90775500425623
sg16
I01
sS'y'
F79
s(dp79
S'y'
F68
sS'x'
F101.90775500425623
sg16
I00
s(dp80
S'y'
F64
sS'x'
F98.907755004256231
sg16
I00
s(dp81
g14
S'curve'
p82
sS'x'
F106.90775500425623
sg16
I01
sS'y'
F54
s(dp83
S'y'
F21
sS'x'
F132.9077550042563
sg16
I00
s(dp84
S'y'
F-13
sS'x'
F229.9077550042563
sg16
I00
stp85
stp86
sS'components'
p87
(tsS'anchors'
p88
(tsss."
LayerCount: 2
Fore
SplineSet
52 170 m 0
 33 204 91 236 104 211 c 1
 179 91 250 51 358 51 c 0
 498 51 587 174 587 360 c 0
 587 536 519 598 428 660 c 2
 287 756 l 1
 207 809 96 893 96 1102 c 0
 96 1305 202 1445 368 1451 c 0
 485 1455 575 1410 637 1333 c 1
 663 1297 609 1262 595 1279 c 0
 540 1349 464 1391 371 1388 c 0
 242 1384 172 1263 172 1109 c 0
 172 947 257 878 325 831 c 2
 464 737 l 2
 567 667 663 583 663 367 c 0
 663 152 547 -13 362 -13 c 0
 228 -13 125 46 52 170 c 0
EndSplineSet
EndChar

StartChar: T
Encoding: 52 84 26
Width: 569
VWidth: 0
Flags: HW
PickledData: "(dp1
S'com.typemytype.robofont.layerData'
p2
(dp3
S'b'
(dp4
S'name'
p5
S'T'
sS'lib'
p6
(dp7
sS'unicodes'
p8
(tsS'width'
p9
I569
sS'contours'
p10
(tsS'components'
p11
(tsS'anchors'
p12
(tsss."
LayerCount: 2
Fore
SplineSet
272 0 m 2
 257 0 249 4 249 47 c 2
 249 1346 l 2
 249 1366 247 1371 240 1371 c 2
 59 1371 l 2
 44 1371 36 1371 36 1398 c 2
 36 1404 l 2
 36 1438 44 1438 59 1438 c 2
 516 1438 l 2
 532 1438 539 1438 539 1404 c 2
 539 1398 l 2
 539 1371 532 1371 516 1371 c 2
 337 1371 l 2
 330 1371 327 1366 327 1346 c 2
 327 47 l 2
 327 4 319 0 304 0 c 2
 272 0 l 2
EndSplineSet
EndChar

StartChar: U
Encoding: 53 85 27
Width: 902
VWidth: 0
Flags: HW
PickledData: "(dp1
S'com.typemytype.robofont.layerData'
p2
(dp3
S'b'
(dp4
S'name'
p5
S'U'
sS'lib'
p6
(dp7
sS'unicodes'
p8
(tsS'width'
p9
I902
sS'contours'
p10
(tsS'components'
p11
(tsS'anchors'
p12
(tsss."
LayerCount: 2
Fore
SplineSet
461 -13 m 0
 240 -13 99 45 99 608 c 2
 99 1391 l 2
 99 1434 107 1438 122 1438 c 2
 154 1438 l 2
 168 1438 177 1434 177 1391 c 2
 177 608 l 2
 177 106 279 51 460 51 c 0
 644 51 725 99 725 608 c 2
 725 1391 l 2
 725 1434 733 1438 748 1438 c 2
 781 1438 l 2
 795 1438 803 1434 803 1391 c 2
 803 608 l 2
 803 46 679 -13 461 -13 c 0
EndSplineSet
EndChar

StartChar: V
Encoding: 54 86 28
Width: 717
VWidth: 0
Flags: HW
PickledData: "(dp1
S'com.typemytype.robofont.layerData'
p2
(dp3
S'b'
(dp4
S'name'
p5
S'V'
sS'lib'
p6
(dp7
sS'unicodes'
p8
(tsS'width'
p9
F717.55985598400002
sS'contours'
p10
(tsS'components'
p11
(tsS'anchors'
p12
(tsss."
LayerCount: 2
Fore
SplineSet
351 0 m 1
 338 3 325 16 316 57 c 1
 64 1371 l 2
 55 1414 60 1438 74 1438 c 2
 110 1438 l 2
 124 1438 135 1419 143 1376 c 2
 371 121 l 1
 578 1376 l 2
 585 1419 594 1438 609 1438 c 2
 644 1438 l 2
 659 1438 663 1414 655 1371 c 2
 420 57 l 2
 413 16 403 3 388 0 c 1
 351 0 l 1
EndSplineSet
EndChar

StartChar: W
Encoding: 55 87 29
Width: 1162
VWidth: 0
Flags: HW
PickledData: "(dp1
S'com.typemytype.robofont.layerData'
p2
(dp3
S'b'
(dp4
S'name'
p5
S'W'
sS'lib'
p6
(dp7
sS'unicodes'
p8
(tsS'width'
p9
F1162.3957013700001
sS'contours'
p10
(tsS'components'
p11
(tsS'anchors'
p12
(tsss."
LayerCount: 2
Fore
SplineSet
294 0 m 1
 280 3 268 26 261 67 c 2
 65 1371 l 1
 56 1414 61 1438 75 1438 c 2
 109 1438 l 2
 124 1438 138 1414 145 1371 c 2
 312 192 l 1
 514 1360 l 2
 522 1403 538 1413 552 1413 c 2
 601 1413 l 2
 618 1413 632 1403 640 1360 c 2
 868 157 l 1
 1024 1371 l 2
 1030 1414 1043 1438 1057 1438 c 2
 1090 1438 l 2
 1105 1438 1107 1414 1100 1371 c 1
 920 67 l 2
 914 26 903 3 889 0 c 1
 850 0 l 1
 833 3 820 25 812 67 c 2
 577 1324 l 1
 356 67 l 2
 349 26 343 3 328 0 c 1
 294 0 l 1
EndSplineSet
EndChar

StartChar: X
Encoding: 56 88 30
Width: 766
VWidth: 0
Flags: HW
PickledData: "(dp1
S'com.typemytype.robofont.layerData'
p2
(dp3
S'b'
(dp4
S'name'
p5
S'X'
sS'lib'
p6
(dp7
sS'unicodes'
p8
(tsS'width'
p9
I766
sS'contours'
p10
(tsS'components'
p11
(tsS'anchors'
p12
(tsss."
LayerCount: 2
Fore
SplineSet
73 0 m 2
 67 0 62 7 62 20 c 0
 62 31 64 47 72 67 c 2
 341 748 l 1
 102 1371 l 1
 96 1392 91 1409 91 1420 c 0
 91 1432 95 1438 102 1438 c 2
 137 1438 l 2
 154 1438 169 1433 185 1390 c 2
 395 819 l 1
 609 1390 l 2
 625 1432 641 1438 658 1438 c 2
 686 1438 l 2
 698 1438 704 1431 704 1416 c 0
 704 1408 703 1397 697 1383 c 2
 443 746 l 1
 692 67 l 2
 698 50 701 35 701 24 c 0
 701 9 695 0 684 0 c 2
 663 0 l 2
 646 0 633 4 617 47 c 2
 391 678 l 1
 142 47 l 2
 125 5 114 0 97 0 c 2
 73 0 l 2
EndSplineSet
EndChar

StartChar: Y
Encoding: 57 89 31
Width: 606
VWidth: 0
Flags: HW
PickledData: "(dp1
S'com.typemytype.robofont.layerData'
p2
(dp3
S'b'
(dp4
S'name'
p5
S'Y'
sS'lib'
p6
(dp7
sS'unicodes'
p8
(tsS'width'
p9
I606
sS'contours'
p10
(tsS'components'
p11
(tsS'anchors'
p12
(tsss."
LayerCount: 2
Fore
SplineSet
288 0 m 2
 273 0 265 10 265 53 c 2
 265 567 l 1
 51 1381 l 1
 44 1401 43 1409 43 1420 c 0
 43 1432 51 1438 65 1438 c 2
 84 1438 l 2
 98 1438 117 1430 124 1401 c 2
 306 689 l 1
 485 1401 l 2
 491 1425 507 1438 523 1438 c 2
 542 1438 l 2
 557 1438 563 1431 563 1418 c 0
 563 1407 563 1399 557 1381 c 1
 343 571 l 1
 343 53 l 2
 343 10 336 0 321 0 c 2
 288 0 l 2
EndSplineSet
EndChar

StartChar: Z
Encoding: 58 90 32
Width: 614
VWidth: 0
Flags: HW
PickledData: "(dp1
S'com.typemytype.robofont.layerData'
p2
(dp3
S'b'
(dp4
S'name'
p5
S'Z'
sS'lib'
p6
(dp7
sS'unicodes'
p8
(tsS'width'
p9
I614
sS'contours'
p10
(tsS'components'
p11
(tsS'anchors'
p12
(tsss."
LayerCount: 2
Fore
SplineSet
103 0 m 2
 89 0 81 0 81 27 c 2
 81 30 l 2
 81 54 83 55 87 69 c 2
 458 1326 l 2
 461 1337 464 1348 464 1358 c 0
 464 1369 460 1378 452 1378 c 2
 107 1378 l 2
 92 1378 84 1378 84 1405 c 2
 84 1411 l 2
 84 1438 92 1438 107 1438 c 2
 525 1438 l 2
 539 1438 548 1438 548 1411 c 2
 548 1406 l 2
 548 1363 540 1340 536 1326 c 2
 178 102 l 2
 175 92 173 82 173 74 c 0
 173 66 174 60 180 60 c 2
 533 60 l 2
 546 60 555 60 555 33 c 2
 555 27 l 2
 555 0 546 0 533 0 c 2
 103 0 l 2
EndSplineSet
EndChar

StartChar: a
Encoding: 65 97 33
Width: 645
VWidth: 0
Flags: HW
PickledData: "(dp1
S'com.typemytype.robofont.layerData'
p2
(dp3
S'b'
(dp4
S'name'
p5
S'a'
sS'lib'
p6
(dp7
sS'unicodes'
p8
(tsS'width'
p9
I645
sS'contours'
p10
(tsS'components'
p11
(tsS'anchors'
p12
(tsss."
LayerCount: 2
Fore
SplineSet
273 -12 m 0
 126 -12 71 92 71 238 c 0
 71 584 411 593 479 608 c 1
 479 668 l 2
 479 823 463 957 334 957 c 0
 212 957 186 884 152 788 c 0
 142 761 134 754 119 758 c 0
 102 762 89 766 86 782 c 0
 84 790 89 810 93 821 c 0
 128 931 177 1018 332 1018 c 0
 498 1018 558 905 558 656 c 2
 558 45 l 2
 558 10 552 -4 540 -4 c 2
 534 -4 l 2
 524 -4 516 15 514 36 c 0
 511 70 501 193 498 235 c 0
 497 246 496 249 493 249 c 0
 492 249 489 245 488 238 c 0
 456 85 394 -12 273 -12 c 0
281 50 m 0
 422 50 481 245 481 493 c 0
 481 507 481 551 475 551 c 0
 474 551 406 541 403 540 c 0
 179 500 139 374 140 242 c 0
 141 122 178 50 281 50 c 0
EndSplineSet
EndChar

StartChar: acute
Encoding: 113 180 34
Width: 595
VWidth: 0
Flags: HW
LayerCount: 2
Fore
SplineSet
382 1166 m 2
 372 1166 367 1171 367 1198 c 0
 367 1207 367 1219 368 1233 c 2
 389 1543 l 2
 392 1586 399 1598 415 1598 c 2
 470 1598 l 2
 477 1598 480 1586 480 1570 c 0
 480 1559 478 1545 476 1533 c 2
 414 1205 l 2
 411 1188 408 1166 394 1166 c 2
 382 1166 l 2
EndSplineSet
EndChar

StartChar: ampersand
Encoding: 6 38 35
Width: 1027
VWidth: 0
Flags: HW
PickledData: "(dp1
S'org.robofab.postScriptHintData'
p2
(dp3
sS'com.typemytype.robofont.guides'
p4
(tsS'com.typemytype.robofont.layerData'
p5
(dp6
S'b'
(dp7
S'name'
p8
S'ampersand'
p9
sS'lib'
p10
(dp11
sS'unicodes'
p12
(tsS'width'
p13
F1027.5951262999999
sS'contours'
p14
(tsS'components'
p15
(tsS'anchors'
p16
(tsss."
LayerCount: 2
Fore
SplineSet
865 -13 m 0
 786 -13 731 36 722 131 c 1
 706 88 637 -13 460 -13 c 0
 284 -13 135 86 135 424 c 0
 135 608 239 736 322 761 c 1
 241 782 133 871 133 1099 c 0
 133 1370 258 1459 387 1459 c 0
 470 1459 497 1446 513 1440 c 0
 529 1434 541 1424 541 1411 c 0
 541 1407 541 1394 541 1394 c 1
 541 1390 l 2
 541 1379 537 1369 530 1369 c 0
 527 1369 518 1373 514 1375 c 0
 504 1378 467 1395 412 1395 c 0
 312 1395 211 1336 211 1095 c 0
 211 914 286 804 414 804 c 2
 670 804 l 2
 678 804 685 814 685 834 c 2
 696 1354 l 2
 697 1397 709 1408 727 1408 c 2
 736 1408 l 2
 753 1408 763 1397 763 1354 c 2
 763 834 l 2
 763 814 769 804 777 804 c 2
 926 804 l 2
 944 804 957 805 957 774 c 2
 957 764 l 2
 957 731 944 729 926 729 c 2
 777 729 l 2
 769 729 763 720 763 700 c 2
 763 313 l 2
 763 100 822 51 876 51 c 0
 909 51 930 62 955 81 c 0
 967 90 981 90 987 71 c 2
 991 58 l 2
 995 46 992 36 976 24 c 0
 958 11 917 -13 865 -13 c 0
460 51 m 0
 674 51 689 218 689 237 c 1
 687 273 685 404 685 445 c 2
 685 701 l 2
 685 721 678 729 670 729 c 0
 597 730 498 729 424 729 c 0
 332 728 213 656 213 407 c 0
 213 102 379 51 460 51 c 0
EndSplineSet
EndChar

StartChar: asciicircum
Encoding: 62 94 37
Width: 1030
VWidth: 0
Flags: HW
PickledData: "(dp1
S'com.typemytype.robofont.layerData'
p2
(dp3
S'b'
(dp4
S'name'
p5
S'asciicircum'
p6
sS'lib'
p7
(dp8
sS'unicodes'
p9
(tsS'width'
p10
F1030.9534641400001
sS'contours'
p11
(tsS'components'
p12
(tsS'anchors'
p13
(tsss."
LayerCount: 2
Fore
SplineSet
143 201 m 2
 131 201 l 2
 96 201 99 236 111 268 c 2
 422 1140 l 1
 439 1182 454 1207 501 1207 c 2
 526 1207 l 2
 573 1207 585 1182 603 1139 c 1
 920 269 l 2
 931 239 935 201 899 201 c 2
 886 201 l 2
 860 201 850 215 830 270 c 2
 534 1093 l 2
 525 1118 522 1124 513 1124 c 0
 504 1124 501 1118 492 1093 c 2
 204 270 l 2
 185 215 179 201 143 201 c 2
EndSplineSet
EndChar

StartChar: asciitilde
Encoding: 94 126 38
Width: 1399
VWidth: 0
Flags: HW
PickledData: "(dp1
S'com.typemytype.robofont.layerData'
p2
(dp3
S'b'
(dp4
S'name'
p5
S'asciitilde'
p6
sS'lib'
p7
(dp8
sS'unicodes'
p9
(tsS'width'
p10
I1399
sS'contours'
p11
(tsS'components'
p12
(tsS'anchors'
p13
(tsss."
LayerCount: 2
Fore
SplineSet
-267 163 m 0
 -431 160 -487 282 -516 360 c 0
 -520 370 -521 377 -521 385 c 0
 -521 398 -528 407 -505 418 c 1
 -495 422 l 2
 -485 427 -476 429 -469 429 c 0
 -445 429 -442 410 -439 402 c 0
 -397 281 -346 240 -253 241 c 0
 -100 242 112 419 287 426 c 0
 417 431 459 363 515 247 c 0
 520 237 522 228 522 220 c 0
 522 204 524 196 506 184 c 0
 497 178 498 178 485 176 c 0
 465 173 453 189 444 204 c 0
 399 278 366 351 302 348 c 0
 159 341 -71 167 -267 163 c 0
EndSplineSet
EndChar

StartChar: asterisk
Encoding: 10 42 39
Width: 709
VWidth: 0
Flags: HW
PickledData: "(dp1
S'com.typemytype.robofont.layerData'
p2
(dp3
S'b'
(dp4
S'name'
p5
S'asterisk'
p6
sS'lib'
p7
(dp8
sS'unicodes'
p9
(tsS'width'
p10
I709
sS'contours'
p11
(tsS'components'
p12
(tsS'anchors'
p13
(tsss."
LayerCount: 2
Fore
SplineSet
247 422 m 0
 221 422 184 436 184 460 c 0
 184 513 296 660 321 698 c 1
 135 753 l 2
 114 759 99 784 99 813 c 0
 99 846 115 878 141 878 c 0
 171 878 302 765 336 743 c 1
 326 829 309 911 309 997 c 0
 309 1031 331 1046 355 1046 c 0
 379 1046 400 1035 400 1001 c 0
 400 999 379 743 379 743 c 1
 537 843 l 2
 543 846 550 848 555 848 c 0
 582 848 604 818 604 790 c 0
 604 770 592 750 564 743 c 2
 388 698 l 1
 388 698 524 548 549 517 c 0
 555 510 558 502 558 494 c 0
 558 470 531 447 506 447 c 0
 493 447 481 453 472 467 c 2
 353 667 l 1
 269 431 l 2
 267 425 258 422 247 422 c 0
EndSplineSet
EndChar

StartChar: at
Encoding: 32 64 40
Width: 1203
VWidth: 0
Flags: HW
PickledData: "(dp1
."
LayerCount: 2
Fore
SplineSet
615 -105 m 0
 165 -105 63 268 63 688 c 0
 63 1079 153 1475 592 1475 c 0
 1083 1475 1115 1101 1116 686 c 0
 1116 366 1060 242 947 242 c 4
 844 242 832 320 820 458 c 0
 818.344726562 477.033203125 816 494 810 494 c 0
 804 494 802.30859375 468.2265625 800 460 c 0
 757.791015625 309.592773438 669.23828125 240.494140625 561.962890625 240.494140625 c 0
 425.255859375 240.494140625 309 352.196289062 309 660 c 0
 309 965.534179688 433.595703125 1078.90332031 570.1796875 1078.90332031 c 0
 669.958007812 1078.90332031 760.797851562 1004.39160156 789 855 c 0
 790.350585938 847.846679688 797 834 799 834 c 0
 802 834 804 839 804 846 c 2
 816 987 l 1
 821 1020 825 1033 842 1033 c 2
 847 1033 l 2
 860 1033 864 1015 864 985 c 2
 864 512 l 2
 864 324 895 300 949 300 c 0
 1007 300 1038 377 1038 686 c 0
 1038 1091 992 1402 595 1402 c 0
 224 1402 142 1028 142 685 c 0
 142 326 219 -42 623 -42 c 0
 715 -42 821 -7 889 30 c 1
 906 -25 l 1
 844 -60 729 -105 615 -105 c 0
388 660 m 0
 388 384.65234375 468.997070312 300.684570312 572.055664062 300.684570312 c 0
 679.409179688 300.684570312 769 424.350585938 769 652 c 0
 769 883.7109375 685.807617188 1012.07910156 576.80859375 1012.07910156 c 0
 475.596679688 1012.07910156 388 931.397460938 388 660 c 0
EndSplineSet
EndChar

StartChar: b
Encoding: 66 98 41
Width: 684
VWidth: 0
Flags: HW
PickledData: "(dp1
S'com.typemytype.robofont.layerData'
p2
(dp3
S'b'
(dp4
S'name'
p5
S'b'
sS'lib'
p6
(dp7
sS'unicodes'
p8
(tsS'width'
p9
F684.428
sS'contours'
p10
(tsS'components'
p11
(tsS'anchors'
p12
(tsss."
LayerCount: 2
Fore
SplineSet
365 -12 m 0
 288 -12 207 52 163 216 c 0
 162 218 161 221 160 221 c 2
 160 221 159 219 158 210 c 0
 151 170 148 87 139 41 c 0
 134 17 128 0 118 0 c 2
 114 0 l 2
 100 0 96 10 96 53 c 2
 96 1371 l 2
 96 1414 104 1438 118 1438 c 2
 150 1438 l 2
 165 1438 173 1414 173 1371 c 2
 173 827 l 2
 173 820 174 819 174 819 c 2
 175 819 176 823 176 823 c 1
 218 955 299 1019 376 1019 c 0
 498 1019 608 912 608 504 c 0
 608 107 476 -12 365 -12 c 0
353 50 m 0
 449 50 531 164 531 504 c 0
 531 849 455 957 364 957 c 0
 271 957 173 784 173 504 c 0
 173 247 254 50 353 50 c 0
EndSplineSet
EndChar

StartChar: backslash
Encoding: 60 92 42
Width: 505
VWidth: 0
Flags: HW
PickledData: "(dp1
S'com.typemytype.robofont.layerData'
p2
(dp3
S'b'
(dp4
S'name'
p5
S'backslash'
p6
sS'lib'
p7
(dp8
sS'unicodes'
p9
(tsS'width'
p10
F505.52273894699999
sS'contours'
p11
(tsS'components'
p12
(tsS'anchors'
p13
(tsss."
LayerCount: 2
Fore
SplineSet
358 -205 m 2
 352 -205 344 -191 341 -170 c 2
 108 1612 l 2
 106 1629 109 1647 115 1647 c 2
 172 1647 l 2
 179 1647 185 1633 188 1612 c 2
 421 -170 l 2
 424 -187 419 -205 414 -205 c 2
 358 -205 l 2
EndSplineSet
EndChar

StartChar: bar
Encoding: 92 124 43
Width: 278
VWidth: 0
Flags: HW
LayerCount: 2
Fore
SplineSet
131 -150 m 2
 115 -150 103 -136 103 -93 c 2
 103 1498 l 2
 103 1541 115 1555 131 1555 c 2
 148 1555 l 2
 163 1555 174 1541 174 1498 c 2
 174 -93 l 2
 174 -136 163 -150 148 -150 c 2
 131 -150 l 2
EndSplineSet
EndChar

StartChar: braceleft
Encoding: 91 123 44
Width: 499
VWidth: 0
Flags: HW
PickledData: "(dp1
S'com.typemytype.robofont.layerData'
p2
(dp3
S'b'
(dp4
S'name'
p5
S'braceleft'
p6
sS'lib'
p7
(dp8
sS'unicodes'
p9
(tsS'width'
p10
I499
sS'contours'
p11
((dp12
S'points'
p13
((dp14
S'segmentType'
p15
S'curve'
p16
sS'x'
F290
sS'smooth'
p17
I01
sS'y'
F-123
s(dp18
g15
S'line'
p19
sS'x'
F382
sg17
I01
sS'y'
F-123
s(dp20
S'y'
F-123
sS'x'
F397
sg17
I00
s(dp21
S'y'
F-118
sS'x'
F409
sg17
I00
s(dp22
g15
S'curve'
p23
sS'x'
F409
sg17
I01
sS'y'
F-86
s(dp24
g15
S'line'
p25
sS'x'
F409
sg17
I01
sS'y'
F-56
s(dp26
S'y'
F-4
sS'x'
F409
sg17
I00
s(dp27
S'y'
F-23
sS'x'
F349
sg17
I00
s(dp28
g15
S'curve'
p29
sS'x'
F331
sg17
I01
sS'y'
F-12
s(dp30
S'y'
F44
sS'x'
F244
sg17
I00
s(dp31
S'y'
F572
sS'x'
F370
sg17
I00
s(dp32
g15
S'curve'
p33
sS'x'
F208
sg17
I01
sS'y'
F695
s(dp34
S'y'
F700
sS'x'
F201
sg17
I00
s(dp35
S'y'
F720
sS'x'
F201
sg17
I00
s(dp36
g15
S'curve'
p37
sS'x'
F208
sg17
I01
sS'y'
F725
s(dp38
S'y'
F848
sS'x'
F370
sg17
I00
s(dp39
S'y'
F1376
sS'x'
F244
sg17
I00
s(dp40
g15
S'curve'
p41
sS'x'
F331
sg17
I01
sS'y'
F1432
s(dp42
S'y'
F1443
sS'x'
F349
sg17
I00
s(dp43
S'y'
F1424
sS'x'
F409
sg17
I00
s(dp44
g15
S'curve'
p45
sS'x'
F409
sg17
I01
sS'y'
F1476
s(dp46
g15
S'line'
p47
sS'x'
F409
sg17
I01
sS'y'
F1506
s(dp48
S'y'
F1538
sS'x'
F409
sg17
I00
s(dp49
S'y'
F1543
sS'x'
F397
sg17
I00
s(dp50
g15
S'curve'
p51
sS'x'
F382
sg17
I01
sS'y'
F1543
s(dp52
g15
S'line'
p53
sS'x'
F290
sg17
I01
sS'y'
F1543
s(dp54
S'y'
F1543
sS'x'
F128
sg17
I00
s(dp55
S'y'
F852
sS'x'
F247
sg17
I00
s(dp56
g15
S'curve'
p57
sS'x'
F148
sg17
I01
sS'y'
F807
s(dp58
S'y'
F797
sS'x'
F126
sg17
I00
s(dp59
S'y'
F792
sS'x'
F82
sg17
I00
s(dp60
g15
S'curve'
p61
sS'x'
F82
sg17
I01
sS'y'
F736
s(dp62
g15
S'line'
p63
sS'x'
F82
sg17
I01
sS'y'
F684
s(dp64
S'y'
F628
sS'x'
F82
sg17
I00
s(dp65
S'y'
F623
sS'x'
F126
sg17
I00
s(dp66
g15
S'curve'
p67
sS'x'
F148
sg17
I01
sS'y'
F613
s(dp68
S'y'
F568
sS'x'
F247
sg17
I00
s(dp69
S'y'
F-123
sS'x'
F128
sg17
I00
stp70
stp71
sS'components'
p72
(tsS'anchors'
p73
(tsss."
LayerCount: 2
Fore
SplineSet
105 736 m 2
 105 741 l 2
 105 786 127 782 171 782 c 0
 213 782 217 798 217 950 c 2
 217 1186 l 2
 217 1533 239 1543 333 1543 c 2
 376 1543 l 2
 391 1543 403 1537 403 1513 c 2
 403 1494 l 2
 403 1472 390 1469 345 1469 c 0
 292 1469 292 1467 292 1151 c 2
 292 909 l 2
 292 775 280 748 220 741 c 1
 280 733 292 703 292 569 c 2
 292 327 l 2
 292 11 292 9 345 9 c 0
 390 9 403 6 403 -16 c 2
 403 -35 l 2
 403 -59 391 -65 376 -65 c 2
 333 -65 l 2
 239 -65 217 -54 217 293 c 2
 217 522 l 2
 217 674 213 690 171 690 c 0
 126 690 105 684 105 736 c 2
EndSplineSet
EndChar

StartChar: braceright
Encoding: 93 125 45
Width: 499
VWidth: 0
Flags: HW
PickledData: "(dp1
S'com.typemytype.robofont.layerData'
p2
(dp3
S'b'
(dp4
S'name'
p5
S'braceright'
p6
sS'lib'
p7
(dp8
sS'unicodes'
p9
(tsS'width'
p10
I499
sS'contours'
p11
(tsS'components'
p12
(tsS'anchors'
p13
(tsss."
LayerCount: 2
Fore
SplineSet
403 742 m 2
 403 737 l 2
 403 692 381 696 337 696 c 0
 295 696 291 680 291 528 c 2
 291 292 l 2
 291 -55 269 -65 175 -65 c 2
 132 -65 l 2
 117 -65 105 -59 105 -35 c 2
 105 -16 l 2
 105 6 118 9 163 9 c 0
 216 9 216 11 216 327 c 2
 216 569 l 2
 216 703 228 730 288 737 c 1
 228 745 216 775 216 909 c 2
 216 1151 l 2
 216 1467 216 1469 163 1469 c 0
 118 1469 105 1472 105 1494 c 2
 105 1513 l 2
 105 1537 117 1543 132 1543 c 2
 175 1543 l 2
 269 1543 291 1532 291 1185 c 2
 291 956 l 2
 291 804 295 788 337 788 c 0
 382 788 403 794 403 742 c 2
EndSplineSet
EndChar

StartChar: bracketleft
Encoding: 59 91 46
Width: 433
VWidth: 0
Flags: HW
PickledData: "(dp1
S'com.typemytype.robofont.layerData'
p2
(dp3
S'b'
(dp4
S'name'
p5
S'bracketleft'
p6
sS'lib'
p7
(dp8
sS'unicodes'
p9
(tsS'width'
p10
I433
sS'contours'
p11
(tsS'components'
p12
(tsS'anchors'
p13
(tsss."
LayerCount: 2
Fore
SplineSet
130 -57 m 2
 114 -57 103 -31 103 12 c 2
 103 1440 l 2
 103 1483 114 1517 130 1517 c 2
 325 1517 l 2
 339 1517 347 1503 347 1460 c 2
 347 1451 l 2
 347 1408 339 1394 325 1394 c 2
 190 1394 l 2
 183 1394 181 1387 181 1367 c 2
 181 81 l 2
 181 61 183 54 190 54 c 2
 325 54 l 2
 339 54 347 40 347 -3 c 2
 347 -8 l 2
 347 -51 339 -57 325 -57 c 2
 130 -57 l 2
EndSplineSet
EndChar

StartChar: bracketright
Encoding: 61 93 47
Width: 434
VWidth: 0
Flags: HW
LayerCount: 2
Fore
SplineSet
111 -65 m 2
 96 -65 88 -51 88 -8 c 2
 88 51 l 2
 88 94 96 108 111 108 c 2
 244 108 l 2
 251 108 253 115 253 135 c 2
 253 1327 l 2
 253 1347 251 1354 244 1354 c 2
 111 1354 l 2
 96 1354 88 1368 88 1411 c 2
 88 1460 l 2
 88 1503 96 1517 111 1517 c 2
 306 1517 l 2
 320 1517 331 1483 331 1440 c 2
 331 12 l 2
 331 -31 320 -65 306 -65 c 2
 111 -65 l 2
EndSplineSet
EndChar

StartChar: brokenbar
Encoding: 101 166 48
Width: 446
VWidth: 0
Flags: HW
PickledData: "(dp1
S'com.typemytype.robofont.layerData'
p2
(dp3
S'b'
(dp4
S'name'
p5
S'brokenbar'
p6
sS'lib'
p7
(dp8
sS'unicodes'
p9
(tsS'width'
p10
I446
sS'contours'
p11
((dp12
S'points'
p13
((dp14
S'segmentType'
p15
S'curve'
p16
sS'x'
F217
sS'smooth'
p17
I01
sS'y'
F819
s(dp18
g15
S'line'
p19
sS'x'
F232
sg17
I01
sS'y'
F819
s(dp20
S'y'
F819
sS'x'
F275
sg17
I00
s(dp21
S'y'
F853
sS'x'
F289
sg17
I00
s(dp22
g15
S'curve'
p23
sS'x'
F289
sg17
I01
sS'y'
F896
s(dp24
g15
S'line'
p25
sS'x'
F289
sg17
I01
sS'y'
F1478
s(dp26
S'y'
F1521
sS'x'
F289
sg17
I00
s(dp27
S'y'
F1555
sS'x'
F275
sg17
I00
s(dp28
g15
S'curve'
p29
sS'x'
F232
sg17
I01
sS'y'
F1555
s(dp30
g15
S'line'
p31
sS'x'
F217
sg17
I01
sS'y'
F1555
s(dp32
S'y'
F1555
sS'x'
F174
sg17
I00
s(dp33
S'y'
F1521
sS'x'
F160
sg17
I00
s(dp34
g15
S'curve'
p35
sS'x'
F160
sg17
I01
sS'y'
F1478
s(dp36
g15
S'line'
p37
sS'x'
F160
sg17
I01
sS'y'
F896
s(dp38
S'y'
F853
sS'x'
F160
sg17
I00
s(dp39
S'y'
F819
sS'x'
F174
sg17
I00
stp40
s(dp41
g13
((dp42
g15
S'curve'
p43
sS'x'
F217
sg17
I01
sS'y'
F-150
s(dp44
g15
S'line'
p45
sS'x'
F232
sg17
I01
sS'y'
F-150
s(dp46
S'y'
F-150
sS'x'
F275
sg17
I00
s(dp47
S'y'
F-116
sS'x'
F289
sg17
I00
s(dp48
g15
S'curve'
p49
sS'x'
F289
sg17
I01
sS'y'
F-73
s(dp50
g15
S'line'
p51
sS'x'
F289
sg17
I01
sS'y'
F509
s(dp52
S'y'
F552
sS'x'
F289
sg17
I00
s(dp53
S'y'
F586
sS'x'
F275
sg17
I00
s(dp54
g15
S'curve'
p55
sS'x'
F232
sg17
I01
sS'y'
F586
s(dp56
g15
S'line'
p57
sS'x'
F217
sg17
I01
sS'y'
F586
s(dp58
S'y'
F586
sS'x'
F174
sg17
I00
s(dp59
S'y'
F552
sS'x'
F160
sg17
I00
s(dp60
g15
S'curve'
p61
sS'x'
F160
sg17
I01
sS'y'
F509
s(dp62
g15
S'line'
p63
sS'x'
F160
sg17
I01
sS'y'
F-73
s(dp64
S'y'
F-116
sS'x'
F160
sg17
I00
s(dp65
S'y'
F-150
sS'x'
F174
sg17
I00
stp66
stp67
sS'components'
p68
(tsS'anchors'
p69
(tsss."
LayerCount: 2
Fore
SplineSet
206 822 m 2
 192 822 184 826 184 869 c 2
 184 1471 l 2
 184 1514 192 1518 206 1518 c 2
 239 1518 l 2
 254 1518 262 1514 262 1471 c 2
 262 869 l 2
 262 826 254 822 239 822 c 2
 206 822 l 2
206 -75 m 2
 192 -75 184 -71 184 -28 c 2
 184 570 l 2
 184 613 192 617 206 617 c 2
 239 617 l 2
 254 617 262 613 262 570 c 2
 262 -28 l 2
 262 -71 254 -75 239 -75 c 2
 206 -75 l 2
EndSplineSet
EndChar

StartChar: c
Encoding: 67 99 49
Width: 504
VWidth: 0
Flags: HW
PickledData: "(dp1
S'com.typemytype.robofont.layerData'
p2
(dp3
S'b'
(dp4
S'name'
p5
S'c'
sS'lib'
p6
(dp7
sS'unicodes'
p8
(tsS'width'
p9
I504
sS'contours'
p10
(tsS'components'
p11
(tsS'anchors'
p12
(tsss."
LayerCount: 2
Fore
SplineSet
335 -12 m 0
 224 -14 80 35 80 506 c 0
 80 983 223 1019 335 1019 c 0
 361 1019 408 1014 444 1000 c 1
 451 989 l 1
 451 949 l 1
 444 939 l 1
 409 949 377 957 345 957 c 0
 263 957 158 935 158 506 c 0
 158 103 253 50 348 50 c 0
 377 50 410 58 444 70 c 1
 453 60 l 1
 453 21 l 1
 444 10 l 1
 413 -4 371 -11 335 -12 c 0
EndSplineSet
EndChar

StartChar: caron
Encoding: 349 711 50
Width: 291
VWidth: 0
Flags: HW
LayerCount: 2
Fore
SplineSet
146 1353 m 0
 149 1353 152 1357 155 1363 c 2
 212 1468 l 2
 215 1474 222 1476 230 1476 c 0
 246 1476 266 1467 266 1453 c 0
 266 1451 266 1449 265 1447 c 2
 208 1307 l 2
 188 1258 175 1240 154 1240 c 0
 149 1240 143 1240 138 1240 c 0
 117 1240 104 1258 84 1307 c 2
 27 1447 l 2
 26 1449 26 1451 26 1453 c 0
 26 1467 46 1476 62 1476 c 0
 70 1476 77 1474 80 1468 c 2
 137 1363 l 2
 140 1357 143 1353 146 1353 c 0
EndSplineSet
EndChar

StartChar: cedilla
Encoding: 116 184 52
Width: 245
VWidth: 0
Flags: HW
LayerCount: 2
Fore
SplineSet
137 -642 m 0
 98 -642 68 -572 68 -464 c 0
 68 -443 68 -373 85 -373 c 2
 107 -373 l 2
 124 -373 114 -442 114 -461 c 0
 114 -514 123 -557 141 -557 c 0
 156 -557 165 -517 165 -407 c 0
 165 -331 155 -254 137 -254 c 2
 124 -254 l 1
 124 -254 119 -255 119 -244 c 2
 119 -173 l 2
 119 -163 120 -156 124 -156 c 2
 149 -156 l 2
 186 -156 212 -259 212 -370 c 0
 212 -548 186 -642 137 -642 c 0
EndSplineSet
EndChar

StartChar: circumflex
Encoding: 348 710 53
Width: 291
VWidth: 0
Flags: HW
PickledData: "(dp1
S'com.typemytype.robofont.layerData'
p2
(dp3
S'b'
(dp4
S'name'
p5
S'circumflex'
p6
sS'lib'
p7
(dp8
sS'unicodes'
p9
(tsS'width'
p10
I291
sS'contours'
p11
(tsS'components'
p12
(tsS'anchors'
p13
(tsss."
LayerCount: 2
Fore
SplineSet
146 1363 m 0
 143 1363 140 1359 137 1353 c 2
 80 1248 l 2
 77 1242 70 1240 62 1240 c 0
 46 1240 26 1249 26 1263 c 0
 26 1265 26 1267 27 1269 c 2
 84 1409 l 2
 104 1458 117 1476 138 1476 c 0
 143 1476 149 1476 154 1476 c 0
 175 1476 188 1458 208 1409 c 2
 265 1269 l 2
 266 1267 266 1265 266 1263 c 0
 266 1249 246 1240 230 1240 c 0
 222 1240 215 1242 212 1248 c 2
 155 1353 l 2
 152 1359 149 1363 146 1363 c 0
EndSplineSet
EndChar

StartChar: colon
Encoding: 26 58 54
Width: 291
VWidth: 0
Flags: HW
LayerCount: 2
Fore
SplineSet
122 0 m 2
 108 0 96 34 96 77 c 2
 96 221 l 2
 96 264 108 298 122 298 c 2
 169 298 l 2
 184 298 195 264 195 221 c 2
 195 77 l 2
 195 34 184 0 169 0 c 2
 122 0 l 2
122 754 m 2
 108 754 96 788 96 831 c 2
 96 975 l 2
 96 1018 108 1052 122 1052 c 2
 169 1052 l 2
 184 1052 195 1018 195 975 c 2
 195 831 l 2
 195 788 184 754 169 754 c 2
 122 754 l 2
EndSplineSet
EndChar

StartChar: comma
Encoding: 12 44 55
Width: 289
VWidth: 0
Flags: HW
PickledData: "(dp1
S'com.typemytype.robofont.layerData'
p2
(dp3
S'b'
(dp4
S'name'
p5
S'comma'
p6
sS'lib'
p7
(dp8
sS'unicodes'
p9
(tsS'width'
p10
I289
sS'contours'
p11
(tsS'components'
p12
(tsS'anchors'
p13
(tsss."
LayerCount: 2
Fore
SplineSet
90 -268 m 0
 78 -274 68 -269 68 -233 c 2
 68 -223 l 2
 68 -197 74 -198 89 -171 c 0
 112 -128 123 -51 123 -27 c 0
 123 -11 123 0 117 0 c 2
 82 0 l 2
 69 0 61 12 61 50 c 2
 61 129 l 2
 61 172 84 193 99 193 c 2
 156 193 l 2
 171 193 183 159 183 116 c 2
 183 95 l 2
 183 -142 138 -245 90 -268 c 0
EndSplineSet
EndChar

StartChar: copyright
Encoding: 104 169 56
Width: 1306
VWidth: 0
Flags: HW
PickledData: "(dp1
S'com.typemytype.robofont.layerData'
p2
(dp3
s."
LayerCount: 2
Fore
SplineSet
846 390 m 0
 783 354 756 338 676 338 c 0
 502 338 369 465 369 727 c 0
 369 1002 527 1111 671 1111 c 0
 759 1111 820 1080 862 1040 c 0
 865 1037 866 1032 866 1026 c 0
 866 1008 852 983 839 983 c 0
 838 983 836 984 834 985 c 0
 792 1016 740 1044 682 1044 c 0
 544 1044 443 933 443 726 c 0
 443 511 542 406 677 406 c 0
 735 406 769 425 821 452 c 0
 824 453 826 454 828 454 c 0
 845 454 858 434 858 414 c 0
 858 404 854 395 846 390 c 0
169 714 m 0
 169 390 293 51 655 51 c 0
 1017 51 1141 390 1141 714 c 0
 1141 1049 1017 1388 655 1388 c 0
 293 1388 169 1049 169 714 c 0
1216 718 m 0
 1216 331 1054 -13 653 -13 c 0
 254 -13 90 331 90 718 c 0
 90 1105 254 1451 653 1451 c 0
 1054 1451 1216 1105 1216 718 c 0
EndSplineSet
EndChar

StartChar: currency
Encoding: 99 164 57
Width: 946
VWidth: 0
Flags: HW
PickledData: "(dp1
S'com.typemytype.robofont.layerData'
p2
(dp3
s."
LayerCount: 2
Fore
SplineSet
473 679 m 0
 370 679 309 704 244 747 c 1
 221 723 l 2
 205 707 191 693 177 693 c 0
 171 693 164 696 158 703 c 2
 134 727 l 2
 126 735 123 742 123 749 c 0
 123 763 136 776 151 792 c 2
 170 811 l 1
 111 878 80 967 80 1063 c 0
 80 1161 111 1251 172 1320 c 1
 151 1340 l 2
 135 1356 121 1370 121 1384 c 0
 121 1390 124 1397 131 1403 c 2
 156 1427 l 2
 163 1435 171 1438 178 1438 c 0
 192 1438 205 1425 221 1410 c 2
 247 1384 l 1
 312 1426 372 1451 473 1451 c 0
 574 1451 635 1426 700 1384 c 1
 725 1409 l 2
 741 1425 754 1438 769 1438 c 0
 776 1438 782 1435 790 1427 c 2
 815 1403 l 2
 821 1396 824 1390 824 1384 c 0
 824 1370 811 1356 795 1340 c 2
 774 1320 l 1
 834 1251 866 1161 866 1063 c 0
 866 967 835 879 776 811 c 1
 795 792 l 2
 811 776 824 763 824 749 c 0
 824 742 821 735 813 728 c 2
 788 703 l 2
 782 697 776 693 769 693 c 0
 755 693 741 707 726 723 c 2
 702 747 l 1
 636 704 575 679 473 679 c 0
473 743 m 0
 702 743 787 913 787 1059 c 0
 787 1214 702 1379 473 1379 c 0
 243 1379 157 1214 157 1059 c 0
 157 913 243 743 473 743 c 0
EndSplineSet
EndChar

StartChar: d
Encoding: 68 100 58
Width: 687
VWidth: 0
Flags: HW
PickledData: "(dp1
S'com.typemytype.robofont.layerData'
p2
(dp3
S'b'
(dp4
S'name'
p5
S'd'
sS'lib'
p6
(dp7
sS'unicodes'
p8
(tsS'width'
p9
I687
sS'contours'
p10
(tsS'components'
p11
(tsS'anchors'
p12
(tsss."
LayerCount: 2
Fore
SplineSet
321 -12 m 0
 209 -12 78 43 78 505 c 0
 78 956 189 1019 323 1019 c 0
 399 1019 467 956 509 826 c 0
 510 823 512 818 513 813 c 1
 513 826 l 1
 513 1371 l 2
 513 1414 521 1438 537 1438 c 2
 568 1438 l 2
 582 1438 591 1414 591 1371 c 2
 591 67 l 2
 591 24 588 0 573 0 c 2
 568 0 l 2
 560 0 553 22 547 53 c 0
 539 100 534 174 530 209 c 0
 529 217 528 224 527 228 c 1
 526 222 524 217 523 211 c 0
 480 50 419 -12 321 -12 c 0
335 50 m 0
 434 54 513 246 513 504 c 0
 513 786 427 954 335 957 c 0
 239 960 156 892 156 505 c 0
 156 142 228 46 335 50 c 0
EndSplineSet
EndChar

StartChar: dieresis
Encoding: 103 168 59
Width: 254
VWidth: 0
Flags: HW
LayerCount: 2
Fore
SplineSet
100 0 m 2
 85 0 73 25 73 57 c 2
 73 58 l 2
 73 90 85 115 100 115 c 2
 143 115 l 2
 158 115 170 90 170 58 c 2
 170 57 l 2
 170 25 158 0 143 0 c 2
 100 0 l 2
317 0 m 2
 303 0 292 25 292 57 c 2
 292 58 l 2
 292 90 303 115 317 115 c 2
 360 115 l 2
 375 115 386 90 386 58 c 2
 386 57 l 2
 386 25 375 0 360 0 c 2
 317 0 l 2
EndSplineSet
EndChar

StartChar: e
Encoding: 69 101 61
Width: 647
VWidth: 0
Flags: HW
PickledData: "(dp1
S'com.typemytype.robofont.layerData'
p2
(dp3
S'b'
(dp4
S'name'
p5
S'e'
sS'lib'
p6
(dp7
sS'unicodes'
p8
(tsS'width'
p9
I647
sS'contours'
p10
(tsS'components'
p11
(tsS'anchors'
p12
(tsss."
LayerCount: 2
Fore
SplineSet
350 -12 m 0
 202 -12 80 106 80 504 c 0
 80 932 216 1019 342 1019 c 0
 505 1019 565 861 578 607 c 1
 578 565 l 2
 578 530 572 487 533 487 c 2
 166 487 l 2
 163 487 160 485 160 477 c 0
 161 317 197 50 356 50 c 0
 490 50 507 200 514 284 c 0
 515 291 517 302 519 302 c 2
 558 302 l 2
 563 302 568 299 568 289 c 2
 568 256 l 2
 568 120 500 -12 350 -12 c 0
164 539 m 2
 513 539 l 1
 513 541 l 1
 504 802 463 957 341 957 c 0
 260 957 184 906 162 602 c 0
 162 598 162 539 164 539 c 2
EndSplineSet
EndChar

StartChar: eight
Encoding: 24 56 63
Width: 794
VWidth: 0
Flags: HW
PickledData: "(dp1
S'com.typemytype.robofont.layerData'
p2
(dp3
S'b'
(dp4
S'name'
p5
S'eight'
p6
sS'lib'
p7
(dp8
sS'unicodes'
p9
(tsS'width'
p10
I794
sS'contours'
p11
((dp12
S'points'
p13
((dp14
S'segmentType'
p15
S'curve'
p16
sS'x'
F403
sS'smooth'
p17
I01
sS'y'
F-13
s(dp18
S'y'
F-13
sS'x'
F655
sg17
I00
s(dp19
S'y'
F125
sS'x'
F737
sg17
I00
s(dp20
g15
S'curve'
p21
sS'x'
F737
sg17
I01
sS'y'
F724
s(dp22
S'y'
F1276
sS'x'
F737
sg17
I00
s(dp23
S'y'
F1451
sS'x'
F655
sg17
I00
s(dp24
g15
S'curve'
p25
sS'x'
F403
sg17
I01
sS'y'
F1451
s(dp26
S'y'
F1451
sS'x'
F155
sg17
I00
s(dp27
S'y'
F1266
sS'x'
F71
sg17
I00
s(dp28
g15
S'curve'
p29
sS'x'
F71
sg17
I01
sS'y'
F724
s(dp30
S'y'
F135
sS'x'
F71
sg17
I00
s(dp31
S'y'
F-13
sS'x'
F155
sg17
I00
stp32
s(dp33
g13
((dp34
g15
S'curve'
p35
sS'x'
F403
sg17
I01
sS'y'
F51
s(dp36
S'y'
F51
sS'x'
F219
sg17
I00
s(dp37
S'y'
F168
sS'x'
F149
sg17
I00
s(dp38
g15
S'curve'
p39
sS'x'
F149
sg17
I01
sS'y'
F724
s(dp40
S'y'
F1212
sS'x'
F149
sg17
I00
s(dp41
S'y'
F1388
sS'x'
F214
sg17
I00
s(dp42
g15
S'curve'
p43
sS'x'
F403
sg17
I01
sS'y'
F1388
s(dp44
S'y'
F1388
sS'x'
F594
sg17
I00
s(dp45
S'y'
F1233
sS'x'
F659
sg17
I00
s(dp46
g15
S'curve'
p47
sS'x'
F659
sg17
I01
sS'y'
F724
s(dp48
S'y'
F154
sS'x'
F659
sg17
I00
s(dp49
S'y'
F51
sS'x'
F590
sg17
I00
stp50
stp51
sS'components'
p52
(tsS'anchors'
p53
((dp54
S'y'
F1452
sS'x'
F403
sg5
S'top'
p55
stp56
sss."
LayerCount: 2
Fore
SplineSet
397 -12 m 0
 222 -12 93 97 93 403 c 0
 93 561 177 717 220 774 c 1
 169 812 120 868 120 1059 c 0
 120 1323 222 1450 397 1450 c 0
 574 1450 668 1322 668 1029 c 0
 668 879 601 754 561 696 c 1
 646 648 702 545 702 387 c 0
 702 77 574 -12 397 -12 c 0
399 51 m 0
 548 51 623 135 623 403 c 0
 623 584 583 655 272 746 c 1
 221 672 170 498 170 403 c 0
 170 135 251 51 399 51 c 0
510 730 m 1
 532 781 592 887 592 1025 c 0
 592 1295 526 1388 399 1388 c 0
 259 1388 202 1271 201 1029 c 0
 201 842 255 823 510 730 c 1
EndSplineSet
EndChar

StartChar: equal
Encoding: 29 61 64
Width: 429
VWidth: 0
Flags: HW
PickledData: "(dp1
S'com.typemytype.robofont.layerData'
p2
(dp3
S'b'
(dp4
S'name'
p5
S'equal'
p6
sS'lib'
p7
(dp8
sS'unicodes'
p9
(tsS'width'
p10
I429
sS'contours'
p11
(tsS'components'
p12
(tsS'anchors'
p13
(tsss."
LayerCount: 2
Fore
SplineSet
67 366 m 2
 52 366 48 366 48 409 c 2
 48 413 l 2
 48 456 52 456 67 456 c 2
 361 456 l 2
 376 456 381 456 381 413 c 2
 381 409 l 2
 381 366 376 366 361 366 c 2
 67 366 l 2
67 631 m 2
 52 631 48 631 48 674 c 2
 48 678 l 2
 48 721 52 721 67 721 c 2
 361 721 l 2
 376 721 381 721 381 678 c 2
 381 674 l 2
 381 631 376 631 361 631 c 2
 67 631 l 2
EndSplineSet
EndChar

StartChar: exclam
Encoding: 1 33 65
Width: 286
VWidth: 0
Flags: HW
PickledData: "(dp1
S'com.typemytype.robofont.layerData'
p2
(dp3
S'b'
(dp4
S'name'
p5
S'exclam'
p6
sS'lib'
p7
(dp8
sS'unicodes'
p9
(tsS'width'
p10
I286
sS'contours'
p11
(tsS'components'
p12
(tsS'anchors'
p13
(tsss."
LayerCount: 2
Fore
SplineSet
109 0 m 2
 95 0 83 14 83 57 c 2
 83 147 l 2
 83 190 95 204 109 204 c 2
 181 204 l 2
 196 204 207 190 207 147 c 2
 207 57 l 2
 207 14 196 0 181 0 c 2
 109 0 l 2
143 352 m 2
 128 352 129 376 127 419 c 2
 90 1371 l 2
 88 1414 101 1438 117 1438 c 2
 168 1438 l 2
 182 1438 198 1415 196 1372 c 2
 160 419 l 2
 158 376 159 352 144 352 c 2
 143 352 l 2
EndSplineSet
EndChar

StartChar: f
Encoding: 70 102 67
Width: 412
VWidth: 0
Flags: HW
PickledData: "(dp1
S'com.typemytype.robofont.layerData'
p2
(dp3
S'b'
(dp4
S'name'
p5
S'f'
sS'lib'
p6
(dp7
sS'unicodes'
p8
(tsS'width'
p9
I412
sS'contours'
p10
(tsS'components'
p11
(tsS'anchors'
p12
(tsss."
LayerCount: 2
Fore
SplineSet
156 0 m 2
 142 0 130 34 130 77 c 2
 130 915 l 2
 130 935 130 936 122 936 c 2
 72 936 l 2
 57 936 48 938 48 958 c 2
 48 985 l 2
 48 1004 57 1006 72 1006 c 2
 122 1006 l 2
 130 1006 130 1012 130 1034 c 0
 130 1356 159 1430 317 1430 c 2
 362 1430 l 2
 370 1430 380 1434 380 1406 c 2
 380 1392 l 2
 380 1360 380 1360 367 1360 c 2
 319 1360 l 2
 219 1360 207 1313 207 1090 c 2
 207 1012 l 2
 207 1009 209 1006 211 1006 c 2
 352 1006 l 2
 366 1006 373 1005 373 987 c 2
 373 958 l 2
 373 939 366 936 352 936 c 2
 216 936 l 2
 209 936 207 935 207 915 c 2
 207 77 l 2
 207 34 196 0 182 0 c 2
 156 0 l 2
EndSplineSet
EndChar

StartChar: five
Encoding: 21 53 68
Width: 898
VWidth: 0
Flags: HW
PickledData: "(dp1
S'com.typemytype.robofont.layerData'
p2
(dp3
S'b'
(dp4
S'name'
p5
S'five'
p6
sS'lib'
p7
(dp8
sS'unicodes'
p9
(tsS'width'
p10
I898
sS'contours'
p11
(tsS'components'
p12
(tsS'anchors'
p13
(tsss."
LayerCount: 2
Fore
SplineSet
429 -13 m 1
 337 -12 197 9 154 29 c 0
 141 35 134 40 134 69 c 2
 134 75 l 2
 134 105 140 105 150 105 c 0
 153 105 156 104 160 103 c 0
 175 99 306 52 434 52 c 0
 669 52 744 241 744 463 c 0
 744 662 714 861 505 861 c 0
 328 861 251 694 194 694 c 2
 173 694 l 2
 147 694 149 734 148 774 c 2
 131 1392 l 2
 130 1426 132 1438 158 1438 c 2
 735 1438 l 2
 750 1438 766 1437 766 1415 c 0
 766 1411 766 1400 766 1400 c 1
 765 1370 762 1357 752 1357 c 2
 237 1357 l 2
 221 1357 216 1351 216 1322 c 2
 216 782 l 1
 246 820 334 928 502 928 c 0
 753 928 819 742 819 466 c 0
 819 82 662 -13 430 -13 c 2
 429 -13 l 1
EndSplineSet
EndChar

StartChar: four
Encoding: 20 52 69
Width: 847
VWidth: 0
Flags: HW
PickledData: "(dp1
S'com.typemytype.robofont.layerData'
p2
(dp3
S'b'
(dp4
S'name'
p5
S'four'
p6
sS'lib'
p7
(dp8
sS'unicodes'
p9
(tsS'width'
p10
F847.75949062100005
sS'contours'
p11
(tsS'components'
p12
(tsS'anchors'
p13
(tsss."
LayerCount: 2
Fore
SplineSet
580 0 m 2
 557 0 546 4 546 47 c 2
 546 284 l 1
 182 284 l 2
 139 284 109 305 115 351 c 2
 247 1371 l 2
 253 1414 258 1438 284 1438 c 2
 303 1438 l 2
 336 1438 328 1387 326 1371 c 2
 203 380 l 2
 201 362 202 359 223 359 c 2
 546 359 l 1
 546 1389 l 2
 546 1432 557 1438 580 1438 c 2
 590 1438 l 2
 613 1438 624 1432 624 1389 c 2
 624 359 l 1
 799 359 l 2
 842 359 854 359 854 324 c 2
 854 319 l 2
 854 284 842 284 799 284 c 2
 624 284 l 1
 624 47 l 2
 624 4 613 0 590 0 c 2
 580 0 l 2
EndSplineSet
EndChar

StartChar: fraction
Encoding: 395 8260 70
Width: 501
VWidth: 0
Flags: HW
LayerCount: 2
Fore
SplineSet
76 -205 m 2
 71 -205 66 -187 69 -172 c 2
 369 1614 l 2
 372 1634 380 1647 388 1647 c 2
 431 1647 l 2
 437 1647 441 1629 438 1614 c 2
 138 -172 l 2
 135 -192 127 -205 121 -205 c 2
 76 -205 l 2
EndSplineSet
EndChar

StartChar: g
Encoding: 71 103 71
Width: 597
VWidth: 0
Flags: HW
PickledData: "(dp1
S'com.typemytype.robofont.layerData'
p2
(dp3
S'b'
(dp4
S'name'
p5
S'g'
sS'lib'
p6
(dp7
sS'unicodes'
p8
(tsS'width'
p9
I597
sS'contours'
p10
(tsS'components'
p11
(tsS'anchors'
p12
(tsss."
LayerCount: 2
Fore
SplineSet
307 -285 m 0
 141 -285 81 -212 81 -116 c 0
 81 -60 113 39 153 112 c 0
 155 116 158 121 158 125 c 0
 158 130 154 132 148 135 c 0
 100 159 84 202 84 239 c 0
 84 334 110 360 143 404 c 0
 147 409 148 414 148 419 c 0
 148 424 147 429 144 432 c 0
 92 505 75 587 75 678 c 0
 75 862 123 1019 301 1019 c 0
 323 1019 344 1013 361 1008 c 0
 368 1006 372 1010 374 1027 c 2
 404 1267 l 2
 408 1306 417 1309 434 1309 c 2
 468 1309 l 2
 479 1309 487 1295 481 1270 c 2
 414 996 l 2
 413 992 413 989 413 986 c 0
 413 977 416 970 422 966 c 0
 487 914 523 796 523 678 c 0
 523 485 491 351 316 351 c 0
 271 351 232 361 203 378 c 1
 171 347 141 313 141 249 c 0
 141 210 171 167 241 167 c 2
 364 167 l 2
 521 167 566 80 566 -26 c 0
 566 -206 490 -285 307 -285 c 0
294 -225 m 0
 452 -225 503 -161 503 -28 c 0
 503 75 442 108 358 108 c 2
 242 108 l 2
 207 108 152 6 152 -100 c 0
 152 -171 179 -225 294 -225 c 0
314 410 m 0
 454 410 452 534 452 671 c 0
 452 800 426 957 288 957 c 0
 155 957 148 797 148 682 c 0
 148 526 180 410 314 410 c 0
EndSplineSet
EndChar

StartChar: grave
Encoding: 64 96 72
Width: 595
VWidth: 0
Flags: HW
LayerCount: 2
Fore
SplineSet
453 1166 m 2
 439 1166 436 1188 433 1205 c 2
 371 1533 l 2
 369 1545 367 1559 367 1570 c 0
 367 1586 370 1598 377 1598 c 2
 433 1598 l 2
 449 1598 455 1586 459 1543 c 1
 479 1233 l 2
 480 1219 480 1207 480 1198 c 0
 480 1171 476 1166 466 1166 c 2
 453 1166 l 2
EndSplineSet
EndChar

StartChar: greater
Encoding: 30 62 73
Width: 494
VWidth: 0
Flags: HW
PickledData: "(dp1
S'com.typemytype.robofont.layerData'
p2
(dp3
S'b'
(dp4
S'name'
p5
S'greater'
p6
sS'lib'
p7
(dp8
sS'unicodes'
p9
(tsS'width'
p10
I494
sS'contours'
p11
(tsS'components'
p12
(tsS'anchors'
p13
(tsss."
LayerCount: 2
Fore
SplineSet
84 1151 m 0
 87 1151 92 1142 98 1133 c 2
 375 732 l 2
 399 697 400 686 400 646 c 2
 400 641 l 2
 400 602 397 597 374 560 c 2
 99 113 l 2
 94 104 89 101 85 101 c 0
 78 101 75 115 75 143 c 2
 75 158 l 2
 75 201 83 218 98 242 c 2
 338 635 l 2
 340 638 341 643 341 648 c 0
 341 652 340 657 337 660 c 2
 99 1011 l 2
 83 1034 75 1042 75 1085 c 2
 75 1113 l 2
 75 1138 78 1151 84 1151 c 0
EndSplineSet
EndChar

StartChar: guillemotleft
Encoding: 106 171 74
Width: 663
VWidth: 0
Flags: HW
PickledData: "(dp1
S'com.typemytype.robofont.layerData'
p2
(dp3
S'b'
(dp4
S'name'
p5
S'guillemotleft'
p6
sS'lib'
p7
(dp8
sS'unicodes'
p9
(tsS'width'
p10
I494
sS'contours'
p11
(tsS'components'
p12
(tsS'anchors'
p13
(tsss."
LayerCount: 2
Fore
SplineSet
375 273 m 2
 375 249.000466231 371.798989029 241.651156716 367.138719714 241.651156716 c 0
 362.870503133 241.651156716 357.378225578 247.81593419 352 253 c 2
 75 520 l 2
 52.592321931 541.598374645 49.6052268048 556.258200562 49.6052268048 578.318187978 c 2
 49.8249627438 632.224257104 l 2
 49.8249627438 655.291131805 52.3095177713 667.017646403 76 692 c 2
 351 982 l 2
 356.317521755 987.607568396 360.729554837 990.521105996 364.257760384 990.521105996 c 0
 371.481216613 990.521105996 375 978.308651426 375 952 c 2
 375 937 l 2
 375 894 371.356445312 893.647460938 352 873 c 2
 112 617 l 2
 109.534179688 614.370117188 109 609 109 604 c 0
 109 600 109.956054688 594.954101562 113 592 c 2
 351 361 l 2
 371.105069223 341.486256342 375 344 375 301 c 2
 375 273 l 2
614.462890625 273 m 2
 614.462890625 248.810554909 611.497956903 241.259308365 606.898657021 241.259308365 c 0
 602.755461186 241.259308365 597.285980437 247.387130037 591.462890625 253 c 2
 314.462890625 520 l 2
 292.055212556 541.598374645 289.06811743 556.258200562 289.06811743 578.318187978 c 2
 289.287853369 632.224257104 l 2
 289.287853369 655.291131805 291.772408396 667.017646403 315.462890625 692 c 2
 590.462890625 982 l 2
 595.78041238 987.607568396 600.192445462 990.521105996 603.720651009 990.521105996 c 0
 610.944107238 990.521105996 614.462890625 978.308651426 614.462890625 952 c 2
 614.462890625 937 l 2
 614.462890625 894 610.819335938 893.647460938 591.462890625 873 c 2
 351.462890625 617 l 2
 348.997070312 614.370117188 348.462890625 609 348.462890625 604 c 0
 348.462890625 600 349.418945312 594.954101562 352.462890625 592 c 2
 590.462890625 361 l 2
 610.567959848 341.486256342 614.462890625 344 614.462890625 301 c 2
 614.462890625 273 l 2
EndSplineSet
EndChar

StartChar: guillemotright
Encoding: 118 187 75
Width: 663
VWidth: 0
Flags: HW
PickledData: "(dp1
S'com.typemytype.robofont.layerData'
p2
(dp3
S'b'
(dp4
S'name'
p5
S'guillemotright'
p6
sS'lib'
p7
(dp8
sS'unicodes'
p9
(tsS'width'
p10
I494
sS'contours'
p11
(tsS'components'
p12
(tsS'anchors'
p13
(tsss."
LayerCount: 2
Fore
SplineSet
289.068359375 273 m 2
 289.068359375 301 l 2
 289.068359375 344 292.962890625 341.486328125 313.068359375 361 c 2
 551.068359375 592 l 2
 554.112304688 594.954101562 555.068359375 600 555.068359375 604 c 0
 555.068359375 609 554.534179688 614.370117188 552.068359375 617 c 2
 312.068359375 873 l 2
 292.711914062 893.647460938 289.068359375 894 289.068359375 937 c 2
 289.068359375 952 l 2
 289.068359375 978.30859375 292.586914062 990.521484375 299.810546875 990.521484375 c 0
 303.338867188 990.521484375 307.750976562 987.607421875 313.068359375 982 c 2
 588.068359375 692 l 2
 611.758789062 667.017578125 614.243164062 655.291015625 614.243164062 632.224609375 c 2
 614.462890625 578.318359375 l 2
 614.462890625 556.2578125 611.475585938 541.598632812 589.068359375 520 c 2
 312.068359375 253 l 2
 306.690429688 247.81640625 301.198242188 241.651367188 296.9296875 241.651367188 c 0
 292.26953125 241.651367188 289.068359375 249 289.068359375 273 c 2
49.60546875 273 m 2
 49.60546875 301 l 2
 49.60546875 344 53.5 341.486328125 73.60546875 361 c 2
 311.60546875 592 l 2
 314.649414062 594.954101562 315.60546875 600 315.60546875 604 c 0
 315.60546875 609 315.071289062 614.370117188 312.60546875 617 c 2
 72.60546875 873 l 2
 53.2490234375 893.647460938 49.60546875 894 49.60546875 937 c 2
 49.60546875 952 l 2
 49.60546875 978.30859375 53.1240234375 990.521484375 60.34765625 990.521484375 c 0
 63.8759765625 990.521484375 68.2880859375 987.607421875 73.60546875 982 c 2
 348.60546875 692 l 2
 372.295898438 667.017578125 374.780273438 655.291015625 374.780273438 632.224609375 c 2
 375 578.318359375 l 2
 375 556.2578125 372.012695312 541.598632812 349.60546875 520 c 2
 72.60546875 253 l 2
 66.7822265625 247.38671875 61.3125 241.259765625 57.169921875 241.259765625 c 0
 52.5703125 241.259765625 49.60546875 248.810546875 49.60546875 273 c 2
EndSplineSet
EndChar

StartChar: h
Encoding: 72 104 76
Width: 639
VWidth: 0
Flags: HW
PickledData: "(dp1
S'com.typemytype.robofont.layerData'
p2
(dp3
S'b'
(dp4
S'name'
p5
S'h'
sS'lib'
p6
(dp7
sS'unicodes'
p8
(tsS'width'
p9
F639.37199999999996
sS'contours'
p10
(tsS'components'
p11
(tsS'anchors'
p12
(tsss."
LayerCount: 2
Fore
SplineSet
118 0 m 2
 104 0 96 9 96 52 c 2
 96 1382 l 2
 96 1425 104 1438 118 1438 c 2
 150 1438 l 2
 165 1438 173 1425 173 1382 c 2
 173 821 l 2
 173 817 174 816 175 816 c 0
 177 816 179 817 180 820 c 0
 225 971 307 1019 375 1019 c 0
 501 1019 553 935 553 599 c 2
 553 52 l 2
 553 9 543 0 530 0 c 2
 498 0 l 2
 483 0 476 9 476 52 c 2
 476 633 l 2
 476 858 451 957 370 957 c 0
 271 957 173 773 173 613 c 2
 173 52 l 2
 173 9 166 0 151 0 c 2
 118 0 l 2
EndSplineSet
EndChar

StartChar: hungarumlaut
Encoding: 355 733 77
Width: 594
VWidth: 0
Flags: HW
LayerCount: 2
Fore
SplineSet
257 1166 m 2
 247 1166 243 1171 243 1198 c 0
 243 1207 244 1219 245 1233 c 2
 266 1543 l 2
 268 1586 274 1598 290 1598 c 2
 346 1598 l 2
 354 1598 356 1586 356 1570 c 0
 356 1559 355 1545 352 1533 c 2
 284 1205 l 2
 279 1181 278 1166 264 1166 c 2
 257 1166 l 2
381 1166 m 2
 371 1166 367 1171 367 1198 c 0
 367 1207 367 1219 368 1233 c 2
 389 1543 l 2
 392 1586 398 1598 415 1598 c 2
 470 1598 l 2
 477 1598 480 1586 480 1570 c 0
 480 1559 478 1545 476 1533 c 2
 406 1205 l 1
 402 1181 401 1166 388 1166 c 2
 381 1166 l 2
EndSplineSet
EndChar

StartChar: hyphen
Encoding: 13 45 78
Width: 358
VWidth: 0
Flags: HW
LayerCount: 2
Fore
SplineSet
100 484 m 2
 84 484 77 498 77 541 c 2
 77 602 l 2
 77 645 84 659 100 659 c 2
 254 659 l 2
 268 659 278 645 278 602 c 2
 278 541 l 2
 278 498 268 484 254 484 c 2
 100 484 l 2
EndSplineSet
EndChar

StartChar: i
Encoding: 73 105 79
Width: 281
VWidth: 0
Flags: HW
PickledData: "(dp1
S'com.typemytype.robofont.layerData'
p2
(dp3
S'b'
(dp4
S'name'
p5
S'i'
sS'lib'
p6
(dp7
sS'unicodes'
p8
(tsS'width'
p9
I281
sS'contours'
p10
(tsS'components'
p11
(tsS'anchors'
p12
(tsss."
LayerCount: 2
Fore
SplineSet
129 0 m 2
 114 0 106 4 106 47 c 2
 106 959 l 2
 106 1002 114 1006 129 1006 c 2
 161 1006 l 2
 176 1006 183 1002 183 959 c 2
 183 47 l 2
 183 4 176 0 161 0 c 2
 129 0 l 2
119 1179 m 2
 104 1179 96 1183 96 1226 c 2
 96 1274 l 2
 96 1317 104 1321 119 1321 c 2
 171 1321 l 2
 186 1321 193 1317 193 1274 c 2
 193 1226 l 2
 193 1183 186 1179 171 1179 c 2
 119 1179 l 2
EndSplineSet
EndChar

StartChar: j
Encoding: 74 106 80
Width: 316
VWidth: 0
Flags: HW
PickledData: "(dp1
S'com.typemytype.robofont.layerData'
p2
(dp3
S'b'
(dp4
S'name'
p5
S'j'
sS'lib'
p6
(dp7
sS'unicodes'
p8
(tsS'width'
p9
I316
sS'contours'
p10
(tsS'components'
p11
(tsS'anchors'
p12
(tsss."
LayerCount: 2
Fore
SplineSet
39 -291 m 2
 24 -291 19 -282 19 -266 c 2
 19 -234 l 2
 19 -221 22 -212 39 -212 c 2
 77 -212 l 2
 134 -212 140 -167 140 19 c 2
 140 959 l 2
 140 1002 149 1006 163 1006 c 2
 194 1006 l 2
 210 1006 217 1002 217 959 c 2
 217 6 l 2
 217 -259 184 -291 78 -291 c 2
 39 -291 l 2
153 1179 m 2
 138 1179 130 1183 130 1226 c 2
 130 1274 l 2
 130 1317 138 1321 153 1321 c 2
 205 1321 l 2
 220 1321 227 1317 227 1274 c 2
 227 1226 l 2
 227 1183 220 1179 205 1179 c 2
 153 1179 l 2
EndSplineSet
EndChar

StartChar: k
Encoding: 75 107 81
Width: 631
VWidth: 0
Flags: HW
PickledData: "(dp1
S'com.typemytype.robofont.layerData'
p2
(dp3
S'b'
(dp4
S'name'
p5
S'k'
sS'lib'
p6
(dp7
sS'unicodes'
p8
(tsS'width'
p9
I631
sS'contours'
p10
(tsS'components'
p11
(tsS'anchors'
p12
(tsss."
LayerCount: 2
Fore
SplineSet
120 0 m 2
 106 0 98 24 98 67 c 2
 98 1371 l 2
 98 1414 106 1438 120 1438 c 2
 154 1438 l 2
 169 1438 177 1414 177 1371 c 2
 177 433 l 2
 177 427 178 424 180 424 c 1
 180 424 181 424 183 426 c 2
 485 939 l 1
 509 975 527 1006 541 1006 c 2
 578 1006 l 2
 584 1006 588 999 588 989 c 0
 588 976 583 958 572 939 c 2
 344 561 l 2
 342 558 340 556 340 553 c 0
 340 549 344 546 344 545 c 2
 587 67 l 2
 595 50 599 34 599 22 c 0
 599 9 594 0 587 0 c 2
 548 0 l 2
 535 0 520 31 504 67 c 1
 296 495 l 2
 295 498 294 503 290 503 c 0
 289 503 287 502 284 498 c 0
 258 459 183 332 181 330 c 1
 179 325 177 319 177 308 c 2
 177 67 l 2
 177 24 169 0 154 0 c 2
 120 0 l 2
EndSplineSet
EndChar

StartChar: l
Encoding: 76 108 82
Width: 280
VWidth: 0
Flags: HW
PickledData: "(dp1
S'com.typemytype.robofont.layerData'
p2
(dp3
S'b'
(dp4
S'name'
p5
S'l'
sS'lib'
p6
(dp7
sS'unicodes'
p8
(tsS'width'
p9
I280
sS'contours'
p10
(tsS'components'
p11
(tsS'anchors'
p12
(tsss."
LayerCount: 2
Fore
SplineSet
131 0 m 2
 117 0 109 24 109 67 c 2
 109 1371 l 2
 109 1414 117 1438 131 1438 c 2
 163 1438 l 2
 178 1438 186 1414 186 1371 c 2
 186 67 l 2
 186 24 178 0 163 0 c 2
 131 0 l 2
EndSplineSet
EndChar

StartChar: less
Encoding: 28 60 83
Width: 494
VWidth: 0
Flags: HW
PickledData: "(dp1
S'com.typemytype.robofont.layerData'
p2
(dp3
S'b'
(dp4
S'name'
p5
S'less'
p6
sS'lib'
p7
(dp8
sS'unicodes'
p9
(tsS'width'
p10
I494
sS'contours'
p11
(tsS'components'
p12
(tsS'anchors'
p13
(tsss."
LayerCount: 2
Fore
SplineSet
391 101 m 0
 388 101 383 110 377 119 c 2
 100 520 l 2
 76 555 75 566 75 606 c 2
 75 611 l 2
 75 650 78 655 101 692 c 2
 376 1139 l 2
 381 1148 386 1151 390 1151 c 0
 397 1151 400 1137 400 1109 c 2
 400 1094 l 2
 400 1051 392 1034 377 1010 c 2
 137 617 l 2
 135 614 134 609 134 604 c 0
 134 600 135 595 138 592 c 2
 376 241 l 2
 392 218 400 210 400 167 c 2
 400 139 l 2
 400 114 397 101 391 101 c 0
EndSplineSet
EndChar

StartChar: m
Encoding: 77 109 84
Width: 1017
VWidth: 0
Flags: HW
PickledData: "(dp1
S'com.typemytype.robofont.layerData'
p2
(dp3
S'b'
(dp4
S'name'
p5
S'm'
sS'lib'
p6
(dp7
sS'unicodes'
p8
(tsS'width'
p9
F1017.002
sS'contours'
p10
(tsS'components'
p11
(tsS'anchors'
p12
(tsss."
LayerCount: 2
Fore
SplineSet
118 0 m 2
 103 0 94 9 94 52 c 2
 94 939 l 2
 94 982 100 1006 115 1006 c 2
 121 1006 l 2
 137 1006 143 1002 148 952 c 1
 157 790 l 2
 158 782 159 777 163 777 c 0
 165 777 167 785 168 792 c 0
 208 963 290 1019 363 1019 c 0
 455 1019 506 971 542 792 c 0
 543 789 543 787 544 787 c 0
 545 787 546 788 547 792 c 0
 587 963 669 1019 742 1019 c 0
 859 1019 931 944 931 608 c 2
 931 52 l 2
 931 9 922 0 908 0 c 2
 875 0 l 2
 860 0 852 9 852 52 c 2
 852 662 l 2
 852 887 812 957 741 957 c 0
 633 957 552 755 552 622 c 2
 552 52 l 2
 552 9 543 0 529 0 c 2
 496 0 l 2
 481 0 473 9 473 52 c 2
 473 662 l 2
 473 887 433 957 362 957 c 0
 254 957 173 755 173 622 c 2
 173 52 l 2
 173 9 164 0 150 0 c 2
 118 0 l 2
EndSplineSet
EndChar

StartChar: macron
Encoding: 110 175 85
Width: 540
VWidth: 0
Flags: HW
PickledData: "(dp1
S'com.typemytype.robofont.layerData'
p2
(dp3
s."
LayerCount: 2
Fore
SplineSet
98 0 m 2
 85 0 75 0 75 25 c 2
 75 33 l 2
 75 60 85 60 98 60 c 2
 462 60 l 2
 475 60 485 60 485 35 c 2
 485 27 l 2
 485 0 475 0 462 0 c 2
 98 0 l 2
EndSplineSet
EndChar

StartChar: minus
Encoding: 418 8722 86
Width: 540
VWidth: 0
Flags: HW
PickledData: "(dp1
S'com.typemytype.robofont.layerData'
p2
(dp3
S'b'
(dp4
S'name'
p5
S'minus'
p6
sS'lib'
p7
(dp8
sS'unicodes'
p9
(tsS'width'
p10
I540
sS'contours'
p11
(tsS'components'
p12
(tsS'anchors'
p13
(tsss."
LayerCount: 2
Fore
SplineSet
80 650 m 2
 67 650 57 654 57 679 c 2
 57 687 l 2
 57 714 67 719 80 719 c 2
 460 719 l 2
 473 719 483 714 483 689 c 2
 483 681 l 2
 483 654 473 650 460 650 c 2
 80 650 l 2
EndSplineSet
EndChar

StartChar: multiply
Encoding: 146 215 87
Width: 801
VWidth: 0
Flags: HW
PickledData: "(dp1
S'com.typemytype.robofont.layerData'
p2
(dp3
s."
LayerCount: 2
Fore
SplineSet
619 457 m 2
 648 428 642 416 629 404 c 2
 618 393 l 2
 605 380 592 373 563 402 c 2
 413 552 l 1
 261 401 l 2
 232 372 220 379 206 392 c 1
 196 403 l 2
 183 416 177 428 206 457 c 2
 357 608 l 1
 206 759 l 2
 177 788 184 801 197 814 c 2
 208 825 l 2
 220 838 232 844 261 815 c 2
 413 664 l 1
 563 814 l 2
 592 843 604 837 617 824 c 2
 628 814 l 1
 641 800 648 788 619 759 c 2
 469 608 l 1
 619 457 l 2
EndSplineSet
EndChar

StartChar: n
Encoding: 78 110 88
Width: 639
VWidth: 0
Flags: HW
PickledData: "(dp1
S'com.typemytype.robofont.layerData'
p2
(dp3
S'b'
(dp4
S'name'
p5
S'n'
sS'lib'
p6
(dp7
sS'unicodes'
p8
(tsS'width'
p9
F639.00099999999998
sS'contours'
p10
(tsS'components'
p11
(tsS'anchors'
p12
(tsss."
LayerCount: 2
Fore
SplineSet
119 0 m 2
 104 0 95 9 95 52 c 2
 95 939 l 2
 95 982 101 1006 116 1006 c 2
 122 1006 l 2
 138 1006 144 1002 149 952 c 1
 158 810 l 2
 159 802 160 797 164 797 c 0
 166 797 168 805 169 812 c 0
 209 983 291 1019 364 1019 c 0
 476 1019 551 937 552 642 c 2
 553 52 l 2
 553 9 544 0 530 0 c 2
 497 0 l 2
 482 0 474 9 474 52 c 2
 473 662 l 2
 473 887 430 957 359 957 c 0
 251 957 174 798 174 642 c 2
 174 52 l 2
 174 9 165 0 151 0 c 2
 119 0 l 2
EndSplineSet
EndChar

StartChar: nine
Encoding: 25 57 89
Width: 727
VWidth: 0
Flags: HW
PickledData: "(dp1
S'com.typemytype.robofont.layerData'
p2
(dp3
S'b'
(dp4
S'name'
p5
S'nine'
p6
sS'lib'
p7
(dp8
sS'unicodes'
p9
(tsS'width'
p10
I727
sS'contours'
p11
(tsS'components'
p12
(tsS'anchors'
p13
(tsss."
LayerCount: 2
Fore
SplineSet
336 -12 m 0
 275 -12 193 15 152 63 c 0
 146 70 146 78 146 96 c 1
 148 124 l 2
 150 142 155 144 159 144 c 0
 165 144 169 139 171 137 c 0
 199 108 260 61 339 61 c 0
 486 61 561 193 561 520 c 2
 561 646 l 1
 513 602 440 573 365 573 c 0
 158 573 89 747 89 1004 c 0
 89 1332 212 1472 369 1472 c 0
 610 1472 643 1239 643 694 c 0
 643 85 520 -12 336 -12 c 0
368 641 m 0
 419 641 502 655 565 714 c 1
 565 875 l 2
 565 1247 513 1403 369 1403 c 0
 236 1403 167 1250 167 1006 c 0
 167 784 216 641 368 641 c 0
EndSplineSet
EndChar

StartChar: numbersign
Encoding: 3 35 90
Width: 674
VWidth: 0
Flags: HW
PickledData: "(dp1
S'com.typemytype.robofont.layerData'
p2
(dp3
S'b'
(dp4
S'name'
p5
S'numbersign'
p6
sS'lib'
p7
(dp8
sS'unicodes'
p9
(tsS'width'
p10
I674
sS'contours'
p11
(tsS'components'
p12
(tsS'anchors'
p13
(tsss."
LayerCount: 2
Fore
SplineSet
161 -205 m 2
 155 -205 151 -187 153 -170 c 2
 186 285 l 1
 121 285 l 2
 106 285 98 289 98 322 c 2
 98 338 l 2
 98 371 101 375 116 375 c 2
 194 375 l 1
 236 914 l 1
 164 914 l 2
 149 914 139 918 139 951 c 2
 139 969 l 2
 139 992 146 1006 161 1006 c 2
 246 1006 l 1
 289 1530 l 2
 291 1551 299 1565 305 1565 c 2
 343 1565 l 2
 348 1565 351 1547 350 1530 c 2
 307 1006 l 1
 469 1006 l 1
 513 1530 l 2
 515 1551 522 1565 529 1565 c 2
 566 1565 l 2
 571 1565 574 1547 572 1530 c 2
 529 1006 l 1
 595 1006 l 2
 609 1006 616 992 616 969 c 2
 616 951 l 2
 616 918 612 914 598 914 c 2
 520 914 l 1
 478 375 l 1
 548 375 l 2
 565 375 576 371 576 338 c 2
 576 322 l 2
 576 289 570 285 553 285 c 2
 469 285 l 1
 436 -170 l 2
 434 -191 427 -205 420 -205 c 2
 384 -205 l 2
 378 -205 375 -187 376 -170 c 2
 409 285 l 1
 247 285 l 1
 214 -170 l 2
 212 -191 205 -205 197 -205 c 2
 161 -205 l 2
256 375 m 1
 418 375 l 1
 459 914 l 1
 297 914 l 1
 256 375 l 1
EndSplineSet
EndChar

StartChar: o
Encoding: 79 111 91
Width: 673
VWidth: 0
Flags: HW
PickledData: "(dp1
S'com.typemytype.robofont.guides'
p2
(tsS'com.typemytype.robofont.layerData'
p3
(dp4
S'b'
(dp5
S'name'
p6
S'o'
sS'lib'
p7
(dp8
sS'unicodes'
p9
(tsS'width'
p10
I673
sS'contours'
p11
(tsS'components'
p12
(tsS'anchors'
p13
(tsss."
LayerCount: 2
Fore
SplineSet
338 50 m 0
 434 50 516 112 516 503 c 0
 516 917 428 957 338 957 c 0
 245 957 158 915 158 503 c 0
 158 115 239 50 338 50 c 0
339 -12 m 0
 213 -12 80 65 80 503 c 0
 80 951 202 1019 339 1019 c 0
 474 1019 593 951 593 503 c 0
 593 66 462 -12 339 -12 c 0
EndSplineSet
EndChar

StartChar: one
Encoding: 17 49 92
Width: 410
VWidth: 0
Flags: HW
PickledData: "(dp1
S'com.typemytype.robofont.layerData'
p2
(dp3
S'b'
(dp4
S'name'
p5
S'one'
p6
sS'lib'
p7
(dp8
sS'unicodes'
p9
(tsS'width'
p10
I410
sS'contours'
p11
(tsS'components'
p12
(tsS'anchors'
p13
(tsss."
LayerCount: 2
Fore
SplineSet
221 0 m 2
 206 0 199 24 199 67 c 2
 199 1320 l 2
 199 1340 193 1341 185 1339 c 2
 92 1313 l 2
 78 1309 70 1309 70 1336 c 2
 70 1371 l 2
 70 1383 78 1386 91 1390 c 2
 239 1433 l 2
 265 1440 277 1447 277 1404 c 2
 277 67 l 2
 277 24 268 0 255 0 c 2
 221 0 l 2
EndSplineSet
EndChar

StartChar: oslash
Encoding: 179 248 93
Width: 819
VWidth: 0
Flags: HW
PickledData: "(dp1
S'com.typemytype.robofont.guides'
p2
(tsS'com.typemytype.robofont.layerData'
p3
(dp4
S'b'
(dp5
S'name'
p6
S'oslash'
p7
sS'lib'
p8
(dp9
sS'unicodes'
p10
(tsS'width'
p11
I819
sS'contours'
p12
(tsS'components'
p13
(tsS'anchors'
p14
(tsss."
LayerCount: 2
Fore
SplineSet
97 -90 m 2
 67 -75 l 2
 65 -74 67 -63 70 -53 c 1
 568 1063 l 2
 574 1075 580 1083 583 1082 c 2
 611 1069 l 1
 614 1069 613 1056 608 1047 c 2
 111 -71 l 1
 107 -84 101 -91 97 -90 c 2
EndSplineSet
Refer: 91 111 N 1 0 0 1 0 0 2
EndChar

StartChar: p
Encoding: 80 112 94
Width: 686
VWidth: 0
Flags: HW
PickledData: "(dp1
S'com.typemytype.robofont.layerData'
p2
(dp3
S'b'
(dp4
S'name'
p5
S'p'
sS'lib'
p6
(dp7
sS'unicodes'
p8
(tsS'width'
p9
F686.30499999999995
sS'contours'
p10
(tsS'components'
p11
(tsS'anchors'
p12
(tsss."
LayerCount: 2
Fore
SplineSet
117 -427 m 2
 102 -427 94 -408 94 -365 c 2
 94 954 l 2
 94 997 97 1011 112 1011 c 2
 117 1011 l 2
 127 1011 135 1000 143 927 c 0
 148 889 153 820 153 787 c 0
 153 781 156 776 157 776 c 0
 159 776 160 778 162 782 c 0
 205 944 289 1019 364 1019 c 0
 489 1019 607 867 607 507 c 0
 607 128 487 -12 357 -12 c 0
 283 -12 217 50 176 179 c 0
 175 182 173 184 173 184 c 2
 172 184 172 182 172 176 c 2
 172 -365 l 2
 172 -408 163 -427 149 -427 c 2
 117 -427 l 2
352 50 m 0
 442 50 529 143 529 507 c 0
 529 798 448 957 352 957 c 0
 253 957 172 765 172 507 c 0
 172 225 259 50 352 50 c 0
EndSplineSet
EndChar

StartChar: paragraph
Encoding: 114 182 95
Width: 897
VWidth: 0
Flags: HW
PickledData: "(dp1
S'com.typemytype.robofont.layerData'
p2
(dp3
s."
LayerCount: 2
Fore
SplineSet
480 -1 m 2
 447 -1 443 23 443 66 c 2
 443 896 l 1
 423 896 l 2
 244 896 73 959 73 1163 c 0
 73 1360 200 1438 491 1438 c 0
 666 1438 721 1426 759 1416 c 0
 802 1405 791 1381 791 1338 c 2
 791 66 l 2
 791 23 787 -1 754 -1 c 2
 750 -1 l 2
 717 -1 713 23 713 66 c 2
 713 875 l 2
 713 887 704 896 694 896 c 2
 521 896 l 1
 521 66 l 2
 521 23 517 -1 484 -1 c 2
 480 -1 l 2
EndSplineSet
EndChar

StartChar: parenleft
Encoding: 8 40 96
Width: 377
VWidth: 0
Flags: HW
LayerCount: 2
Fore
SplineSet
266 -143 m 0
 131 -62 92 299 92 699 c 0
 92 1100 131 1460 266 1540 c 0
 279 1548 292 1508 292 1470 c 2
 292 1450 l 2
 292 1381 277 1381 256 1350 c 0
 212 1284 168 1162 168 699 c 0
 168 236 213 112 257 46 c 1
 279 15 292 14 292 -55 c 2
 292 -73 l 2
 292 -111 279 -151 266 -143 c 0
EndSplineSet
EndChar

StartChar: parenright
Encoding: 9 41 97
Width: 382
VWidth: 0
Flags: HW
LayerCount: 2
Fore
SplineSet
113 -143 m 0
 100 -151 86 -111 86 -73 c 2
 86 -53 l 2
 86 16 102 16 122 47 c 0
 167 113 211 235 211 698 c 0
 211 1161 167 1285 122 1351 c 0
 102 1382 86 1383 86 1452 c 2
 86 1470 l 2
 86 1508 100 1548 113 1540 c 0
 248 1459 288 1098 288 698 c 0
 288 297 248 -63 113 -143 c 0
EndSplineSet
EndChar

StartChar: percent
Encoding: 5 37 98
Width: 1003
VWidth: 0
Flags: HW
PickledData: "(dp1
S'com.typemytype.robofont.layerData'
p2
(dp3
S'b'
(dp4
S'name'
p5
S'percent'
p6
sS'lib'
p7
(dp8
sS'unicodes'
p9
(tsS'width'
p10
I1003
sS'contours'
p11
(tsS'components'
p12
(tsS'anchors'
p13
(tsss."
LayerCount: 2
Fore
SplineSet
365 -82 m 2
 353 -82 345 -45 350 -12 c 2
 572 1466 l 2
 579 1508 594 1536 609 1536 c 2
 620 1536 l 2
 632 1536 641 1499 635 1466 c 1
 413 -12 l 2
 407 -54 393 -82 376 -82 c 2
 365 -82 l 2
208 752 m 0
 267 752 299 876 299 1060 c 0
 299 1248 269 1368 208 1368 c 0
 148 1368 115 1248 115 1060 c 0
 115 876 151 752 208 752 c 0
208 682 m 0
 106 682 54 819 54 1057 c 0
 54 1293 104 1438 208 1438 c 0
 310 1438 360 1293 360 1057 c 0
 360 819 308 682 208 682 c 0
787 69 m 0
 846 69 878 193 878 377 c 0
 878 565 848 685 787 685 c 0
 727 685 694 565 694 377 c 0
 694 193 730 69 787 69 c 0
787 -1 m 0
 685 -1 633 136 633 374 c 0
 633 610 683 755 787 755 c 0
 889 755 939 610 939 374 c 0
 939 136 887 -1 787 -1 c 0
EndSplineSet
EndChar

StartChar: period
Encoding: 14 46 99
Width: 270
VWidth: 0
Flags: HW
PickledData: "(dp1
S'com.typemytype.robofont.layerData'
p2
(dp3
S'b'
(dp4
S'name'
p5
S'period'
p6
sS'lib'
p7
(dp8
sS'unicodes'
p9
(tsS'width'
p10
I270
sS'contours'
p11
(tsS'components'
p12
(tsS'anchors'
p13
(tsss."
LayerCount: 2
Fore
SplineSet
102 0 m 2
 88 0 76 14 76 57 c 2
 76 147 l 2
 76 190 88 204 102 204 c 2
 174 204 l 2
 189 204 200 190 200 147 c 2
 200 57 l 2
 200 14 189 0 174 0 c 2
 102 0 l 2
EndSplineSet
EndChar

StartChar: plus
Encoding: 11 43 100
Width: 801
VWidth: 0
Flags: HW
PickledData: "(dp1
S'com.typemytype.robofont.layerData'
p2
(dp3
S'b'
(dp4
S'name'
p5
S'plus'
p6
sS'lib'
p7
(dp8
sS'unicodes'
p9
(tsS'width'
p10
I801
sS'contours'
p11
(tsS'components'
p12
(tsS'anchors'
p13
(tsss."
LayerCount: 2
Fore
SplineSet
406 310 m 2
 387 310 373 314 373 355 c 2
 373 549 l 2
 373 569 367 571 358 571 c 2
 166 571 l 2
 149 571 135 575 135 606 c 2
 135 613 l 2
 135 645 149 648 166 648 c 2
 358 648 l 2
 367 648 373 650 373 670 c 2
 373 861 l 2
 373 902 387 906 406 906 c 2
 421 906 l 2
 439 906 452 902 452 861 c 2
 452 670 l 2
 452 650 459 648 469 648 c 2
 658 648 l 2
 674 648 689 645 689 613 c 2
 689 606 l 2
 689 575 674 571 658 571 c 2
 469 571 l 2
 459 571 452 569 452 549 c 2
 452 355 l 2
 452 314 439 310 421 310 c 2
 406 310 l 2
EndSplineSet
EndChar

StartChar: q
Encoding: 81 113 101
Width: 683
VWidth: 0
Flags: HW
PickledData: "(dp1
S'com.typemytype.robofont.layerData'
p2
(dp3
S'b'
(dp4
S'name'
p5
S'q'
sS'lib'
p6
(dp7
sS'unicodes'
p8
(tsS'width'
p9
F683.30499999999995
sS'contours'
p10
(tsS'components'
p11
(tsS'anchors'
p12
(tsss."
LayerCount: 2
Fore
SplineSet
537 -427 m 2
 523 -427 514 -408 514 -365 c 2
 513 176 l 2
 513 182 513 184 512 184 c 2
 512 184 510 182 509 179 c 0
 468 50 403 -12 329 -12 c 0
 200 -12 79 99 79 507 c 0
 79 904 213 1019 338 1019 c 0
 425 1019 482 935 524 773 c 0
 526 769 527 767 529 767 c 0
 530 767 533 772 533 778 c 0
 533 811 538 889 543 927 c 0
 551 1000 559 1011 569 1011 c 2
 574 1011 l 2
 589 1011 592 997 592 954 c 2
 592 -365 l 2
 592 -408 584 -427 569 -427 c 2
 537 -427 l 2
335 50 m 0
 428 50 514 225 514 507 c 0
 514 765 433 957 335 957 c 0
 238 957 157 798 157 507 c 0
 157 143 245 50 335 50 c 0
EndSplineSet
EndChar

StartChar: question
Encoding: 31 63 102
Width: 716
VWidth: 0
Flags: HW
PickledData: "(dp1
."
LayerCount: 2
Fore
SplineSet
219 0 m 2
 205 0 193 12 193 49 c 2
 193 79 l 2
 193 116 205 128 219 128 c 2
 251 128 l 2
 266 128 277 116 277 79 c 2
 277 49 l 2
 277 12 266 0 251 0 c 2
 219 0 l 2
334 1379 m 0
 266 1379 192 1354 126 1314 c 1
 118 1311 111 1309 105 1309 c 0
 84 1309 70 1325 70 1343 c 0
 70 1358 80 1373 102 1382 c 1
 184 1423 264 1445 336 1445 c 0
 559 1445 668 1284 668 1098 c 0
 668 953 577 790 400 700 c 1
 316 656 309 589 270 478 c 1
 270 478 267 451 241 464 c 0
 237 466 231 469 224 474 c 0
 206 486 221 514 221 514 c 1
 275 682 305 710 410 776 c 0
 542 859 599 982 599 1095 c 0
 599 1245 497 1379 334 1379 c 0
EndSplineSet
EndChar

StartChar: quotedbl
Encoding: 2 34 103
Width: 379
VWidth: 0
Flags: HW
LayerCount: 2
Fore
SplineSet
92 832 m 2
 78 832 78 852 76 889 c 2
 52 1371 l 2
 50 1404 62 1438 76 1438 c 2
 122 1438 l 2
 137 1438 146 1403 145 1370 c 2
 124 889 l 2
 122 852 123 832 108 832 c 2
 92 832 l 2
269 832 m 2
 255 832 255 852 253 889 c 2
 229 1371 l 2
 227 1404 239 1438 253 1438 c 2
 299 1438 l 2
 314 1438 323 1403 322 1370 c 2
 301 889 l 2
 299 852 300 832 285 832 c 2
 269 832 l 2
EndSplineSet
EndChar

StartChar: quoteleft
Encoding: 382 8216 104
Width: 296
VWidth: 0
Flags: HW
LayerCount: 2
Fore
SplineSet
115 911 m 2
 99 911 88 945 88 988 c 2
 88 1133 l 2
 88 1370 133 1506 180 1529 c 0
 192 1535 203 1520 203 1484 c 2
 203 1474 l 2
 203 1420 197 1426 182 1399 c 0
 159 1356 147 1279 147 1255 c 0
 147 1239 148 1228 153 1228 c 2
 182 1228 l 2
 195 1228 203 1216 203 1178 c 2
 203 975 l 2
 203 932 196 911 182 911 c 2
 115 911 l 2
EndSplineSet
EndChar

StartChar: quoteright
Encoding: 383 8217 105
Width: 290
VWidth: 0
Flags: HW
LayerCount: 2
Fore
SplineSet
114 917 m 0
 102 911 92 926 92 962 c 2
 92 972 l 2
 92 1026 98 1020 113 1047 c 0
 136 1090 147 1167 147 1191 c 0
 147 1207 147 1218 141 1218 c 2
 113 1218 l 2
 100 1218 92 1230 92 1268 c 2
 92 1471 l 2
 92 1514 98 1535 113 1535 c 2
 180 1535 l 2
 195 1535 207 1501 207 1458 c 2
 207 1313 l 2
 207 1076 162 940 114 917 c 0
EndSplineSet
EndChar

StartChar: r
Encoding: 82 114 106
Width: 400
VWidth: 0
Flags: HW
PickledData: "(dp1
S'com.typemytype.robofont.layerData'
p2
(dp3
S'b'
(dp4
S'name'
p5
S'r'
sS'lib'
p6
(dp7
sS'unicodes'
p8
(tsS'width'
p9
I400
sS'contours'
p10
(tsS'components'
p11
(tsS'anchors'
p12
(tsss."
LayerCount: 2
Fore
SplineSet
118 0 m 2
 103 0 94 10 94 53 c 2
 94 929 l 2
 94 972 100 1006 115 1006 c 2
 121 1006 l 2
 137 1006 143 992 148 942 c 1
 157 798 l 2
 158 789 159 777 163 777 c 0
 165 777 167 792 169 799 c 0
 195 902 250 1011 314 1011 c 2
 329 1011 l 2
 345 1011 353 1007 353 974 c 2
 353 966 l 2
 353 932 345 925 329 925 c 2
 306 925 l 2
 239 925 173 705 173 572 c 2
 173 53 l 2
 173 10 164 0 150 0 c 2
 118 0 l 2
EndSplineSet
EndChar

StartChar: registered
Encoding: -1 174 107
Width: 540
VWidth: 0
Flags: HW
PickledData: "(dp1
S'com.typemytype.robofont.layerData'
p2
(dp3
S'b'
(dp4
S'name'
p5
S'registered'
p6
sS'lib'
p7
(dp8
sS'unicodes'
p9
(tsS'width'
p10
I1306
sS'contours'
p11
(tsS'components'
p12
(tsS'anchors'
p13
(tsss."
LayerCount: 2
Fore
SplineSet
98 0 m 2
 462 0 l 2
 475 0 485 0 485 27 c 2
 485 35 l 2
 485 60 475 60 462 60 c 2
 98 60 l 2
 85 60 75 60 75 33 c 2
 75 25 l 2
 75 0 85 0 98 0 c 2
EndSplineSet
EndChar

StartChar: ring
Encoding: 352 730 108
Width: 597
VWidth: 0
Flags: HW
PickledData: "(dp1
S'com.typemytype.robofont.layerData'
p2
(dp3
S'b'
(dp4
S'name'
p5
S'ring'
p6
sS'lib'
p7
(dp8
sS'unicodes'
p9
(tsS'width'
p10
I597
sS'contours'
p11
(tsS'components'
p12
(tsS'anchors'
p13
(tsss."
LayerCount: 2
Fore
SplineSet
288 248 m 0
 319 248 374 267 374 359 c 0
 374 458 316 470 288 470 c 0
 259 470 201 458 201 359 c 0
 201 268 257 248 288 248 c 0
288 211 m 0
 246 211 155 235 155 359 c 0
 155 487 242 508 288 508 c 0
 333 508 420 487 420 359 c 0
 420 236 329 211 288 211 c 0
EndSplineSet
EndChar

StartChar: s
Encoding: 83 115 109
Width: 545
VWidth: 0
Flags: HW
PickledData: "(dp1
S'com.typemytype.robofont.layerData'
p2
(dp3
S'b'
(dp4
S'name'
p5
S's'
sS'lib'
p6
(dp7
sS'unicodes'
p8
(tsS'width'
p9
I545
sS'contours'
p10
((dp11
S'points'
p12
((dp13
S'segmentType'
p14
S'curve'
p15
sS'x'
F263
sS'smooth'
p16
I01
sS'y'
F-12
s(dp17
S'y'
F-12
sS'x'
F378
sg16
I00
s(dp18
S'y'
F70
sS'x'
F494
sg16
I00
s(dp19
g14
S'curve'
p20
sS'x'
F494
sg16
I01
sS'y'
F258
s(dp21
S'y'
F421
sS'x'
F494
sg16
I00
s(dp22
S'y'
F490
sS'x'
F438
sg16
I00
s(dp23
g14
S'curve'
p24
sS'x'
F293
sg16
I01
sS'y'
F546
s(dp25
S'y'
F594
sS'x'
F168
sg16
I00
s(dp26
S'y'
F647
sS'x'
F155
sg16
I00
s(dp27
g14
S'curve'
p28
sS'x'
F155
sg16
I01
sS'y'
F768
s(dp29
S'y'
F868
sS'x'
F155
sg16
I00
s(dp30
S'y'
F959
sS'x'
F209
sg16
I00
s(dp31
g14
S'curve'
p32
sS'x'
F319
sg16
I01
sS'y'
F959
s(dp33
S'y'
F959
sS'x'
F378
sg16
I00
s(dp34
S'y'
F937
sS'x'
F413
sg16
I00
s(dp35
g14
S'curve'
p36
sS'x'
F437
sg16
I01
sS'y'
F916
s(dp37
S'y'
F906
sS'x'
F447
sg16
I00
s(dp38
S'y'
F911
sS'x'
F460
sg16
I00
s(dp39
g14
S'curve'
p40
sS'x'
F460
sg16
I01
sS'y'
F936
s(dp41
g14
S'line'
p42
sS'x'
F460
sg16
I01
sS'y'
F950
s(dp43
S'y'
F961
sS'x'
F460
sg16
I00
s(dp44
S'y'
F968
sS'x'
F457
sg16
I00
s(dp45
g14
S'curve'
p46
sS'x'
F450
sg16
I01
sS'y'
F975
s(dp47
S'y'
F1004
sS'x'
F418
sg16
I00
s(dp48
S'y'
F1018
sS'x'
F370
sg16
I00
s(dp49
g14
S'curve'
p50
sS'x'
F310
sg16
I01
sS'y'
F1018
s(dp51
S'y'
F1018
sS'x'
F239
sg16
I00
s(dp52
S'y'
F979
sS'x'
F92
sg16
I00
s(dp53
g14
S'curve'
p54
sS'x'
F89
sg16
I01
sS'y'
F768
s(dp55
S'y'
F606
sS'x'
F87
sg16
I00
s(dp56
S'y'
F534
sS'x'
F132
sg16
I00
s(dp57
g14
S'curve'
p58
sS'x'
F274
sg16
I01
sS'y'
F483
s(dp59
S'y'
F430
sS'x'
F420
sg16
I00
s(dp60
S'y'
F340
sS'x'
F428
sg16
I00
s(dp61
g14
S'curve'
p62
sS'x'
F428
sg16
I01
sS'y'
F247
s(dp63
S'y'
F138
sS'x'
F428
sg16
I00
s(dp64
S'y'
F50
sS'x'
F367
sg16
I00
s(dp65
g14
S'curve'
p66
sS'x'
F261
sg16
I01
sS'y'
F50
s(dp67
S'y'
F50
sS'x'
F192
sg16
I00
s(dp68
S'y'
F69
sS'x'
F155
sg16
I00
s(dp69
g14
S'curve'
p70
sS'x'
F118
sg16
I01
sS'y'
F89
s(dp71
S'y'
F91
sS'x'
F116
sg16
I00
s(dp72
S'y'
F112
sS'x'
F91
sg16
I00
s(dp73
g14
S'curve'
p74
sS'x'
F91
sg16
I01
sS'y'
F74
s(dp75
g14
S'line'
p76
sS'x'
F91
sg16
I01
sS'y'
F65
s(dp77
S'y'
F38
sS'x'
F91
sg16
I00
s(dp78
S'y'
F32
sS'x'
F105
sg16
I00
s(dp79
g14
S'curve'
p80
sS'x'
F113
sg16
I01
sS'y'
F27
s(dp81
S'y'
F5
sS'x'
F150
sg16
I00
s(dp82
S'y'
F-12
sS'x'
F203
sg16
I00
stp83
stp84
sS'components'
p85
(tsS'anchors'
p86
(tsss."
LayerCount: 2
Fore
SplineSet
46 97 m 1
 45 121 l 1
 62 150 l 1
 81 156 l 1
 134 92 188 50 270 50 c 0
 377 50 431 145 431 249 c 0
 431 372 360 430 279 479 c 0
 178 540 81 608 81 776 c 0
 81 919 162 1019 284 1019 c 0
 352 1019 415 995 465 942 c 1
 469 923 l 1
 448 891 l 1
 433 886 l 1
 391 931 353 957 286 957 c 0
 195 957 150 869 150 779 c 0
 150 670 191 615 284 560 c 0
 393 495 500 421 500 248 c 0
 500 101 416 -12 269 -12 c 0
 169 -12 107 23 46 97 c 1
EndSplineSet
EndChar

StartChar: section
Encoding: 102 167 110
Width: 685
VWidth: 0
Flags: HW
PickledData: "(dp1
S'com.typemytype.robofont.layerData'
p2
(dp3
S'b'
(dp4
S'name'
p5
S'section'
p6
sS'lib'
p7
(dp8
sS'unicodes'
p9
(tsS'width'
p10
I685
sS'contours'
p11
((dp12
S'points'
p13
((dp14
S'segmentType'
p15
S'curve'
p16
sS'x'
F408
sS'smooth'
p17
I01
sS'y'
F-40
s(dp18
S'y'
F-40
sS'x'
F907
sg17
I00
s(dp19
S'y'
F96
sS'x'
F1036
sg17
I00
s(dp20
g15
S'curve'
p21
sS'x'
F1036
sg17
I01
sS'y'
F308
s(dp22
S'y'
F409
sS'x'
F1036
sg17
I00
s(dp23
S'y'
F474
sS'x'
F1003
sg17
I00
s(dp24
g15
S'curve'
p25
sS'x'
F940
sg17
I00
sS'y'
F518
s(dp26
S'y'
F574
sS'x'
F988
sg17
I00
s(dp27
S'y'
F650
sS'x'
F1036
sg17
I00
s(dp28
g15
S'curve'
p29
sS'x'
F1036
sg17
I01
sS'y'
F730
s(dp30
S'y'
F993
sS'x'
F1036
sg17
I00
s(dp31
S'y'
F1015
sS'x'
F811
sg17
I00
s(dp32
g15
S'curve'
p33
sS'x'
F418
sg17
I01
sS'y'
F1042
s(dp34
S'y'
F1071
sS'x'
F-11
sg17
I00
s(dp35
S'y'
F1081
sS'x'
F-35
sg17
I00
s(dp36
g15
S'curve'
p37
sS'x'
F-35
sg17
I01
sS'y'
F1177
s(dp38
S'y'
F1281
sS'x'
F-35
sg17
I00
s(dp39
S'y'
F1319
sS'x'
F112
sg17
I00
s(dp40
g15
S'curve'
p41
sS'x'
F430
sg17
I01
sS'y'
F1319
s(dp42
S'y'
F1319
sS'x'
F624
sg17
I00
s(dp43
S'y'
F1290
sS'x'
F714
sg17
I00
s(dp44
g15
S'curve'
p45
sS'x'
F815
sg17
I01
sS'y'
F1259
s(dp46
S'y'
F1247
sS'x'
F854
sg17
I00
s(dp47
S'y'
F1250
sS'x'
F901
sg17
I00
s(dp48
g15
S'curve'
p49
sS'x'
F917
sg17
I01
sS'y'
F1285
s(dp50
g15
S'line'
p51
sS'x'
F930
sg17
I01
sS'y'
F1313
s(dp52
S'y'
F1344
sS'x'
F945
sg17
I00
s(dp53
S'y'
F1380
sS'x'
F928
sg17
I00
s(dp54
g15
S'curve'
p55
sS'x'
F894
sg17
I01
sS'y'
F1393
s(dp56
S'y'
F1447
sS'x'
F749
sg17
I00
s(dp57
S'y'
F1476
sS'x'
F604
sg17
I00
s(dp58
g15
S'curve'
p59
sS'x'
F379
sg17
I01
sS'y'
F1476
s(dp60
S'y'
F1476
sS'x'
F147
sg17
I00
s(dp61
S'y'
F1457
sS'x'
F-242
sg17
I00
s(dp62
g15
S'curve'
p63
sS'x'
F-242
sg17
I01
sS'y'
F1157
s(dp64
S'y'
F1059
sS'x'
F-242
sg17
I00
s(dp65
S'y'
F995
sS'x'
F-196
sg17
I00
s(dp66
g15
S'curve'
p67
sS'x'
F-115
sg17
I00
sS'y'
F953
s(dp68
S'y'
F898
sS'x'
F-188
sg17
I00
s(dp69
S'y'
F820
sS'x'
F-242
sg17
I00
s(dp70
g15
S'curve'
p71
sS'x'
F-242
sg17
I01
sS'y'
F735
s(dp72
S'y'
F506
sS'x'
F-242
sg17
I00
s(dp73
S'y'
F463
sS'x'
F9
sg17
I00
s(dp74
g15
S'curve'
p75
sS'x'
F376
sg17
I01
sS'y'
F449
s(dp76
S'y'
F433
sS'x'
F804
sg17
I00
s(dp77
S'y'
F393
sS'x'
F844
sg17
I00
s(dp78
g15
S'curve'
p79
sS'x'
F844
sg17
I01
sS'y'
F297
s(dp80
S'y'
F183
sS'x'
F844
sg17
I00
s(dp81
S'y'
F117
sS'x'
F762
sg17
I00
s(dp82
g15
S'curve'
p83
sS'x'
F427
sg17
I01
sS'y'
F117
s(dp84
S'y'
F117
sS'x'
F197
sg17
I00
s(dp85
S'y'
F143
sS'x'
F44
sg17
I00
s(dp86
g15
S'curve'
p87
sS'x'
F-131
sg17
I01
sS'y'
F210
s(dp88
S'y'
F225
sS'x'
F-171
sg17
I00
s(dp89
S'y'
F208
sS'x'
F-208
sg17
I00
s(dp90
g15
S'curve'
p91
sS'x'
F-227
sg17
I00
sS'y'
F167
s(dp92
g15
S'line'
p93
sS'x'
F-235
sg17
I00
sS'y'
F151
s(dp94
S'y'
F117
sS'x'
F-250
sg17
I00
s(dp95
S'y'
F73
sS'x'
F-231
sg17
I00
s(dp96
g15
S'curve'
p97
sS'x'
F-198
sg17
I01
sS'y'
F60
s(dp98
S'y'
F-17
sS'x'
F-11
sg17
I00
s(dp99
S'y'
F-40
sS'x'
F218
sg17
I00
stp100
s(dp101
g13
((dp102
g15
S'curve'
p103
sS'x'
F800
sg17
I00
sS'y'
F576
s(dp104
S'y'
F600
sS'x'
F701
sg17
I00
s(dp105
S'y'
F609
sS'x'
F572
sg17
I00
s(dp106
g15
S'curve'
p107
sS'x'
F418
sg17
I01
sS'y'
F620
s(dp108
S'y'
F649
sS'x'
F-11
sg17
I00
s(dp109
S'y'
F676
sS'x'
F-35
sg17
I00
s(dp110
g15
S'curve'
p111
sS'x'
F-35
sg17
I01
sS'y'
F755
s(dp112
S'y'
F792
sS'x'
F-35
sg17
I00
s(dp113
S'y'
F856
sS'x'
F-22
sg17
I00
s(dp114
g15
S'curve'
p115
sS'x'
F15
sg17
I00
sS'y'
F908
s(dp116
S'y'
F886
sS'x'
F114
sg17
I00
s(dp117
S'y'
F876
sS'x'
F237
sg17
I00
s(dp118
g15
S'curve'
p119
sS'x'
F376
sg17
I01
sS'y'
F871
s(dp120
S'y'
F855
sS'x'
F804
sg17
I00
s(dp121
S'y'
F815
sS'x'
F844
sg17
I00
s(dp122
g15
S'curve'
p123
sS'x'
F844
sg17
I01
sS'y'
F719
s(dp124
S'y'
F693
sS'x'
F844
sg17
I00
s(dp125
S'y'
F576
sS'x'
F800
sg17
I00
stp126
stp127
sS'components'
p128
(tsS'anchors'
p129
(tsss."
LayerCount: 2
Fore
SplineSet
419 521 m 1
 421 521 l 1
 477 551 505 606 505 681 c 0
 505 804 434 862 353 911 c 0
 343 917 332 924 322 930 c 1
 256 911 224 855 224 778 c 0
 224 669 265 614 358 559 c 0
 379 547 399 534 419 521 c 1
343 -13 m 0
 243 -13 181 22 120 96 c 1
 119 120 l 1
 136 149 l 1
 155 155 l 1
 208 91 262 49 344 49 c 0
 451 49 505 144 505 248 c 0
 505 371 434 429 353 478 c 0
 252 539 155 607 155 775 c 0
 155 875 195 938 262 973 c 1
 201 1025 155 1093 155 1208 c 0
 155 1351 236 1451 358 1451 c 0
 426 1451 489 1427 539 1374 c 1
 543 1355 l 1
 522 1323 l 1
 507 1318 l 1
 465 1363 427 1389 360 1389 c 0
 269 1389 224 1301 224 1211 c 0
 224 1102 265 1047 358 992 c 0
 467 927 574 853 574 680 c 0
 574 585 538 519 474 478 c 1
 532 425 574 356 574 247 c 0
 574 100 490 -13 343 -13 c 0
EndSplineSet
EndChar

StartChar: semicolon
Encoding: 27 59 111
Width: 307
VWidth: 0
Flags: HW
LayerCount: 2
Fore
SplineSet
118 -301 m 0
 106 -307 96 -292 96 -256 c 2
 96 -246 l 2
 96 -192 102 -198 117 -171 c 0
 140 -128 151 -51 151 -27 c 0
 151 -11 151 0 145 0 c 2
 117 0 l 2
 104 0 96 12 96 50 c 2
 96 253 l 2
 96 296 102 317 117 317 c 2
 184 317 l 2
 199 317 211 283 211 240 c 2
 211 95 l 2
 211 -142 166 -278 118 -301 c 0
130 754 m 2
 116 754 105 788 105 831 c 2
 105 975 l 2
 105 1018 116 1052 130 1052 c 2
 177 1052 l 2
 192 1052 203 1018 203 975 c 2
 203 831 l 2
 203 788 192 754 177 754 c 2
 130 754 l 2
EndSplineSet
EndChar

StartChar: seven
Encoding: 23 55 112
Width: 454
VWidth: 0
Flags: HW
PickledData: "(dp1
S'com.typemytype.robofont.layerData'
p2
(dp3
S'b'
(dp4
S'name'
p5
S'seven'
p6
sS'lib'
p7
(dp8
sS'unicodes'
p9
(tsS'width'
p10
F454.946178551
sS'contours'
p11
(tsS'components'
p12
(tsS'anchors'
p13
(tsss."
LayerCount: 2
Fore
SplineSet
183 0 m 2
 168 0 157 4 161 45 c 2
 290 1369 l 2
 291 1378 287 1378 280 1378 c 2
 102 1378 l 2
 87 1378 79 1378 79 1403 c 2
 79 1418 l 2
 79 1438 87 1438 102 1438 c 2
 353 1438 l 2
 369 1438 378 1438 374 1396 c 2
 238 45 l 2
 234 4 230 0 215 0 c 2
 183 0 l 2
EndSplineSet
EndChar

StartChar: six
Encoding: 22 54 113
Width: 773
VWidth: 0
Flags: HW
PickledData: "(dp1
S'com.typemytype.robofont.layerData'
p2
(dp3
S'b'
(dp4
S'name'
p5
S'six'
p6
sS'lib'
p7
(dp8
sS'unicodes'
p9
(tsS'width'
p10
I773
sS'contours'
p11
((dp12
S'points'
p13
((dp14
S'segmentType'
p15
S'curve'
p16
sS'x'
F422.25999999999999
sS'smooth'
p17
I01
sS'y'
F51
s(dp18
S'y'
F51
sS'x'
F237.989
sg17
I00
s(dp19
S'y'
F168
sS'x'
F168
sg17
I00
s(dp20
g15
S'curve'
p21
sS'x'
F168
sg17
I01
sS'y'
F724
s(dp22
S'y'
F1212
sS'x'
F168
sg17
I00
s(dp23
S'y'
F1388
sS'x'
F233.495
sg17
I00
s(dp24
g15
S'curve'
p25
sS'x'
F422.25999999999999
sg17
I01
sS'y'
F1388
s(dp26
S'y'
F1388
sS'x'
F613.27200000000005
sg17
I00
s(dp27
S'y'
F1233
sS'x'
F678
sg17
I00
s(dp28
g15
S'curve'
p29
sS'x'
F678
sg17
I01
sS'y'
F724
s(dp30
S'y'
F154
sS'x'
F678
sg17
I00
s(dp31
S'y'
F51
sS'x'
F608.77700000000004
sg17
I00
stp32
s(dp33
g13
((dp34
g15
S'curve'
p35
sS'x'
F422.25999999999999
sg17
I01
sS'y'
F-13
s(dp36
S'y'
F-13
sS'x'
F673.94600000000003
sg17
I00
s(dp37
S'y'
F125
sS'x'
F756
sg17
I00
s(dp38
g15
S'curve'
p39
sS'x'
F756
sg17
I01
sS'y'
F724
s(dp40
S'y'
F1276
sS'x'
F756
sg17
I00
s(dp41
S'y'
F1451
sS'x'
F673.94600000000003
sg17
I00
s(dp42
g15
S'curve'
p43
sS'x'
F422.25999999999999
sg17
I01
sS'y'
F1451
s(dp44
S'y'
F1451
sS'x'
F173.94399999999999
sg17
I00
s(dp45
S'y'
F1266
sS'x'
F90
sg17
I00
s(dp46
g15
S'curve'
p47
sS'x'
F90
sg17
I01
sS'y'
F724
s(dp48
S'y'
F135
sS'x'
F90
sg17
I00
s(dp49
S'y'
F-13
sS'x'
F173.94399999999999
sg17
I00
stp50
stp51
sS'components'
p52
(tsS'anchors'
p53
((dp54
S'y'
F1455
sS'x'
F423
sg5
S'top'
p55
stp56
sss."
LayerCount: 2
Fore
SplineSet
367 -12 m 0
 122 -4 90 292 90 736 c 0
 90 1295 202 1451 419 1451 c 0
 507 1451 582 1412 622 1377 c 0
 647 1355 625 1300 603 1315 c 0
 565 1341 513 1388 415 1388 c 0
 238 1388 171 1232 171 840 c 2
 171 797 l 1
 261 831 347 846 407 846 c 0
 638 846 684 653 684 426 c 0
 685 61 542 -18 367 -12 c 0
378 51 m 0
 528 46 610 127 610 431 c 0
 610 603 577 781 405 781 c 0
 348 781 264 766 168 732 c 1
 168 705 l 2
 168 248 216 56 378 51 c 0
EndSplineSet
EndChar

StartChar: slash
Encoding: 15 47 114
Width: 457
VWidth: 0
Flags: HW
LayerCount: 2
Fore
SplineSet
81 -205 m 2
 75 -205 71 -187 73 -170 c 2
 307 1612 l 2
 309 1633 318 1647 324 1647 c 2
 380 1647 l 2
 385 1647 390 1629 388 1612 c 2
 154 -170 l 2
 151 -191 145 -205 138 -205 c 2
 81 -205 l 2
EndSplineSet
EndChar

StartChar: sterling
Encoding: 98 163 116
Width: 841
VWidth: 0
Flags: HW
PickledData: "(dp1
S'com.typemytype.robofont.layerData'
p2
(dp3
S'b'
(dp4
S'name'
p5
S'sterling'
p6
sS'lib'
p7
(dp8
sS'unicodes'
p9
(tsS'width'
p10
F841.00777670299999
sS'contours'
p11
(tsS'components'
p12
(tsS'anchors'
p13
(tsss."
LayerCount: 2
Fore
SplineSet
73 0 m 2
 38 0 31 2 31 24 c 2
 31 37 l 2
 31 60 38 60 73 60 c 2
 186 60 l 2
 210 60 212 63 212 83 c 2
 212 639 l 2
 212 666 206 682 186 682 c 2
 55 682 l 2
 45 682 31 684 31 707 c 2
 31 716 l 2
 31 740 45 742 55 742 c 2
 212 742 l 1
 212 758 212 874 212 889 c 0
 213 1232 235 1443 511 1451 c 0
 656 1455 721 1406 741 1394 c 0
 759 1383 781 1367 775 1346 c 1
 772 1338 l 1
 765 1314 751 1318 723 1336 c 0
 690 1357 634 1393 523 1388 c 0
 321 1379 290 1272 290 906 c 2
 290 742 l 1
 636 742 l 2
 647 742 658 740 658 716 c 2
 658 707 l 2
 658 684 647 682 636 682 c 2
 288 682 l 1
 288 100 l 2
 288 64 290 60 316 60 c 2
 732 60 l 2
 754 60 760 59 760 37 c 2
 760 23 l 2
 760 1 754 0 732 0 c 2
 73 0 l 2
EndSplineSet
EndChar

StartChar: t
Encoding: 84 116 117
Width: 417
VWidth: 0
Flags: HW
PickledData: "(dp1
S'com.typemytype.robofont.layerData'
p2
(dp3
S'b'
(dp4
S'name'
p5
S't'
sS'lib'
p6
(dp7
sS'unicodes'
p8
(tsS'width'
p9
I417
sS'contours'
p10
(tsS'components'
p11
(tsS'anchors'
p12
(tsss."
LayerCount: 2
Fore
SplineSet
286 -3 m 2
 181 -3 127 70 127 297 c 2
 127 921 l 2
 127 936 123 937 117 937 c 2
 49 937 l 2
 34 937 26 938 26 969 c 2
 26 973 l 2
 26 1005 34 1006 49 1006 c 2
 117 1006 l 2
 123 1006 127 1013 127 1033 c 2
 141 1428 l 2
 142 1470 149 1475 163 1475 c 2
 181 1475 l 2
 196 1475 204 1471 204 1428 c 2
 204 1033 l 2
 204 1013 206 1006 214 1006 c 2
 345 1006 l 2
 361 1006 368 1005 368 973 c 2
 368 969 l 2
 368 938 361 937 345 937 c 2
 214 937 l 2
 206 937 204 936 204 921 c 2
 204 301 l 2
 204 91 245 67 298 67 c 2
 362 67 l 2
 375 67 391 65 391 53 c 2
 391 18 l 2
 391 2 382 -3 364 -3 c 2
 286 -3 l 2
EndSplineSet
EndChar

StartChar: three
Encoding: 19 51 118
Width: 798
VWidth: 0
Flags: HW
PickledData: "(dp1
S'com.typemytype.robofont.layerData'
p2
(dp3
S'b'
(dp4
S'name'
p5
S'three'
p6
sS'lib'
p7
(dp8
sS'unicodes'
p9
(tsS'width'
p10
F798.26122520700005
sS'contours'
p11
((dp12
S'points'
p13
((dp14
S'y'
F135
sS'x'
F42.26122520720979
sS'smooth'
p15
I00
s(dp16
S'y'
F-13
sS'x'
F126.2612252072098
sg15
I00
s(dp17
S'segmentType'
p18
S'curve'
p19
sS'x'
F374.2612252072098
sg15
I01
sS'y'
F-13
s(dp20
S'y'
F-13
sS'x'
F626.2612252072098
sg15
I00
s(dp21
S'y'
F125
sS'x'
F708.2612252072098
sg15
I00
s(dp22
g18
S'curve'
p23
sS'x'
F708.2612252072098
sg15
I01
sS'y'
F724
s(dp24
S'y'
F1276
sS'x'
F708.2612252072098
sg15
I00
s(dp25
S'y'
F1451
sS'x'
F626.2612252072098
sg15
I00
s(dp26
g18
S'curve'
p27
sS'x'
F374.2612252072098
sg15
I01
sS'y'
F1451
s(dp28
S'y'
F1451
sS'x'
F126.2612252072098
sg15
I00
s(dp29
S'y'
F1266
sS'x'
F42.26122520720979
sg15
I00
s(dp30
g18
S'curve'
p31
sS'x'
F42.26122520720979
sg15
I01
sS'y'
F724
stp32
s(dp33
g13
((dp34
S'y'
F154
sS'x'
F630.2612252072098
sg15
I00
s(dp35
S'y'
F51
sS'x'
F561.2612252072098
sg15
I00
s(dp36
g18
S'curve'
p37
sS'x'
F374.2612252072098
sg15
I01
sS'y'
F51
s(dp38
S'y'
F51
sS'x'
F190.2612252072098
sg15
I00
s(dp39
S'y'
F168
sS'x'
F120.26122520720979
sg15
I00
s(dp40
g18
S'curve'
p41
sS'x'
F120.26122520720979
sg15
I01
sS'y'
F724
s(dp42
S'y'
F1212
sS'x'
F120.26122520720979
sg15
I00
s(dp43
S'y'
F1388
sS'x'
F185.2612252072098
sg15
I00
s(dp44
g18
S'curve'
p45
sS'x'
F374.2612252072098
sg15
I01
sS'y'
F1388
s(dp46
S'y'
F1388
sS'x'
F565.2612252072098
sg15
I00
s(dp47
S'y'
F1233
sS'x'
F630.2612252072098
sg15
I00
s(dp48
g18
S'curve'
p49
sS'x'
F630.2612252072098
sg15
I01
sS'y'
F724
stp50
stp51
sS'components'
p52
(tsS'anchors'
p53
((dp54
S'y'
F1455
sS'x'
F355.2612252072098
sg5
S'top'
p55
stp56
sss."
LayerCount: 2
Fore
SplineSet
392 -12 m 0
 261 -7 154 48 120 333 c 1
 115 355 115 368 126 371 c 2
 168 382 l 2
 184 386 191 358 193 346 c 0
 219 172 257 56 392 51 c 0
 565 44 640 134 640 390 c 0
 639 657 547 699 376 699 c 0
 362 699 359 708 359 722 c 2
 359 749 l 2
 359 759 360 775 376 775 c 0
 553 775 623 843 623 1060 c 0
 623 1304 547 1388 407 1388 c 0
 303 1388 205 1311 183 1060 c 0
 181 1035 172 1029 156 1032 c 2
 121 1039 l 2
 110 1041 111 1057 113 1077 c 0
 138 1381 276 1451 407 1451 c 0
 573 1451 703 1364 703 1063 c 0
 703 863 638 775 509 737 c 1
 662 713 717 575 717 375 c 0
 717 55 560 -18 392 -12 c 0
EndSplineSet
EndChar

StartChar: two
Encoding: 18 50 119
Width: 773
VWidth: 0
Flags: HW
PickledData: "(dp1
S'com.typemytype.robofont.layerData'
p2
(dp3
S'b'
(dp4
S'name'
p5
S'two'
p6
sS'lib'
p7
(dp8
sS'unicodes'
p9
(tsS'width'
p10
I773
sS'contours'
p11
((dp12
S'points'
p13
((dp14
S'segmentType'
p15
S'curve'
p16
sS'x'
F514
sS'smooth'
p17
I00
sS'y'
F737
s(dp18
S'y'
F775
sS'x'
F643
sg17
I00
s(dp19
S'y'
F863
sS'x'
F708
sg17
I00
s(dp20
g15
S'curve'
p21
sS'x'
F708
sg17
I01
sS'y'
F1063
s(dp22
S'y'
F1364
sS'x'
F708
sg17
I00
s(dp23
S'y'
F1451
sS'x'
F578
sg17
I00
s(dp24
g15
S'curve'
p25
sS'x'
F412
sg17
I01
sS'y'
F1451
s(dp26
S'y'
F1451
sS'x'
F281
sg17
I00
s(dp27
S'y'
F1381
sS'x'
F143
sg17
I00
s(dp28
g15
S'curve'
p29
sS'x'
F118
sg17
I01
sS'y'
F1077
s(dp30
S'y'
F1057
sS'x'
F116
sg17
I00
s(dp31
S'y'
F1041
sS'x'
F115
sg17
I00
s(dp32
g15
S'curve'
p33
sS'x'
F126
sg17
I01
sS'y'
F1039
s(dp34
g15
S'line'
p35
sS'x'
F161
sg17
I01
sS'y'
F1032
s(dp36
S'y'
F1029
sS'x'
F177
sg17
I00
s(dp37
S'y'
F1035
sS'x'
F186
sg17
I00
s(dp38
g15
S'curve'
p39
sS'x'
F188
sg17
I01
sS'y'
F1060
s(dp40
S'y'
F1311
sS'x'
F210
sg17
I00
s(dp41
S'y'
F1388
sS'x'
F308
sg17
I00
s(dp42
g15
S'curve'
p43
sS'x'
F412
sg17
I01
sS'y'
F1388
s(dp44
S'y'
F1388
sS'x'
F552
sg17
I00
s(dp45
S'y'
F1304
sS'x'
F628
sg17
I00
s(dp46
g15
S'curve'
p47
sS'x'
F628
sg17
I01
sS'y'
F1060
s(dp48
S'y'
F843
sS'x'
F628
sg17
I00
s(dp49
S'y'
F775
sS'x'
F558
sg17
I00
s(dp50
g15
S'curve'
p51
sS'x'
F381
sg17
I01
sS'y'
F775
s(dp52
S'y'
F775
sS'x'
F365
sg17
I00
s(dp53
S'y'
F759
sS'x'
F364
sg17
I00
s(dp54
g15
S'curve'
p55
sS'x'
F364
sg17
I01
sS'y'
F749
s(dp56
g15
S'line'
p57
sS'x'
F364
sg17
I00
sS'y'
F722
s(dp58
S'y'
F708
sS'x'
F364
sg17
I00
s(dp59
S'y'
F699
sS'x'
F367
sg17
I00
s(dp60
g15
S'curve'
p61
sS'x'
F381
sg17
I01
sS'y'
F699
s(dp62
S'y'
F699
sS'x'
F407
sg17
I00
s(dp63
S'y'
F721
sS'x'
F465
sg17
I00
stp64
stp65
sS'components'
p66
(tsS'anchors'
p67
(tsss."
LayerCount: 2
Fore
SplineSet
619 0 m 2
 138 0 l 2
 124 0 116 0 116 32 c 2
 116 94 l 2
 116 674 609 603 609 1060 c 0
 609 1304 543 1388 403 1388 c 0
 291 1388 210 1311 188 1060 c 0
 186 1035 177 1029 161 1032 c 2
 126 1039 l 2
 115 1041 116 1057 118 1077 c 0
 143 1381 275 1451 406 1451 c 0
 572 1451 689 1364 689 1063 c 0
 689 577 194 631 194 105 c 2
 194 60 l 1
 619 60 l 2
 633 60 641 60 641 33 c 2
 641 27 l 2
 641 0 633 0 619 0 c 2
EndSplineSet
EndChar

StartChar: u
Encoding: 85 117 120
Width: 639
VWidth: 0
Flags: HW
PickledData: "(dp1
S'com.typemytype.robofont.layerData'
p2
(dp3
S'b'
(dp4
S'name'
p5
S'u'
sS'lib'
p6
(dp7
sS'unicodes'
p8
(tsS'width'
p9
F639.00099999999998
sS'contours'
p10
(tsS'components'
p11
(tsS'anchors'
p12
(tsss."
LayerCount: 2
Fore
SplineSet
275 -12 m 0
 158 -12 86 37 86 373 c 2
 86 954 l 2
 86 997 95 1006 109 1006 c 2
 142 1006 l 2
 157 1006 165 997 165 954 c 2
 165 319 l 2
 165 94 205 50 276 50 c 0
 384 50 465 226 465 359 c 2
 465 954 l 2
 465 997 474 1006 488 1006 c 2
 520 1006 l 2
 535 1006 544 997 544 954 c 2
 544 67 l 2
 544 24 538 0 523 0 c 2
 517 0 l 2
 501 0 495 4 490 54 c 1
 481 191 l 2
 480 199 479 204 475 204 c 0
 473 204 471 196 470 189 c 0
 430 18 348 -12 275 -12 c 0
EndSplineSet
EndChar

StartChar: underscore
Encoding: 63 95 121
Width: 540
VWidth: 0
Flags: HW
PickledData: "(dp1
S'com.typemytype.robofont.layerData'
p2
(dp3
S'b'
(dp4
S'name'
p5
S'underscore'
p6
sS'lib'
p7
(dp8
sS'unicodes'
p9
(tsS'width'
p10
I540
sS'contours'
p11
(tsS'components'
p12
(tsS'anchors'
p13
(tsss."
LayerCount: 2
Fore
SplineSet
37 0 m 2
 24 0 14 0 14 25 c 2
 14 33 l 2
 14 60 24 60 37 60 c 2
 507 60 l 2
 520 60 530 60 530 35 c 2
 530 27 l 2
 530 0 520 0 507 0 c 2
 37 0 l 2
EndSplineSet
EndChar

StartChar: v
Encoding: 86 118 122
Width: 552
VWidth: 0
Flags: HW
PickledData: "(dp1
S'com.typemytype.robofont.layerData'
p2
(dp3
S'b'
(dp4
S'name'
p5
S'v'
sS'lib'
p6
(dp7
sS'unicodes'
p8
(tsS'width'
p9
I552
sS'contours'
p10
(tsS'components'
p11
(tsS'anchors'
p12
(tsss."
LayerCount: 2
Fore
SplineSet
252 1 m 2
 239 1 229 27 221 67 c 2
 52 939 l 2
 49 954 48 967 48 977 c 0
 48 996 52 1006 62 1006 c 2
 103 1006 l 2
 119 1006 125 982 133 939 c 2
 270 121 l 2
 271 115 272 112 274 112 c 0
 275 112 276 115 277 121 c 2
 417 939 l 2
 425 985 435 1006 449 1006 c 2
 491 1006 l 2
 500 1006 504 998 504 982 c 0
 504 971 502 957 498 939 c 2
 326 67 l 2
 318 27 304 1 290 1 c 2
 252 1 l 2
EndSplineSet
EndChar

StartChar: w
Encoding: 87 119 123
Width: 903
VWidth: 0
Flags: HW
PickledData: "(dp1
S'com.typemytype.robofont.layerData'
p2
(dp3
S'b'
(dp4
S'name'
p5
S'w'
sS'lib'
p6
(dp7
sS'unicodes'
p8
(tsS'width'
p9
I903
sS'contours'
p10
(tsS'components'
p11
(tsS'anchors'
p12
(tsss."
LayerCount: 2
Fore
SplineSet
240 0 m 2
 226 0 214 27 207 67 c 2
 54 939 l 2
 51 954 50 967 50 977 c 0
 50 996 54 1006 64 1006 c 2
 100 1006 l 2
 116 1006 122 983 130 939 c 1
 257 123 l 1
 260 116 261 113 262 113 c 0
 264 113 265 117 266 123 c 2
 409 939 l 2
 417 986 424 1006 440 1006 c 2
 471 1006 l 2
 484 1006 489 980 497 939 c 2
 649 123 l 2
 650 117 651 115 652 115 c 0
 656 115 657 120 657 123 c 2
 771 939 l 2
 778 986 788 1006 804 1006 c 2
 841 1006 l 2
 849 1006 853 998 853 982 c 0
 853 971 851 957 847 939 c 1
 708 67 l 2
 700 23 685 0 672 0 c 2
 631 0 l 2
 616 0 601 26 593 67 c 2
 457 823 l 2
 456 829 455 830 454 830 c 0
 453 830 449 826 448 823 c 2
 319 67 l 2
 311 23 295 0 280 0 c 2
 240 0 l 2
EndSplineSet
EndChar

StartChar: x
Encoding: 88 120 124
Width: 565
VWidth: 0
Flags: HW
PickledData: "(dp1
S'com.typemytype.robofont.layerData'
p2
(dp3
S'b'
(dp4
S'name'
p5
S'x'
sS'lib'
p6
(dp7
sS'unicodes'
p8
(tsS'width'
p9
I565
sS'contours'
p10
(tsS'components'
p11
(tsS'anchors'
p12
(tsss."
LayerCount: 2
Fore
SplineSet
60 0 m 2
 55 0 52 13 52 26 c 0
 52 33 53 41 55 46 c 0
 114 193 170 349 233 492 c 0
 234 494 234 495 234 499 c 0
 234 502 234 506 233 511 c 1
 150 702 85 892 61 958 c 0
 59 963 57 971 57 978 c 0
 57 992 62 1006 66 1006 c 2
 99 1006 l 2
 115 1006 125 985 137 956 c 0
 161 899 208 750 280 585 c 0
 281 583 281 581 282 581 c 0
 284 581 287 582 288 585 c 0
 342 717 414 903 437 958 c 0
 449 987 458 1006 473 1006 c 2
 503 1006 l 2
 508 1006 512 994 512 981 c 0
 512 973 511 965 508 960 c 1
 464 845 393 678 325 515 c 0
 324 513 322 511 322 507 c 0
 322 504 324 499 325 493 c 1
 379 368 441 219 510 48 c 0
 512 42 513 35 513 28 c 0
 513 14 510 0 505 0 c 2
 475 0 l 2
 458 0 441 21 430 50 c 1
 408 98 352 267 288 414 c 0
 286 417 285 420 282 420 c 0
 281 420 279 419 273 414 c 1
 216 270 152 103 128 47 c 1
 114 18 102 0 85 0 c 2
 60 0 l 2
EndSplineSet
EndChar

StartChar: y
Encoding: 89 121 125
Width: 570
VWidth: 0
Flags: HW
PickledData: "(dp1
S'com.typemytype.robofont.layerData'
p2
(dp3
S'b'
(dp4
S'name'
p5
S'y'
sS'lib'
p6
(dp7
sS'unicodes'
p8
(tsS'width'
p9
I570
sS'contours'
p10
(tsS'components'
p11
(tsS'anchors'
p12
(tsss."
LayerCount: 2
Fore
SplineSet
218 -255 m 0
 172 -260 117 -247 109 -221 c 0
 108 -218 108 -214 108 -210 c 0
 108 -187 121 -171 128 -173 c 0
 140 -177 169 -187 198 -187 c 0
 244 -187 264 -75 264 2 c 0
 264 33 255 72 245 110 c 1
 48 947 l 2
 47 954 46 962 46 969 c 0
 46 992 53 1006 62 1006 c 2
 96 1006 l 2
 112 1006 121 992 129 950 c 2
 297 146 l 2
 299 140 300 137 302 137 c 0
 304 137 305 141 306 148 c 2
 447 947 l 1
 453 990 462 1006 477 1006 c 2
 509 1006 l 2
 519 1006 525 990 525 964 c 0
 525 957 524 950 523 943 c 2
 343 8 l 1
 311 -170 291 -247 218 -255 c 0
EndSplineSet
EndChar

StartChar: yen
Encoding: 100 165 126
Width: 606
VWidth: 0
Flags: HW
PickledData: "(dp1
S'com.typemytype.robofont.layerData'
p2
(dp3
S'b'
(dp4
S'name'
p5
S'yen'
p6
sS'lib'
p7
(dp8
sS'unicodes'
p9
(tsS'width'
p10
I606
sS'contours'
p11
(tsS'components'
p12
(tsS'anchors'
p13
(tsss."
LayerCount: 2
Fore
SplineSet
152 563 m 2
 137 563 133 563 133 606 c 2
 133 610 l 2
 133 653 137 653 152 653 c 2
 446 653 l 2
 461 653 466 653 466 610 c 2
 466 606 l 2
 466 563 461 563 446 563 c 2
 152 563 l 2
152 366 m 2
 137 366 133 366 133 409 c 2
 133 413 l 2
 133 456 137 456 152 456 c 2
 446 456 l 2
 461 456 466 456 466 413 c 2
 466 409 l 2
 466 366 461 366 446 366 c 2
 152 366 l 2
EndSplineSet
Refer: 31 89 N 1 0 0 1 0 0 2
EndChar

StartChar: z
Encoding: 90 122 127
Width: 484
VWidth: 0
Flags: HW
PickledData: "(dp1
S'com.typemytype.robofont.layerData'
p2
(dp3
S'b'
(dp4
S'name'
p5
S'z'
sS'lib'
p6
(dp7
sS'unicodes'
p8
(tsS'width'
p9
I484
sS'contours'
p10
(tsS'components'
p11
(tsS'anchors'
p12
(tsss."
LayerCount: 2
Fore
SplineSet
96 0 m 2
 90 0 77 3 77 15 c 2
 77 39 l 2
 77 62 84 76 95 111 c 2
 345 936 l 1
 89 936 l 2
 82 936 78 939 78 959 c 2
 78 987 l 2
 78 1000 82 1006 89 1006 c 2
 399 1006 l 2
 406 1006 419 1003 419 987 c 2
 419 966 l 2
 419 943 414 919 410 905 c 2
 155 70 l 1
 420 70 l 2
 425 70 432 68 432 53 c 2
 432 17 l 2
 432 3 425 0 420 0 c 2
 96 0 l 2
EndSplineSet
EndChar

StartChar: zero
Encoding: 16 48 128
Width: 788
VWidth: 0
Flags: HW
LayerCount: 2
Fore
SplineSet
394 43 m 0
 543 43 619 213 619 732 c 0
 619 1224 548 1392 394 1392 c 0
 241 1392 166 1222 166 732 c 0
 166 218 246 43 394 43 c 0
393 -21 m 0
 218 -21 89 153 89 732 c 0
 89 1295 218 1455 393 1455 c 0
 571 1455 698 1301 698 732 c 0
 698 153 571 -21 393 -21 c 0
EndSplineSet
EndChar

StartChar: tilde
Encoding: 354 732 249
Width: 332
VWidth: 0
Flags: H
LayerCount: 2
Fore
SplineSet
97 842 m 0
 24 842 -1 894 -14 926 c 0
 -16 931 -16 936 -16 940 c 0
 -16 959 0 973 16 973 c 0
 26 973 35 966 40 954 c 1
 54 911 77 897 97 897 c 0
 145 897 201 967 265 967 c 0
 312 967 342 929 367 880 c 0
 370 873 371 867 371 861 c 0
 371 844 358 834 344 834 c 0
 333 834 324 840 317 851 c 0
 297 883 284 911 260 911 c 0
 220 911 158 842 97 842 c 0
EndSplineSet
EndChar

StartChar: registered
Encoding: 109 174 293
Width: 1306
VWidth: 0
Flags: HW
LayerCount: 2
Fore
SplineSet
525 779 m 2
 629 779 l 2
 749 779 796 784 796 933 c 0
 796 1079 730 1074 613 1074 c 2
 526 1074 l 2
 523 1074 522 1072 522 1069 c 2
 522 784 l 2
 522 782 522 779 525 779 c 2
169 714 m 0
 169 390 293 51 655 51 c 0
 1017 51 1141 390 1141 714 c 0
 1141 1049 1017 1388 655 1388 c 0
 293 1388 169 1049 169 714 c 0
1216 718 m 0
 1216 331 1054 -13 653 -13 c 0
 254 -13 90 331 90 718 c 0
 90 1105 254 1451 653 1451 c 0
 1054 1451 1216 1105 1216 718 c 0
508 325 m 2
 471 325 l 2
 461 325 456 328 456 348 c 2
 456 1098 l 2
 456 1122 461 1123 471 1123 c 2
 613 1123 l 2
 743 1123 859 1117 859 933 c 0
 859 823 819 765 749 751 c 0
 747 751 745 750 745 748 c 0
 745 747 747 746 750 745 c 0
 799 728 855 712 855 598 c 2
 855 357 l 2
 855 333 847 325 840 325 c 2
 805 325 l 2
 795 325 791 333 791 357 c 2
 791 597 l 2
 791 715 725 723 630 723 c 2
 526 723 l 2
 523 723 522 720 522 715 c 2
 522 348 l 2
 522 328 518 325 508 325 c 2
EndSplineSet
EndChar

StartChar: dotlessi
Encoding: 234 305 352
Width: 281
VWidth: 0
Flags: HW
LayerCount: 2
Fore
SplineSet
129 0 m 2
 114 0 106 4 106 47 c 2
 106 959 l 2
 106 1002 114 1006 129 1006 c 2
 161 1006 l 2
 176 1006 183 1002 183 959 c 2
 183 47 l 2
 183 4 176 0 161 0 c 2
 129 0 l 2
EndSplineSet
EndChar

StartChar: uni0237
Encoding: 347 567 353
Width: 316
VWidth: 0
Flags: HW
LayerCount: 2
Fore
SplineSet
39 -291 m 2
 24 -291 19 -282 19 -266 c 2
 19 -234 l 2
 19 -221 22 -212 39 -212 c 2
 77 -212 l 2
 134 -212 140 -167 140 19 c 2
 140 959 l 2
 140 1002 149 1006 163 1006 c 2
 194 1006 l 2
 210 1006 217 1002 217 959 c 2
 217 6 l 2
 217 -259 184 -291 78 -291 c 2
 39 -291 l 2
EndSplineSet
EndChar

StartChar: logicalnot
Encoding: 107 172 354
Width: 801
VWidth: 0
Flags: HW
LayerCount: 2
Fore
SplineSet
643 310 m 2
 624 310 610 314 610 355 c 2
 610 549 l 2
 610 569 604 571 595 571 c 2
 166 571 l 2
 149 571 135 575 135 606 c 2
 135 613 l 2
 135 645 149 648 166 648 c 2
 658 648 l 2
 674 648 689 645 689 613 c 2
 689 355 l 2
 689 314 676 310 658 310 c 2
 643 310 l 2
EndSplineSet
EndChar

StartChar: plusminus
Encoding: 112 177 355
Width: 801
VWidth: 0
Flags: HW
LayerCount: 2
Fore
SplineSet
658 71 m 2
 166 71 l 2
 149 71 135 75 135 106 c 2
 135 113 l 2
 135 145 149 148 166 148 c 2
 658 148 l 2
 674 148 689 145 689 113 c 2
 689 106 l 2
 689 75 674 71 658 71 c 2
406 310 m 2
 387 310 373 314 373 355 c 2
 373 549 l 2
 373 569 367 571 358 571 c 2
 166 571 l 2
 149 571 135 575 135 606 c 2
 135 613 l 2
 135 645 149 648 166 648 c 2
 358 648 l 2
 367 648 373 650 373 670 c 2
 373 861 l 2
 373 902 387 906 406 906 c 2
 421 906 l 2
 439 906 452 902 452 861 c 2
 452 670 l 2
 452 650 459 648 469 648 c 2
 658 648 l 2
 674 648 689 645 689 613 c 2
 689 606 l 2
 689 575 674 571 658 571 c 2
 469 571 l 2
 459 571 452 569 452 549 c 2
 452 355 l 2
 452 314 439 310 421 310 c 2
 406 310 l 2
EndSplineSet
EndChar

StartChar: quotesingle
Encoding: 7 39 356
Width: 379
VWidth: 0
Flags: HW
LayerCount: 2
Fore
SplineSet
182 832 m 2
 168 832 168 852 166 889 c 2
 142 1371 l 2
 140 1404 152 1438 166 1438 c 2
 212 1438 l 2
 227 1438 236 1403 235 1370 c 2
 214 889 l 2
 212 852 213 832 198 832 c 2
 182 832 l 2
EndSplineSet
EndChar

StartChar: cent
Encoding: 97 162 357
Width: 504
VWidth: 0
Flags: HW
LayerCount: 2
Fore
SplineSet
343 -200 m 2
 329 -200 321 -183 321 -152 c 2
 321 1193 l 2
 321 1222 329 1238 343 1238 c 2
 344 1238 l 2
 359 1238 367 1222 367 1193 c 2
 367 -152 l 2
 367 -183 359 -200 344 -200 c 2
 343 -200 l 2
EndSplineSet
Refer: 49 99 N 1 0 0 1 0 0 2
EndChar

StartChar: uni00AD
Encoding: 108 173 358
Width: 540
VWidth: 0
Flags: HW
LayerCount: 2
Fore
SplineSet
98 590 m 2
 85 590 75 590 75 615 c 2
 75 623 l 2
 75 650 85 650 98 650 c 2
 462 650 l 2
 475 650 485 650 485 625 c 2
 485 617 l 2
 485 590 475 590 462 590 c 2
 98 590 l 2
EndSplineSet
EndChar

StartChar: AE
Encoding: 129 198 362
Width: 739
VWidth: 0
Flags: HW
LayerCount: 2
Fore
SplineSet
475.381835938 420 m 1
 475.381835938 1364.96679688 l 1
 210.381835938 436 l 2
 209.381835938 431 208.381835938 428 208.381835938 427 c 0
 208.381835938 425 211.381835938 420 217.381835938 420 c 2
 475.381835938 420 l 1
497.381835938 0 m 2
 483.381835938 0 475.381835938 0 475.381835938 32 c 2
 475.381835938 360 l 1
 181.381835938 360 l 1
 178.381835938 354 l 1
 89.3818359375 53 l 1
 79.3818359375 10 67.3818359375 0 46.3818359375 0 c 2
 19.3818359375 0 l 2
 12.3818359375 0 8.3818359375 11 8.3818359375 32 c 0
 8.3818359375 42 1.3818359375 39 11.3818359375 53 c 1
 408.381835938 1380 l 2
 420.381835938 1420 432.381835938 1438 451.381835938 1438 c 2
 797.381835938 1438 l 2
 811.381835938 1438 819.381835938 1438 819.381835938 1411 c 2
 819.381835938 1405 l 2
 819.381835938 1378 811.381835938 1378 797.381835938 1378 c 2
 562.381835938 1378 l 2
 554.381835938 1378 553.381835938 1373 553.381835938 1353 c 2
 553.381835938 783 l 1
 557.381835938 775 l 1
 812.381835938 775 l 2
 827.381835938 775 835.381835938 775 835.381835938 750 c 2
 835.381835938 743 l 2
 835.381835938 716 827.381835938 716 812.381835938 716 c 2
 558.381835938 716 l 1
 553.381835938 699 l 1
 553.381835938 60 l 1
 837.381835938 60 l 2
 851.381835938 60 859.381835938 60 859.381835938 33 c 2
 859.381835938 27 l 2
 859.381835938 0 851.381835938 0 837.381835938 0 c 2
 497.381835938 0 l 2
EndSplineSet
EndChar

StartChar: ogonek
Encoding: 353 731 363
Width: 716
Flags: HW
LayerCount: 2
Fore
SplineSet
429 16 m 1
 429 -7 l 1
 366.975804102 -38.0735376628 331.225792188 -93.9095540207 331.225792188 -144.228737064 c 0
 331.225792188 -200.572889422 376.049391512 -250 479 -250 c 1
 479 -250 495 -249 495 -260 c 2
 495 -301 l 2
 495 -311 492 -318 479 -318 c 0
 323.821423693 -318 250.811025188 -244.084798362 250.811025188 -164.555247029 c 0
 250.811025188 -91.4022965729 312.58298046 -13.499209625 429 16 c 1
EndSplineSet
EndChar

StartChar: breve
Encoding: 350 728 372
Width: 1176
Flags: HW
LayerCount: 2
Fore
SplineSet
428 1458 m 1
 488 1458 l 1
 488 1395.48376383 541.353510844 1364.77538781 595.02735803 1364.77538781 c 0
 649.349617613 1364.77538781 704 1396.23019679 704 1458 c 1
 764 1458 l 1
 764 1348.74705432 679.022567893 1293.14742908 594.538108665 1293.14742908 c 0
 511.028221793 1293.14742908 428 1347.47171144 428 1458 c 1
EndSplineSet
EndChar

StartChar: dblgravecmb
Encoding: 414 783 385
Width: 594
VWidth: 0
Flags: HW
LayerCount: 2
Fore
SplineSet
411 1166 m 2
 404 1166 l 2
 390 1166 386 1181 379 1205 c 2
 311 1453 l 2
 307.692115234 1465.06405032 306.25389013 1475.50066113 306.25389013 1484.26616961 c 0
 306.25389013 1506.51731361 315.521704457 1518 327 1518 c 2
 363 1518 l 2
 379 1518 395 1506 397 1463 c 1
 418 1233 l 2
 418.975683673 1219.34042858 422.314233278 1201.12141546 422.314233278 1187.13026205 c 0
 422.314233278 1174.96764234 419.791304139 1166 411 1166 c 2
210 1166 m 2
 203 1166 l 2
 187.833007812 1166 185.166666667 1182 177 1205 c 1
 107 1453 l 2
 103.579220075 1465.11933459 102.099104562 1475.59319999 102.099104562 1484.37995234 c 0
 102.099104562 1506.569752 111.538530872 1518 123 1518 c 2
 158 1518 l 2
 175 1518 191 1506 194 1463 c 2
 215 1233 l 2
 215.779543033 1218.81231679 218.202680951 1200.65150523 218.202680951 1186.81732861 c 0
 218.202680951 1174.76737897 216.364272682 1166 210 1166 c 2
EndSplineSet
EndChar

StartChar: uni0311
Encoding: 65537 785 400
Width: 1176
Flags: HW
LayerCount: 2
Fore
SplineSet
764 1293.14746094 m 1
 704 1293.14746094 l 1
 704 1355.6640625 650.646484375 1386.37207031 596.97265625 1386.37207031 c 0
 542.650390625 1386.37207031 488 1354.91699219 488 1293.14746094 c 1
 428 1293.14746094 l 1
 428 1402.40039062 512.977539062 1458 597.461914062 1458 c 0
 680.971679688 1458 764 1403.67578125 764 1293.14746094 c 1
EndSplineSet
EndChar

StartChar: Thorn
Encoding: 153 222 421
Width: 765
VWidth: 0
Flags: HW
LayerCount: 2
Fore
SplineSet
187 454 m 2
 363 454 l 2
 535 454 628 479.212765957 628 770 c 0
 628 1095.30208333 500 1104 332 1104 c 2
 188 1104 l 2
 184 1104 182 1101 182 1095 c 0
 182 884.666666667 182 674.333333333 182 464 c 0
 182 459 182 454 187 454 c 2
126 0 m 2
 112 0 104 5 104 42 c 2
 104 1351 l 2
 104 1387 112 1393 127 1393 c 2
 160 1393 l 2
 174 1393 182 1388 182 1351 c 2
 182 1164 l 1
 332 1164 l 2
 520 1164 705 1156.01351351 705 770 c 0
 705 411.247706422 547 394 365 394 c 2
 189 394 l 2
 184 394 182 390 182 382 c 2
 182 42 l 2
 182 6 174 0 159 0 c 2
 126 0 l 2
EndSplineSet
EndChar

StartChar: eth
Encoding: 171 240 423
Width: 737
VWidth: 0
Flags: HW
LayerCount: 2
Fore
SplineSet
655 487 m 0
 655 197 602 -12 359 -12 c 0
 193 -12 60 73 60 422 c 0
 60 651 124 846 357 846 c 0
 417 846 488 826 547 758 c 1
 507 923 369 1148 163 1316 c 1
 221 1348 l 1
 488 1117 655 817 655 487 c 0
579 478 m 0
 579 666 518 781 339 781 c 0
 167 781 134 603 134 431 c 0
 134 136 211 51 353 51 c 0
 457 51 579 87 579 478 c 0
EndSplineSet
EndChar

StartChar: kgreenlandic
Encoding: 241 312 424
Width: 631
VWidth: 0
Flags: HW
LayerCount: 2
Fore
SplineSet
120 0 m 2
 106 0 98 24 98 67 c 2
 98 939 l 2
 98 982 106 1006 120 1006 c 2
 154 1006 l 2
 169 1006 177 982 177 939 c 2
 177 433 l 2
 177 427 178 424 180 424 c 1
 180 424 181 424 183 426 c 2
 485 939 l 2
 515.581534146 990.948102705 524 1006 549 1006 c 2
 578 1006 l 2
 584 1006 588 999 588 989 c 0
 588 976 583 958 572 939 c 2
 344 561 l 2
 342 558 340 556 340 553 c 0
 340 549 344 546 344 545 c 2
 587 67 l 2
 595 50 599 34 599 22 c 0
 599 9 594 0 587 0 c 2
 548 0 l 2
 535 0 520 31 504 67 c 1
 296 495 l 2
 295 498 294 503 290 503 c 0
 289 503 287 502 284 498 c 0
 258 459 183 332 181 330 c 1
 179 325 177 319 177 308 c 2
 177 67 l 2
 177 24 169 0 154 0 c 2
 120 0 l 2
EndSplineSet
EndChar

StartChar: oe
Encoding: 265 339 425
Width: 1054
VWidth: 0
Flags: HW
LayerCount: 2
Fore
SplineSet
574 539 m 2
 903 539 l 1
 903 541 l 1
 894 802 863 957 741 957 c 0
 660 957 594 906 572 602 c 0
 572 598 572 539 574 539 c 2
750 -12 m 0
 644.690429688 -12 580.799804688 57.9365234375 537.41796875 220.073242188 c 1
 504.404296875 44.091796875 421.501953125 -12 329 -12 c 0
 203 -12 80 65 80 503 c 0
 80 951 197 1019 334 1019 c 0
 423.642578125 1019 494.174804688 969.017578125 534.811523438 817.706054688 c 1
 580.268554688 962.026367188 639.859375 1019 742 1019 c 0
 905 1019 955 861 968 607 c 1
 968 565 l 2
 968 530 962 487 923 487 c 2
 576 487 l 2
 573 487 570 485 570 477 c 0
 571 317 597 50 756 50 c 0
 890 50 897 200 904 284 c 0
 905 291 907 302 909 302 c 2
 948 302 l 2
 953 302 958 299 958 289 c 2
 958 256 l 2
 958 120 900 -12 750 -12 c 0
328 50 m 0
 424 50 496 112 496 503 c 0
 496 917 418 957 328 957 c 0
 235 957 158 915 158 503 c 0
 158 115 229 50 328 50 c 0
EndSplineSet
EndChar

StartChar: guilsinglleft
Encoding: 393 8249 426
Width: 427
VWidth: 0
Flags: HW
LayerCount: 2
Fore
SplineSet
375 273 m 2
 375 249.000466231 371.798989029 241.651156716 367.138719714 241.651156716 c 0
 362.870503133 241.651156716 357.378225578 247.81593419 352 253 c 2
 75 520 l 2
 52.592321931 541.598374645 49.6052268048 556.258200562 49.6052268048 578.318187978 c 2
 49.8249627438 632.224257104 l 2
 49.8249627438 655.291131805 52.3095177713 667.017646403 76 692 c 2
 351 982 l 2
 356.317521755 987.607568396 360.729554837 990.521105996 364.257760384 990.521105996 c 0
 371.481216613 990.521105996 375 978.308651426 375 952 c 2
 375 937 l 2
 375 894 371.356445312 893.647460938 352 873 c 2
 112 617 l 2
 109.534179688 614.370117188 109 609 109 604 c 0
 109 600 109.956054688 594.954101562 113 592 c 2
 351 361 l 2
 371.105069223 341.486256342 375 344 375 301 c 2
 375 273 l 2
EndSplineSet
EndChar

StartChar: guilsinglright
Encoding: 394 8250 427
Width: 427
VWidth: 0
Flags: HW
LayerCount: 2
Fore
SplineSet
49.60546875 273 m 2
 49.60546875 301 l 2
 49.60546875 344 53.5 341.486328125 73.60546875 361 c 2
 311.60546875 592 l 2
 314.649414062 594.954101562 315.60546875 600 315.60546875 604 c 0
 315.60546875 609 315.071289062 614.370117188 312.60546875 617 c 2
 72.60546875 873 l 2
 53.2490234375 893.647460938 49.60546875 894 49.60546875 937 c 2
 49.60546875 952 l 2
 49.60546875 978.30859375 53.1240234375 990.521484375 60.34765625 990.521484375 c 0
 63.8759765625 990.521484375 68.2880859375 987.607421875 73.60546875 982 c 2
 348.60546875 692 l 2
 372.295898438 667.017578125 374.780273438 655.291015625 374.780273438 632.224609375 c 2
 375 578.318359375 l 2
 375 556.2578125 372.012695312 541.598632812 349.60546875 520 c 2
 72.60546875 253 l 2
 67.2265625 247.81640625 61.734375 241.651367188 57.466796875 241.651367188 c 0
 52.806640625 241.651367188 49.60546875 249 49.60546875 273 c 2
EndSplineSet
EndChar

StartChar: thorn
Encoding: 185 254 432
Width: 684
VWidth: 0
Flags: HW
LayerCount: 2
Fore
SplineSet
353 50 m 0
 449 50 531 164 531 504 c 0
 531 849 455 957 364 957 c 0
 271 957 173 784 173 504 c 0
 173 247 254 50 353 50 c 0
365 -12 m 0
 293.510481735 -12 218.572995028 43.1674950575 173 182.313425765 c 1
 173 -445 l 2
 173 -488 165 -512 150 -512 c 2
 118 -512 l 2
 104 -512 96 -488 96 -445 c 2
 96 1371 l 2
 96 1414 104 1438 118 1438 c 2
 150 1438 l 2
 165 1438 173 1414 173 1371 c 2
 173 827 l 2
 173 820 174 819 174 819 c 2
 175 819 176 823 176 823 c 1
 218 955 299 1019 376 1019 c 0
 498 1019 608 912 608 504 c 0
 608 107 476 -12 365 -12 c 0
EndSplineSet
EndChar

StartChar: endash
Encoding: 380 8211 437
Width: 1024
VWidth: 0
Flags: HW
LayerCount: 2
Fore
SplineSet
77 484 m 1
 77 659 l 1
 944 659 l 1
 944 484 l 1
 77 484 l 1
EndSplineSet
EndChar

StartChar: emdash
Encoding: 381 8212 438
Width: 2048
VWidth: 0
Flags: HW
LayerCount: 2
Fore
SplineSet
77 484 m 1
 77 659 l 1
 1968 659 l 1
 1968 484 l 1
 77 484 l 1
EndSplineSet
EndChar

StartChar: ae
Encoding: 161 230 439
Width: 1048
VWidth: 0
Flags: HW
LayerCount: 2
Fore
SplineSet
545 539 m 2
 858 539 l 1
 858 541 l 1
 849 802 824 957 702 957 c 0
 621 957 554 866 543 602 c 0
 542.833477821 598.003467708 543 539 545 539 c 2
711 -12 m 0
 610.829101562 -12 532.569335938 72.0556640625 495.984375 230.39453125 c 1
 467.54296875 79.873046875 405.563425868 -12 273 -12 c 0
 126 -12 71 92 71 238 c 0
 71 584 391 593 459 608 c 1
 459 650 l 2
 459 805 443 957 314 957 c 0
 192 957 164 836 152 788 c 0
 145.016826947 760.06730779 134 754 119 758 c 0
 81.1748674996 766.900031177 83.7756627782 784.102651113 93 821 c 0
 108 881 157 1018 312 1018 c 0
 420.971679688 1018 491.264648438 954.3046875 510.890625 815.407226562 c 1
 540.077148438 963.834960938 626.38671875 1019 703 1019 c 0
 866 1019 910 861 923 607 c 1
 923 565 l 2
 923 530 917 487 878 487 c 2
 547 487 l 2
 544 487 541 485 541 477 c 0
 542 317 558 50 717 50 c 0
 851 50 852 200 859 284 c 0
 860 291 862 302 864 302 c 2
 903 302 l 2
 908 302 913 299 913 289 c 2
 913 256 l 2
 913 120 861 -12 711 -12 c 0
281 50 m 0
 422 50 461 245 461 493 c 0
 461 507 461 551 455 551 c 0
 454 551 386.088141998 540.680719473 383 540 c 0
 197 499 139 374 140 242 c 0
 141 122 178 50 281 50 c 0
EndSplineSet
EndChar

StartChar: Dcroat
Encoding: 203 272 440
Width: 883
VWidth: 0
Flags: HW
LayerCount: 2
Fore
SplineSet
126 0 m 2
 112 0 104 4 104 37 c 2
 104 701 l 1
 38 701 l 2
 25 701 15 701 15 726 c 2
 15 734 l 2
 15 761 25 761 38 761 c 2
 104 761 l 1
 104 1411 l 2
 104 1434 112 1438 126 1438 c 2
 412 1438 l 2
 653 1438 796 1293 796 721 c 0
 796 141 693 0 412 0 c 2
 126 0 l 2
193 60 m 2
 412 60 l 2
 663 60 718 222 718 721 c 0
 718 1162 646 1378 412 1378 c 2
 192 1378 l 2
 186 1378 182 1374 182 1364 c 2
 182 761 l 1
 402 761 l 2
 415 761 425 761 425 736 c 2
 425 728 l 2
 425 701 415 701 402 701 c 2
 182 701 l 1
 182 78 l 2
 182 64 185 60 193 60 c 2
EndSplineSet
EndChar

StartChar: dcroat
Encoding: 204 273 441
Width: 687
VWidth: 0
Flags: HW
LayerCount: 2
Fore
SplineSet
335 50 m 0
 434 54 513 246 513 504 c 0
 513 786 427 954 335 957 c 0
 239 960 156 892 156 505 c 0
 156 142 228 46 335 50 c 0
527 228 m 1
 526 222 524 217 523 211 c 0
 480 50 419 -12 321 -12 c 0
 209 -12 78 43 78 505 c 0
 78 956 189 1019 323 1019 c 0
 399 1019 467 956 509 826 c 0
 510 823 512 818 513 813 c 1
 513 939 513 1065 513 1191 c 5
 296 1191 l 6
 283 1191 273 1191 273 1216 c 6
 273 1224 l 6
 273 1251 283 1251 296 1251 c 6
 513 1251 l 5
 513 1371 l 2
 513 1414 521 1438 537 1438 c 2
 568 1438 l 2
 582 1438 591 1414 591 1371 c 2
 591 1251 l 5
 660 1251 l 6
 673 1251 683 1251 683 1226 c 6
 683 1218 l 6
 683 1191 673 1191 660 1191 c 6
 591 1191 l 5
 591 67 l 2
 591 24 588 0 573 0 c 2
 568 0 l 2
 538.690365923 0 533.341633258 202.633466968 527 228 c 1
EndSplineSet
EndChar

StartChar: Hbar
Encoding: 223 294 442
Width: 851
VWidth: 0
Flags: HW
LayerCount: 2
Fore
SplineSet
41 1251 m 2
 104 1251 l 1
 104 1391 l 2
 104 1434 112 1438 128 1438 c 2
 156 1438 l 2
 172 1438 182 1434 182 1391 c 2
 182 1251 l 1
 669 1251 l 1
 669 1391 l 2
 669 1434 679 1438 696 1438 c 2
 726 1438 l 2
 740 1438 748 1434 748 1391 c 2
 748 1251 l 1
 810 1251 l 2
 823.000976562 1251 833 1251 833 1226 c 2
 833 1218 l 2
 833 1191 823.000976562 1191 810 1191 c 2
 748 1191 l 1
 748 47 l 2
 748 4 740 0 726 0 c 2
 696 0 l 2
 679 0 669 4 669 47 c 2
 669 679 l 1
 662 697 l 1
 187 697 l 1
 182 681 l 1
 182 47 l 2
 182 4 172 0 156 0 c 2
 128 0 l 2
 112 0 104 4 104 47 c 2
 104 1191 l 1
 41 1191 l 2
 28 1191 18 1191 18 1216 c 2
 18 1224 l 2
 18 1251 28 1251 41 1251 c 2
182 1191 m 1
 182 780 l 1
 186 765 l 1
 661 765 l 1
 669 783 l 1
 669 1191 l 1
 182 1191 l 1
EndSplineSet
EndChar

StartChar: hbar
Encoding: 224 295 443
Width: 639
VWidth: 0
Flags: HW
LayerCount: 2
Fore
SplineSet
41 1251 m 2
 96 1251 l 1
 96 1382 l 2
 96 1425 104 1438 118 1438 c 2
 150 1438 l 2
 165 1438 173 1425 173 1382 c 2
 173 1251 l 1
 438 1251 l 2
 451.000976562 1251 461 1251 461 1226 c 2
 461 1218 l 2
 461 1191 451.000976562 1191 438 1191 c 2
 173 1191 l 1
 173 821 l 2
 173 817 174 816 175 816 c 0
 177 816 179 817 180 820 c 0
 225 971 307 1019 375 1019 c 0
 501 1019 553 935 553 599 c 2
 553 52 l 2
 553 9 543 0 530 0 c 2
 498 0 l 2
 483 0 476 9 476 52 c 2
 476 633 l 2
 476 858 451 957 370 957 c 0
 271 957 173 773 173 613 c 2
 173 52 l 2
 173 9 166 0 151 0 c 2
 118 0 l 2
 104 0 96 9 96 52 c 2
 96 1191 l 1
 41 1191 l 2
 28 1191 18 1191 18 1216 c 2
 18 1224 l 2
 18 1251 28 1251 41 1251 c 2
EndSplineSet
EndChar

StartChar: quotedblleft
Encoding: 385 8220 445
Width: 494
VWidth: 0
Flags: HW
LayerCount: 2
Fore
SplineSet
323 911 m 2
 307 911 296 945 296 988 c 2
 296 1133 l 2
 296 1370 341 1506 388 1529 c 0
 400 1535 411 1520 411 1484 c 2
 411 1474 l 2
 411 1420 405 1426 390 1399 c 0
 367 1356 355 1279 355 1255 c 0
 355 1239 356 1228 361 1228 c 2
 390 1228 l 2
 403 1228 411 1216 411 1178 c 2
 411 975 l 2
 411 932 404 911 390 911 c 2
 323 911 l 2
115 911 m 2
 99 911 88 945 88 988 c 2
 88 1133 l 2
 88 1370 133 1506 180 1529 c 0
 192 1535 203 1520 203 1484 c 2
 203 1474 l 2
 203 1420 197 1426 182 1399 c 0
 159 1356 147 1279 147 1255 c 0
 147 1239 148 1228 153 1228 c 2
 182 1228 l 2
 195 1228 203 1216 203 1178 c 2
 203 975 l 2
 203 932 196 911 182 911 c 2
 115 911 l 2
EndSplineSet
EndChar

StartChar: quotedblright
Encoding: 386 8221 446
Width: 497
VWidth: 0
Flags: HW
LayerCount: 2
Fore
SplineSet
312 917 m 0
 300 911 290 926 290 962 c 2
 290 972 l 2
 290 1026 296 1020 311 1047 c 0
 334 1090 345 1167 345 1191 c 0
 345 1207 345 1218 339 1218 c 2
 311 1218 l 2
 298 1218 290 1230 290 1268 c 2
 290 1471 l 2
 290 1514 296 1535 311 1535 c 2
 378 1535 l 2
 393 1535 405 1501 405 1458 c 2
 405 1313 l 2
 405 1076 360 940 312 917 c 0
114 917 m 0
 102 911 92 926 92 962 c 2
 92 972 l 2
 92 1026 98 1020 113 1047 c 0
 136 1090 147 1167 147 1191 c 0
 147 1207 147 1218 141 1218 c 2
 113 1218 l 2
 100 1218 92 1230 92 1268 c 2
 92 1471 l 2
 92 1514 98 1535 113 1535 c 2
 180 1535 l 2
 195 1535 207 1501 207 1458 c 2
 207 1313 l 2
 207 1076 162 940 114 917 c 0
EndSplineSet
EndChar

StartChar: dagger
Encoding: 388 8224 447
Width: 738
VWidth: 0
Flags: HW
LayerCount: 2
Fore
SplineSet
360.5 0 m 2
 346.5 0 338.5 24 338.5 67 c 2
 338.5 987.200195312 l 1
 94 987.200195312 l 2
 51 987.200195312 36 995.200195312 36 1009.20019531 c 2
 36 1041.20019531 l 2
 36 1056.20019531 51 1065.20019531 94 1065.20019531 c 2
 338.5 1065.20019531 l 1
 338.5 1371 l 2
 338.5 1414 346.5 1438 360.5 1438 c 2
 392.5 1438 l 2
 407.5 1438 415.5 1414 415.5 1371 c 2
 415.5 1065.20019531 l 1
 646 1065.20019531 l 2
 689 1065.20019531 702 1056.20019531 702 1041.20019531 c 2
 702 1009.20019531 l 2
 702 995.200195312 689 987.200195312 646 987.200195312 c 2
 415.5 987.200195312 l 1
 415.5 67 l 2
 415.5 24 407.5 0 392.5 0 c 2
 360.5 0 l 2
EndSplineSet
EndChar

StartChar: daggerdbl
Encoding: 389 8225 448
Width: 738
VWidth: 0
Flags: HW
LayerCount: 2
Fore
SplineSet
360.5 0 m 2
 346.5 0 338.5 24 338.5 67 c 2
 338.5 435.200195312 l 1
 94 435.200195312 l 2
 51 435.200195312 36 443.200195312 36 457.200195312 c 2
 36 489.200195312 l 2
 36 504.200195312 51 513.200195312 94 513.200195312 c 2
 338.5 513.200195312 l 1
 338.5 987.200195312 l 1
 94 987.200195312 l 2
 51 987.200195312 36 995.200195312 36 1009.20019531 c 2
 36 1041.20019531 l 2
 36 1056.20019531 51 1065.20019531 94 1065.20019531 c 2
 338.5 1065.20019531 l 1
 338.5 1371 l 2
 338.5 1414 346.5 1438 360.5 1438 c 2
 392.5 1438 l 2
 407.5 1438 415.5 1414 415.5 1371 c 2
 415.5 1065.20019531 l 1
 646 1065.20019531 l 2
 689 1065.20019531 702 1056.20019531 702 1041.20019531 c 2
 702 1009.20019531 l 2
 702 995.200195312 689 987.200195312 646 987.200195312 c 2
 415.5 987.200195312 l 1
 415.5 513.200195312 l 1
 646 513.200195312 l 2
 689 513.200195312 702 504.200195312 702 489.200195312 c 2
 702 457.200195312 l 2
 702 443.200195312 689 435.200195312 646 435.200195312 c 2
 415.5 435.200195312 l 1
 415.5 67 l 2
 415.5 24 407.5 0 392.5 0 c 2
 360.5 0 l 2
EndSplineSet
EndChar

StartChar: Delta
Encoding: 412 916 450
Width: 739
VWidth: 0
Flags: HW
LayerCount: 2
Fore
SplineSet
141 242 m 6
 132 242 126 253 126 274 c 4
 126 284 124 281 127 295 c 6
 318 1270 l 6
 326.030273438 1310.99414062 338 1325 354 1328 c 5
 400 1328 l 5
 416 1325 427.448242188 1310.90332031 435 1270 c 6
 615 295 l 6
 617 281 622 283 622 273 c 4
 622 253 617 242 607 242 c 6
 578 242 l 5
 168 242 l 5
 141 242 l 6
227 310 m 6
 525 310 l 6
 527 310 527 313 527 315 c 4
 527 317 527 319 525 320 c 5
 378 1221 l 6
 377 1222 377 1223 377 1223 c 5
 375 1223 375 1221 375 1221 c 5
 219 326 l 6
 218 321 218 318 218 317 c 4
 218 315 221 310 227 310 c 6
EndSplineSet
EndChar

StartChar: lozenge
Encoding: 408 9674 451
Width: 739
VWidth: 0
Flags: HW
LayerCount: 2
Fore
SplineSet
614 724 m 0
 434 79 l 2
 422.771484375 38.763671875 415 24 399 21 c 1
 353 21 l 1
 337 24 328.861328125 38.9462890625 317 79 c 2
 126 724 l 2
 122.943359375 733.522460938 123.1015625 731.223632812 127 745 c 2
 318 1370 l 2
 330.208984375 1409.95019531 338 1425 354 1428 c 1
 400 1428 l 1
 416 1425 423.439453125 1410.14257812 435 1370 c 2
 615 745 l 2
 618.643554688 731.336914062 614 734 614 724 c 0
524 735.200195312 m 1
 378 1321 l 2
 377.658203125 1322.37207031 377 1323 377 1323 c 1
 375 1323 375 1321 375 1321 c 1
 211.673828125 725.200195312 l 2
 374 128 l 1
 374 128 374 126 376 126 c 1
 376 126 376.66796875 126.627929688 377 128 c 2
 524 735.200195312 l 1
EndSplineSet
EndChar

StartChar: florin
Encoding: 304 402 452
Width: 412
VWidth: 0
Flags: HW
LayerCount: 2
Fore
SplineSet
439.505406325 1264.45783801 m 0
 439.505406325 1237.90983525 435.968265737 1210 421 1210 c 2
 403 1210 l 2
 303 1210 285 1163 262 940 c 1
 251 842 l 2
 250.665039062 839.01953125 253 836 255 836 c 2
 364 836 l 2
 378 836 385 835 383 817 c 2
 380 788 l 2
 378 769 370 766 356 766 c 2
 252 766 l 2
 245 766 242.830078125 765.016601562 241 745 c 2
 196 305 l 2
 163.056640625 -17.111328125 125 -91 -33 -91 c 2
 -38 -91 l 2
 -39.7777777778 -91 -41.6543209877 -91.1975308642 -43.4650205761 -91.1975308642 c 0
 -48.789669925 -91.1975308642 -53.5449383287 -89.4893880285 -53.5449383287 -76.0269724568 c 0
 -53.5449383287 -48.0815596691 -51.8139200019 -21 -36 -21 c 2
 -28 -21 l 2
 72 -21 90.0703125 25.9931640625 113 249 c 2
 164 745 l 2
 165.873046875 765.012695312 166 766 158 766 c 2
 76 766 l 2
 61 766 53 768 55 788 c 2
 57 815 l 2
 59 834 69 836 84 836 c 2
 166 836 l 2
 174 836 178 862 180 884 c 0
 214 1206 250 1280 408 1280 c 2
 423 1280 l 2
 424.777777778 1280 426.703703704 1280.19753086 428.59122085 1280.19753086 c 0
 434.219039267 1280.19753086 439.505406325 1278.44149531 439.505406325 1264.45783801 c 0
EndSplineSet
EndChar

StartChar: integral
Encoding: 403 8747 453
Width: 412
VWidth: 0
Flags: HW
LayerCount: 2
Fore
SplineSet
439.505406325 1264.45783801 m 0
 439.505406325 1237.90983525 435.968265737 1210 421 1210 c 2
 403 1210 l 2
 303 1210 285 1163 262 940 c 6
 196 305 l 6
 163.056640625 -17.111328125 125 -91 -33 -91 c 2
 -38 -91 l 2
 -39.7777777778 -91 -41.6543209877 -91.1975308642 -43.4650205761 -91.1975308642 c 0
 -48.789669925 -91.1975308642 -53.5449383287 -89.4893880285 -53.5449383287 -76.0269724568 c 0
 -53.5449383287 -48.0815596691 -51.8139200019 -21 -36 -21 c 2
 -28 -21 l 2
 72 -21 90.0703125 25.9931640625 113 249 c 6
 180 884 l 6
 214 1206 250 1280 408 1280 c 2
 423 1280 l 2
 424.777777778 1280 426.703703704 1280.19753086 428.59122085 1280.19753086 c 0
 434.219039267 1280.19753086 439.505406325 1278.44149531 439.505406325 1264.45783801 c 0
EndSplineSet
EndChar

StartChar: product
Encoding: 399 8719 454
Width: 851
VWidth: 0
Flags: HW
LayerCount: 2
Fore
SplineSet
128 0 m 2
 112 0 104 4 104 47 c 2
 104 1391 l 2
 104 1434 112 1438 128 1438 c 2
 726 1438 l 2
 740 1438 748 1434 748 1391 c 2
 748 47 l 2
 748 4 740 0 726 0 c 2
 696 0 l 2
 679 0 669 4 669 47 c 2
 669 1352 l 2
 669 1361.93554688 665.864257812 1370 662 1370 c 2
 187 1370 l 2
 184.240234375 1370 182 1362.83203125 182 1354 c 2
 182 47 l 2
 182 4 172 0 156 0 c 2
 128 0 l 2
EndSplineSet
EndChar

StartChar: bullet
Encoding: 390 8226 455
Width: 946
VWidth: 0
Flags: HW
LayerCount: 2
Fore
SplineSet
473 743 m 0
 243 743 157 913 157 1059 c 0
 157 1214 243 1379 473 1379 c 0
 702 1379 787 1214 787 1059 c 0
 787 913 702 743 473 743 c 0
EndSplineSet
EndChar

StartChar: Euro
Encoding: 396 8364 456
Width: 660
VWidth: 0
Flags: HWO
LayerCount: 2
Fore
SplineSet
570 15 m 2
 570 -11.2025836279 439.954821071 -13 432 -13 c 0
 290.768739251 -13 122.970127476 16.058040185 94.2732705544 550 c 1
 57 550 l 2
 42 550 38 550 38 593 c 2
 38 597 l 2
 38 640 42 640 57 640 c 2
 90.889623733 640 l 1
 90.3012616155 665.957394803 90 692.943837207 90 721 c 0
 90 753.767374924 90.4483512775 785.079445701 91.321406313 815 c 1
 57 815 l 2
 42 815 38 815 38 858 c 2
 38 862 l 2
 38 905 42 905 57 905 c 2
 95.4667927154 905 l 1
 127.076259073 1396.12054886 290.380434049 1451 444 1451 c 0
 499.736109256 1451 592 1441.84283008 592 1413 c 2
 592 1372 l 2
 592 1364 589 1363 585 1363 c 0
 583 1363 524 1388 453 1388 c 0
 326.29844921 1388 200.381938421 1332.26215996 173.325123275 905 c 1
 351 905 l 2
 366 905 371 905 371 862 c 2
 371 858 l 2
 371 815 366 815 351 815 c 2
 169.27503365 815 l 1
 168.43292313 785.216312268 168 753.908454174 168 721 c 0
 168 692.848615709 168.258900312 665.864476892 168.767554206 640 c 1
 351 640 l 2
 366 640 371 640 371 597 c 2
 371 593 l 2
 371 550 366 550 351 550 c 2
 171.739687097 550 l 1
 192.895052617 106.375205106 301.310707844 51 433 51 c 0
 469 51 530 60 563 71 c 0
 567 72 570 68 570 63 c 2
 570 15 l 2
EndSplineSet
EndChar
